<?xml version="1.0" encoding="UTF-8" standalone="no"?>
<svg
   xmlns:dc="http://purl.org/dc/elements/1.1/"
   xmlns:cc="http://creativecommons.org/ns#"
   xmlns:rdf="http://www.w3.org/1999/02/22-rdf-syntax-ns#"
   xmlns:svg="http://www.w3.org/2000/svg"
   xmlns="http://www.w3.org/2000/svg"
   xmlns:sodipodi="http://sodipodi.sourceforge.net/DTD/sodipodi-0.dtd"
   xmlns:inkscape="http://www.inkscape.org/namespaces/inkscape"
   version="1.1"
   id="logo-gfdrr"
   x="0px"
   y="0px"
   width="34.674999"
   height="34.047001"
   viewBox="0 0 34.674998 34.047"
   enable-background="new 0 0 152.744 34.047"
   xml:space="preserve"
   sodipodi:docname="favico.svg"
   inkscape:version="0.92.1 r15371"><metadata
     id="metadata262"><rdf:RDF><cc:Work
         rdf:about=""><dc:format>image/svg+xml</dc:format><dc:type
           rdf:resource="http://purl.org/dc/dcmitype/StillImage" /><dc:title></dc:title></cc:Work></rdf:RDF></metadata><defs
     id="defs260" /><sodipodi:namedview
     pagecolor="#ffffff"
     bordercolor="#666666"
     borderopacity="1"
     objecttolerance="10"
     gridtolerance="10"
     guidetolerance="10"
     inkscape:pageopacity="0"
     inkscape:pageshadow="2"
     inkscape:window-width="1920"
     inkscape:window-height="1017"
     id="namedview258"
     showgrid="false"
     inkscape:lockguides="true"
     inkscape:zoom="6.7218288"
     inkscape:cx="-1.9323612"
     inkscape:cy="11.599176"
     inkscape:window-x="-8"
     inkscape:window-y="-8"
     inkscape:window-maximized="1"
     inkscape:current-layer="logo-gfdrr" /><g
     id="g4896"><g
       id="g16"><g
         id="g4"><path
           d="M 17.337,0.019 C 7.762,0.019 0,7.781 0,17.354 0,24.937 4.869,31.377 11.648,33.73 5.659,31.303 1.434,25.432 1.434,18.57 1.434,9.536 8.758,2.209 17.793,2.209 c 9.035,0 16.359,7.328 16.359,16.361 0,2.646 -0.632,5.145 -1.747,7.355 1.442,-2.529 2.27,-5.453 2.27,-8.572 0,-9.572 -7.762,-17.334 -17.338,-17.334 z"
           id="path2"
           inkscape:connector-curvature="0"
           style="fill:#939598" /></g><g
         id="g8"><path
           d="m 20.575,3.783 c 6.055,1.454 10.556,6.883 10.556,13.365 0,7.594 -6.177,13.749 -13.797,13.749 -7.618,0 -13.633,-6.074 -13.633,-13.668 0,-0.696 -0.353,-0.056 -0.353,1.028 0,8.119 6.579,14.697 14.698,14.697 8.117,0 14.697,-6.578 14.697,-14.697 0,-7.255 -5.258,-13.276 -12.168,-14.474 z"
           id="path6"
           inkscape:connector-curvature="0"
           style="fill:#636466" /></g><g
         id="g14"><path
           d="m 14.452,29.504 v 0.008 c 0.042,0.012 0.083,0.023 0.126,0.035 -0.043,-0.012 -0.085,-0.031 -0.126,-0.043 z"
           id="path10"
           inkscape:connector-curvature="0"
           style="fill:#636466" /><path
           d="m 19.414,29.76 c 0.011,-0.004 0.024,-0.004 0.036,-0.008 V 29.75 c -0.012,0.006 -0.025,0.006 -0.036,0.01 z"
           id="path12"
           inkscape:connector-curvature="0"
           style="fill:#636466" /></g></g><g
       id="g20"><path
         d="M 4.354,15.935 C 4.416,15.612 4.408,15.514 4.453,15.045 4.49,14.649 4.591,14.176 4.702,13.809 6.2,8.776 10.895,5.247 16.646,5.247 c 1.659,0 3.242,0.312 4.688,0.874 0.228,0.026 0.455,0.044 0.683,0.047 L 22.061,6.1 C 20.332,5.273 18.449,4.704 16.348,4.677 9.869,4.597 4.973,8.795 3.859,14.155 3.754,14.661 3.638,15.234 3.71,15.687 c 0.075,0.465 0.483,0.596 0.644,0.248 z"
         id="path18"
         inkscape:connector-curvature="0"
         style="fill:#636466" /></g><g
       id="g26"><path
         d="m 28.522,21.51 c 0,0 -0.252,0.225 -0.564,0.449 -0.311,0.221 -1.402,0.881 -2.234,1.115 0.367,-0.936 0.803,-1.875 1.076,-2.82 0.517,-1.4 0.614,-2.838 0.679,-2.975 0.741,-0.498 1.269,-1.271 1.496,-1.752 0.321,-0.528 0.318,-0.938 0.243,-1.004 -0.074,-0.067 -0.306,0.293 -0.433,0.521 -0.401,0.596 -0.722,1.169 -1.328,1.536 0,0 -0.078,-3.145 -1.391,-4.096 0.604,1.515 1.018,3.043 0.763,4.567 -0.936,0.539 -2.396,0.97 -3.414,1.101 v -0.253 c 0.226,-1.608 0.196,-2.95 -0.031,-4.48 0.625,-0.298 1.22,-0.622 1.667,-1.136 0.672,-0.829 0.768,-1.664 0.429,-2.505 L 25.453,9.753 c -0.252,0.258 -0.039,0.649 -0.345,1.346 -0.38,0.778 -0.953,1.203 -1.767,1.512 -0.19,-0.928 -0.715,-2.903 -1.765,-3.785 0.604,1.341 1.326,2.993 1.203,3.943 -1.51,0.306 -2.694,0.274 -4.12,-0.336 0.575,-0.842 1.175,-2.287 1.652,-3.237 L 20.26,9.051 c -0.794,0.805 -1.514,2.328 -2.238,3.2 C 17.386,11.921 16.81,11.537 16.334,11.048 16.05,10.674 15.825,10.532 15.71,10.027 16.529,9.462 17.882,8.768 19.097,8.644 L 18.908,8.506 C 17.807,8.564 16.655,8.95 15.58,9.424 15.529,8.814 15.591,8.138 15.956,7.603 16.719,7.268 17.782,7.358 18.465,7.44 17.647,7.044 17.265,6.947 16.611,6.948 16.671,6.695 17.087,6.684 17.095,6.452 16.542,6.417 16.191,6.64 15.682,6.978 c -2.765,0.085 -4.644,1.704 -4.644,1.704 0.267,-0.789 0.383,-1.056 1.033,-1.479 -0.848,0.283 -1.412,0.566 -1.888,2.028 -1.81,1.332 -1.934,1.854 -2.158,2.646 0.82,-1.092 1.479,-1.469 2,-1.801 -0.151,0.638 0.141,2.329 0.926,3.35 C 9.906,14.769 8.763,16.181 8.128,17.801 7.697,17.107 7.369,16.583 7.103,15.807 6.747,14.918 6.534,14.128 6.45,13.446 l -0.139,0.372 c 0,0.107 -0.056,0.414 -0.05,0.521 0.082,1.607 0.539,3.124 1.502,4.502 -0.378,1.371 -0.871,3.098 -0.26,4.457 0.324,-1.059 0.312,-2.305 0.926,-3.229 1.139,1.486 2.615,2.662 4.29,3.643 -0.172,1.129 -0.375,2.305 -0.508,3.383 C 10.658,26.324 9.336,25.491 8.24,24.312 L 8.15,24.33 c 0.075,0.322 0.153,0.42 0.348,0.82 0.824,1.387 2.104,2.135 3.677,2.881 0.075,0.043 -0.075,0.797 0.224,0.994 0.174,0.174 0.571,0.521 0.547,-0.602 1.73,0.57 3.266,0.428 5.019,0.326 l 1.459,-0.338 c -1.786,-0.092 -4.583,-0.078 -6.383,-0.898 0.157,-1.291 0.334,-2.404 0.524,-3.492 l 0.113,0.031 c 1.958,0.809 4.347,1.07 5.968,1.012 0.062,0 0.132,-0.338 0.132,-0.338 -0.122,-0.092 -0.108,-0.082 -0.3,-0.246 -0.141,-0.053 -0.326,-0.254 -0.496,-0.324 -0.149,-0.033 -0.17,-0.045 -0.382,-0.07 -1.652,-0.082 -3.248,-0.322 -4.807,-1.184 0.511,-1.713 1.085,-3.246 1.978,-4.879 2.244,0.877 4.361,1.348 6.657,0.99 -0.271,1.537 -0.651,2.783 -1.251,4.291 l -0.845,1.965 c 0,0 -0.628,1.375 -1.058,1.939 0.802,-0.502 1.646,-1.902 1.801,-2.182 0.158,-0.277 0.593,-1.287 0.593,-1.287 v 0 c 0.691,-1.539 1.333,-3.193 1.635,-4.805 1.075,-0.291 2.345,-0.527 3.328,-1.093 -0.168,1.609 -0.836,3.673 -1.554,5.468 -0.016,0.008 -0.246,0.512 -0.246,0.512 l -0.192,0.383 c -0.494,0.789 -0.44,0.984 -0.736,1.336 0.899,-0.918 0.982,-0.953 1.322,-1.443 0.736,-0.447 1.608,-0.744 2.298,-1.246 -2.04,3.707 -5.738,6.113 -9.953,6.877 l 0.005,0.078 c 3.833,0.098 7.034,-2.119 9.418,-4.783 1.096,-1.316 1.89,-2.869 2.373,-4.367 l -0.29,0.34 z M 11.394,12.727 c -0.602,-1.052 -0.806,-2.015 -0.582,-3.188 1.22,-0.947 2.58,-1.853 4.396,-1.914 -0.373,0.732 -0.435,1.478 -0.291,2.212 M 12.955,22.51 c -1.701,-0.891 -2.996,-2.336 -4.158,-3.695 0.397,-1.842 1.568,-3.261 2.591,-4.629 0.9,1.306 2.056,2.396 3.423,3.284 -0.95,1.608 -1.679,4.009 -1.856,5.04 z m 2.348,-5.852 c -1.481,-0.64 -2.464,-1.916 -3.451,-3.114 0.871,-1.257 1.964,-2.24 3.275,-3.006 0.547,1.024 1.466,1.72 2.482,2.31 z m 7.265,1.512 c -2.162,0.104 -4.299,0.051 -6.418,-0.984 0.549,-1.151 1.227,-2.505 2.165,-4.011 1.452,0.559 2.956,0.659 4.442,0.438 0.247,1.523 0.121,2.96 -0.189,4.557 z"
         id="path22"
         inkscape:connector-curvature="0"
         style="fill:#939598" /><path
         d="M 25.5,9.327 C 25.497,9.332 25.494,9.335 25.49,9.34 l 0.027,0.028 C 25.51,9.354 25.506,9.34 25.5,9.327 Z"
         id="path24"
         inkscape:connector-curvature="0"
         style="fill:#939598" /></g><g
       id="g154"><radialGradient
         id="SVGID_1_"
         cx="14.4375"
         cy="29.497101"
         r="0.047200002"
         gradientUnits="userSpaceOnUse"><stop
           offset="0"
           style="stop-color:#FFFFFF"
           id="stop120" /><stop
           offset="0.0262"
           style="stop-color:#DBDBDB"
           id="stop122" /><stop
           offset="0.0863"
           style="stop-color:#8E8E8E"
           id="stop124" /><stop
           offset="0.14"
           style="stop-color:#515151"
           id="stop126" /><stop
           offset="0.1852"
           style="stop-color:#252525"
           id="stop128" /><stop
           offset="0.2202"
           style="stop-color:#0A0A0A"
           id="stop130" /><stop
           offset="0.2407"
           style="stop-color:#000000"
           id="stop132" /></radialGradient><path
         d="m 14.375,29.477 v 0.006 c 0.043,0.014 0.085,0.025 0.126,0.035 -0.042,-0.014 -0.083,-0.03 -0.126,-0.041 z"
         id="path135"
         style="fill:url(#SVGID_1_)"
         inkscape:connector-curvature="0" /><radialGradient
         id="SVGID_2_"
         cx="19.3545"
         cy="29.725599"
         r="0.0126"
         gradientUnits="userSpaceOnUse"><stop
           offset="0"
           style="stop-color:#FFFFFF"
           id="stop137" /><stop
           offset="0.0262"
           style="stop-color:#DBDBDB"
           id="stop139" /><stop
           offset="0.0863"
           style="stop-color:#8E8E8E"
           id="stop141" /><stop
           offset="0.14"
           style="stop-color:#515151"
           id="stop143" /><stop
           offset="0.1852"
           style="stop-color:#252525"
           id="stop145" /><stop
           offset="0.2202"
           style="stop-color:#0A0A0A"
           id="stop147" /><stop
           offset="0.2407"
           style="stop-color:#000000"
           id="stop149" /></radialGradient><path
         d="m 19.337,29.729 c 0.011,-0.002 0.023,-0.004 0.035,-0.006 v 0 c -0.012,0 -0.024,0.002 -0.035,0.006 z"
         id="path152"
         style="fill:url(#SVGID_2_)"
         inkscape:connector-curvature="0" /></g></g><g
     id="g253"><linearGradient
       y2="12.7393"
       x2="65.143097"
       y1="12.7393"
       x1="43.757801"
       gradientUnits="userSpaceOnUse"
       id="SVGID_3_"><stop
         id="stop158"
         style="stop-color:#FFFFFF"
         offset="0" /><stop
         id="stop160"
         style="stop-color:#DBDBDB;stop-opacity:0.9891"
         offset="0" /><stop
         id="stop162"
         style="stop-color:#8E8E8E;stop-opacity:0.9641"
         offset="0" /><stop
         id="stop164"
         style="stop-color:#515151;stop-opacity:0.9418"
         offset="0" /><stop
         id="stop166"
         style="stop-color:#252525;stop-opacity:0.9231"
         offset="0" /><stop
         id="stop168"
         style="stop-color:#0A0A0A;stop-opacity:0.9085"
         offset="0" /><stop
         id="stop170"
         style="stop-color:#000000;stop-opacity:0.9"
         offset="0" /><stop
         id="stop172"
         style="stop-color:#000000;stop-opacity:0.9"
         offset="0.9292" /></linearGradient><linearGradient
       y2="12.7393"
       x2="83.927696"
       y1="12.7393"
       x1="70.304703"
       gradientUnits="userSpaceOnUse"
       id="SVGID_4_"><stop
         id="stop177"
         style="stop-color:#FFFFFF"
         offset="0" /><stop
         id="stop179"
         style="stop-color:#DBDBDB;stop-opacity:0.9891"
         offset="0" /><stop
         id="stop181"
         style="stop-color:#8E8E8E;stop-opacity:0.9641"
         offset="0" /><stop
         id="stop183"
         style="stop-color:#515151;stop-opacity:0.9418"
         offset="0" /><stop
         id="stop185"
         style="stop-color:#252525;stop-opacity:0.9231"
         offset="0" /><stop
         id="stop187"
         style="stop-color:#0A0A0A;stop-opacity:0.9085"
         offset="0" /><stop
         id="stop189"
         style="stop-color:#000000;stop-opacity:0.9"
         offset="0" /><stop
         id="stop191"
         style="stop-color:#000000;stop-opacity:0.9"
         offset="0.9292" /></linearGradient><linearGradient
       y2="12.7393"
       x2="108.7207"
       y1="12.7393"
       x1="87.864304"
       gradientUnits="userSpaceOnUse"
       id="SVGID_5_"><stop
         id="stop196"
         style="stop-color:#FFFFFF"
         offset="0" /><stop
         id="stop198"
         style="stop-color:#DBDBDB;stop-opacity:0.9891"
         offset="0" /><stop
         id="stop200"
         style="stop-color:#8E8E8E;stop-opacity:0.9641"
         offset="0" /><stop
         id="stop202"
         style="stop-color:#515151;stop-opacity:0.9418"
         offset="0" /><stop
         id="stop204"
         style="stop-color:#252525;stop-opacity:0.9231"
         offset="0" /><stop
         id="stop206"
         style="stop-color:#0A0A0A;stop-opacity:0.9085"
         offset="0" /><stop
         id="stop208"
         style="stop-color:#000000;stop-opacity:0.9"
         offset="0" /><stop
         id="stop210"
         style="stop-color:#000000;stop-opacity:0.9"
         offset="0.9292" /></linearGradient><linearGradient
       y2="12.7393"
       x2="131.123"
       y1="12.7393"
       x1="112.7969"
       gradientUnits="userSpaceOnUse"
       id="SVGID_6_"><stop
         id="stop215"
         style="stop-color:#FFFFFF"
         offset="0" /><stop
         id="stop217"
         style="stop-color:#DBDBDB;stop-opacity:0.9891"
         offset="0" /><stop
         id="stop219"
         style="stop-color:#8E8E8E;stop-opacity:0.9641"
         offset="0" /><stop
         id="stop221"
         style="stop-color:#515151;stop-opacity:0.9418"
         offset="0" /><stop
         id="stop223"
         style="stop-color:#252525;stop-opacity:0.9231"
         offset="0" /><stop
         id="stop225"
         style="stop-color:#0A0A0A;stop-opacity:0.9085"
         offset="0" /><stop
         id="stop227"
         style="stop-color:#000000;stop-opacity:0.9"
         offset="0" /><stop
         id="stop229"
         style="stop-color:#000000;stop-opacity:0.9"
         offset="0.9292" /></linearGradient><linearGradient
       y2="12.7393"
       x2="152.58009"
       y1="12.7393"
       x1="134.25"
       gradientUnits="userSpaceOnUse"
       id="SVGID_7_"><stop
         id="stop234"
         style="stop-color:#FFFFFF"
         offset="0" /><stop
         id="stop236"
         style="stop-color:#DBDBDB;stop-opacity:0.9891"
         offset="0" /><stop
         id="stop238"
         style="stop-color:#8E8E8E;stop-opacity:0.9641"
         offset="0" /><stop
         id="stop240"
         style="stop-color:#515151;stop-opacity:0.9418"
         offset="0" /><stop
         id="stop242"
         style="stop-color:#252525;stop-opacity:0.9231"
         offset="0" /><stop
         id="stop244"
         style="stop-color:#0A0A0A;stop-opacity:0.9085"
         offset="0" /><stop
         id="stop246"
         style="stop-color:#000000;stop-opacity:0.9"
         offset="0" /><stop
         id="stop248"
         style="stop-color:#000000;stop-opacity:0.9"
         offset="0.9292" /></linearGradient></g></svg>