<?xml version="1.0" encoding="UTF-8" standalone="no"?>
<svg
   xmlns:dc="http://purl.org/dc/elements/1.1/"
   xmlns:cc="http://creativecommons.org/ns#"
   xmlns:rdf="http://www.w3.org/1999/02/22-rdf-syntax-ns#"
   xmlns:svg="http://www.w3.org/2000/svg"
   xmlns="http://www.w3.org/2000/svg"
   xmlns:sodipodi="http://sodipodi.sourceforge.net/DTD/sodipodi-0.dtd"
   xmlns:inkscape="http://www.inkscape.org/namespaces/inkscape"
   version="1.1"
   id="logo-gfdrr"
   x="0px"
   y="0px"
   width="152.744px"
   height="34.047px"
   viewBox="0 0 152.744 34.047"
   enable-background="new 0 0 152.744 34.047"
   xml:space="preserve"
   sodipodi:docname="gfdrr-logo-inverse.svg"
   inkscape:version="0.92.1 r15371"><metadata
     id="metadata262"><rdf:RDF><cc:Work
         rdf:about=""><dc:format>image/svg+xml</dc:format><dc:type
           rdf:resource="http://purl.org/dc/dcmitype/StillImage" /><dc:title /></cc:Work></rdf:RDF></metadata><defs
     id="defs260" /><sodipodi:namedview
     pagecolor="#ffffff"
     bordercolor="#666666"
     borderopacity="1"
     objecttolerance="10"
     gridtolerance="10"
     guidetolerance="10"
     inkscape:pageopacity="0"
     inkscape:pageshadow="2"
     inkscape:window-width="1920"
     inkscape:window-height="1017"
     id="namedview258"
     showgrid="false"
     inkscape:zoom="4.7530508"
     inkscape:cx="64.819766"
     inkscape:cy="21.409489"
     inkscape:window-x="-8"
     inkscape:window-y="-8"
     inkscape:window-maximized="1"
     inkscape:current-layer="logo-gfdrr" /><g
     id="g16"
     style="fill:#ffffff;fill-opacity:1"><g
       id="g4"
       style="fill:#ffffff;fill-opacity:1"><path
         style="fill:#ffffff;fill-opacity:1"
         inkscape:connector-curvature="0"
         id="path2"
         d="M 17.337,0.019 C 7.762,0.019 0,7.781 0,17.354 0,24.937 4.869,31.377 11.648,33.73 5.659,31.303 1.434,25.432 1.434,18.57 1.434,9.536 8.758,2.209 17.793,2.209 c 9.035,0 16.359,7.328 16.359,16.361 0,2.646 -0.632,5.145 -1.747,7.355 1.442,-2.529 2.27,-5.453 2.27,-8.572 0,-9.572 -7.762,-17.334 -17.338,-17.334 z" /></g><g
       id="g8"
       style="fill:#ffffff;fill-opacity:1"><path
         style="fill:#ffffff;fill-opacity:1"
         inkscape:connector-curvature="0"
         id="path6"
         d="m 20.575,3.783 c 6.055,1.454 10.556,6.883 10.556,13.365 0,7.594 -6.177,13.749 -13.797,13.749 -7.618,0 -13.633,-6.074 -13.633,-13.668 0,-0.696 -0.353,-0.056 -0.353,1.028 0,8.119 6.579,14.697 14.698,14.697 8.117,0 14.697,-6.578 14.697,-14.697 0,-7.255 -5.258,-13.276 -12.168,-14.474 z" /></g><g
       id="g14"
       style="fill:#ffffff;fill-opacity:1"><path
         style="fill:#ffffff;fill-opacity:1"
         inkscape:connector-curvature="0"
         id="path10"
         d="m 14.452,29.504 v 0.008 c 0.042,0.012 0.083,0.023 0.126,0.035 -0.043,-0.012 -0.085,-0.031 -0.126,-0.043 z" /><path
         style="fill:#ffffff;fill-opacity:1"
         inkscape:connector-curvature="0"
         id="path12"
         d="m 19.414,29.76 c 0.011,-0.004 0.024,-0.004 0.036,-0.008 V 29.75 c -0.012,0.006 -0.025,0.006 -0.036,0.01 z" /></g></g><g
     id="g20"
     style="fill:#ffffff;fill-opacity:1"><path
       style="fill:#ffffff;fill-opacity:1"
       inkscape:connector-curvature="0"
       id="path18"
       d="M 4.354,15.935 C 4.416,15.612 4.408,15.514 4.453,15.045 4.49,14.649 4.591,14.176 4.702,13.809 6.2,8.776 10.895,5.247 16.646,5.247 c 1.659,0 3.242,0.312 4.688,0.874 0.228,0.026 0.455,0.044 0.683,0.047 L 22.061,6.1 C 20.332,5.273 18.449,4.704 16.348,4.677 9.869,4.597 4.973,8.795 3.859,14.155 3.754,14.661 3.638,15.234 3.71,15.687 c 0.075,0.465 0.483,0.596 0.644,0.248 z" /></g><g
     id="g26"
     style="fill:#ffffff;fill-opacity:1"><path
       style="fill:#ffffff;fill-opacity:1"
       inkscape:connector-curvature="0"
       id="path22"
       d="m 28.522,21.51 c 0,0 -0.252,0.225 -0.564,0.449 -0.311,0.221 -1.402,0.881 -2.234,1.115 0.367,-0.936 0.803,-1.875 1.076,-2.82 0.517,-1.4 0.614,-2.838 0.679,-2.975 0.741,-0.498 1.269,-1.271 1.496,-1.752 0.321,-0.528 0.318,-0.938 0.243,-1.004 -0.074,-0.067 -0.306,0.293 -0.433,0.521 -0.401,0.596 -0.722,1.169 -1.328,1.536 0,0 -0.078,-3.145 -1.391,-4.096 0.604,1.515 1.018,3.043 0.763,4.567 -0.936,0.539 -2.396,0.97 -3.414,1.101 v -0.253 c 0.226,-1.608 0.196,-2.95 -0.031,-4.48 0.625,-0.298 1.22,-0.622 1.667,-1.136 0.672,-0.829 0.768,-1.664 0.429,-2.505 L 25.453,9.753 c -0.252,0.258 -0.039,0.649 -0.345,1.346 -0.38,0.778 -0.953,1.203 -1.767,1.512 -0.19,-0.928 -0.715,-2.903 -1.765,-3.785 0.604,1.341 1.326,2.993 1.203,3.943 -1.51,0.306 -2.694,0.274 -4.12,-0.336 0.575,-0.842 1.175,-2.287 1.652,-3.237 L 20.26,9.051 c -0.794,0.805 -1.514,2.328 -2.238,3.2 C 17.386,11.921 16.81,11.537 16.334,11.048 16.05,10.674 15.825,10.532 15.71,10.027 16.529,9.462 17.882,8.768 19.097,8.644 L 18.908,8.506 C 17.807,8.564 16.655,8.95 15.58,9.424 15.529,8.814 15.591,8.138 15.956,7.603 16.719,7.268 17.782,7.358 18.465,7.44 17.647,7.044 17.265,6.947 16.611,6.948 16.671,6.695 17.087,6.684 17.095,6.452 16.542,6.417 16.191,6.64 15.682,6.978 c -2.765,0.085 -4.644,1.704 -4.644,1.704 0.267,-0.789 0.383,-1.056 1.033,-1.479 -0.848,0.283 -1.412,0.566 -1.888,2.028 -1.81,1.332 -1.934,1.854 -2.158,2.646 0.82,-1.092 1.479,-1.469 2,-1.801 -0.151,0.638 0.141,2.329 0.926,3.35 C 9.906,14.769 8.763,16.181 8.128,17.801 7.697,17.107 7.369,16.583 7.103,15.807 6.747,14.918 6.534,14.128 6.45,13.446 l -0.139,0.372 c 0,0.107 -0.056,0.414 -0.05,0.521 0.082,1.607 0.539,3.124 1.502,4.502 -0.378,1.371 -0.871,3.098 -0.26,4.457 0.324,-1.059 0.312,-2.305 0.926,-3.229 1.139,1.486 2.615,2.662 4.29,3.643 -0.172,1.129 -0.375,2.305 -0.508,3.383 C 10.658,26.324 9.336,25.491 8.24,24.312 L 8.15,24.33 c 0.075,0.322 0.153,0.42 0.348,0.82 0.824,1.387 2.104,2.135 3.677,2.881 0.075,0.043 -0.075,0.797 0.224,0.994 0.174,0.174 0.571,0.521 0.547,-0.602 1.73,0.57 3.266,0.428 5.019,0.326 l 1.459,-0.338 c -1.786,-0.092 -4.583,-0.078 -6.383,-0.898 0.157,-1.291 0.334,-2.404 0.524,-3.492 l 0.113,0.031 c 1.958,0.809 4.347,1.07 5.968,1.012 0.062,0 0.132,-0.338 0.132,-0.338 -0.122,-0.092 -0.108,-0.082 -0.3,-0.246 -0.141,-0.053 -0.326,-0.254 -0.496,-0.324 -0.149,-0.033 -0.17,-0.045 -0.382,-0.07 -1.652,-0.082 -3.248,-0.322 -4.807,-1.184 0.511,-1.713 1.085,-3.246 1.978,-4.879 2.244,0.877 4.361,1.348 6.657,0.99 -0.271,1.537 -0.651,2.783 -1.251,4.291 l -0.845,1.965 c 0,0 -0.628,1.375 -1.058,1.939 0.802,-0.502 1.646,-1.902 1.801,-2.182 0.158,-0.277 0.593,-1.287 0.593,-1.287 v 0 c 0.691,-1.539 1.333,-3.193 1.635,-4.805 1.075,-0.291 2.345,-0.527 3.328,-1.093 -0.168,1.609 -0.836,3.673 -1.554,5.468 -0.016,0.008 -0.246,0.512 -0.246,0.512 l -0.192,0.383 c -0.494,0.789 -0.44,0.984 -0.736,1.336 0.899,-0.918 0.982,-0.953 1.322,-1.443 0.736,-0.447 1.608,-0.744 2.298,-1.246 -2.04,3.707 -5.738,6.113 -9.953,6.877 l 0.005,0.078 c 3.833,0.098 7.034,-2.119 9.418,-4.783 1.096,-1.316 1.89,-2.869 2.373,-4.367 l -0.29,0.34 z M 11.394,12.727 c -0.602,-1.052 -0.806,-2.015 -0.582,-3.188 1.22,-0.947 2.58,-1.853 4.396,-1.914 -0.373,0.732 -0.435,1.478 -0.291,2.212 M 12.955,22.51 c -1.701,-0.891 -2.996,-2.336 -4.158,-3.695 0.397,-1.842 1.568,-3.261 2.591,-4.629 0.9,1.306 2.056,2.396 3.423,3.284 -0.95,1.608 -1.679,4.009 -1.856,5.04 z m 2.348,-5.852 c -1.481,-0.64 -2.464,-1.916 -3.451,-3.114 0.871,-1.257 1.964,-2.24 3.275,-3.006 0.547,1.024 1.466,1.72 2.482,2.31 z m 7.265,1.512 c -2.162,0.104 -4.299,0.051 -6.418,-0.984 0.549,-1.151 1.227,-2.505 2.165,-4.011 1.452,0.559 2.956,0.659 4.442,0.438 0.247,1.523 0.121,2.96 -0.189,4.557 z" /><path
       style="fill:#ffffff;fill-opacity:1"
       inkscape:connector-curvature="0"
       id="path24"
       d="M 25.5,9.327 C 25.497,9.332 25.494,9.335 25.49,9.34 l 0.027,0.028 C 25.51,9.354 25.506,9.34 25.5,9.327 Z" /></g><g
     id="g118"
     style="fill:#ffffff;fill-opacity:1"><path
       style="fill:#ffffff;fill-opacity:1"
       inkscape:connector-curvature="0"
       id="path28"
       d="m 47.304,30.486 c -0.245,-0.113 -0.56,-0.166 -0.814,-0.166 -0.736,0 -1.143,0.494 -1.143,1.143 0,0.643 0.397,1.127 1.072,1.127 0.17,0 0.306,-0.02 0.416,-0.045 v -0.822 h -0.669 v -0.502 h 1.274 v 1.705 c -0.333,0.09 -0.683,0.16 -1.021,0.16 -1.023,0 -1.732,-0.512 -1.732,-1.578 0,-1.082 0.661,-1.688 1.732,-1.688 0.366,0 0.655,0.051 0.927,0.133 z" /><path
       style="fill:#ffffff;fill-opacity:1"
       inkscape:connector-curvature="0"
       id="path30"
       d="m 48.063,29.641 h 0.607 v 3.391 h -0.607 z" /><path
       style="fill:#ffffff;fill-opacity:1"
       inkscape:connector-curvature="0"
       id="path32"
       d="m 50.375,30.646 c 0.691,0 1.221,0.467 1.221,1.236 0,0.668 -0.448,1.203 -1.221,1.203 -0.769,0 -1.217,-0.535 -1.217,-1.203 0,-0.769 0.53,-1.236 1.217,-1.236 z m 0,1.969 c 0.465,0 0.588,-0.416 0.588,-0.803 0,-0.359 -0.19,-0.693 -0.588,-0.693 -0.394,0 -0.584,0.344 -0.584,0.693 0,0.383 0.122,0.803 0.584,0.803 z" /><path
       style="fill:#ffffff;fill-opacity:1"
       inkscape:connector-curvature="0"
       id="path34"
       d="m 52.07,29.641 h 0.607 v 1.361 h 0.008 c 0.168,-0.221 0.38,-0.355 0.696,-0.355 0.716,0 0.978,0.574 0.978,1.215 0,0.635 -0.262,1.225 -0.978,1.225 -0.257,0 -0.538,-0.09 -0.714,-0.338 h -0.008 v 0.283 H 52.07 Z m 1.145,2.974 c 0.396,0 0.511,-0.434 0.511,-0.754 0,-0.314 -0.108,-0.742 -0.504,-0.742 -0.386,0 -0.541,0.416 -0.541,0.742 0.001,0.33 0.132,0.754 0.534,0.754 z" /><path
       style="fill:#ffffff;fill-opacity:1"
       inkscape:connector-curvature="0"
       id="path36"
       d="m 54.937,30.824 c 0.237,-0.105 0.553,-0.178 0.811,-0.178 0.71,0 1.004,0.297 1.004,0.986 v 0.295 c 0,0.236 0.004,0.412 0.009,0.582 0.005,0.178 0.014,0.342 0.026,0.521 h -0.532 c -0.023,-0.121 -0.023,-0.275 -0.028,-0.346 h -0.009 c -0.141,0.256 -0.443,0.4 -0.719,0.4 -0.412,0 -0.813,-0.248 -0.813,-0.695 0,-0.342 0.167,-0.549 0.398,-0.66 0.23,-0.113 0.528,-0.135 0.782,-0.135 H 56.2 c 0,-0.375 -0.167,-0.502 -0.525,-0.502 -0.258,0 -0.515,0.1 -0.719,0.252 z m 0.71,1.821 c 0.187,0 0.331,-0.084 0.425,-0.209 0.1,-0.133 0.127,-0.297 0.127,-0.48 h -0.263 c -0.271,0 -0.674,0.049 -0.674,0.402 10e-4,0.201 0.17,0.287 0.385,0.287 z" /><path
       style="fill:#ffffff;fill-opacity:1"
       inkscape:connector-curvature="0"
       id="path38"
       d="m 57.362,29.641 h 0.606 v 3.391 h -0.606 z" /><path
       style="fill:#ffffff;fill-opacity:1"
       inkscape:connector-curvature="0"
       id="path40"
       d="m 59.918,29.873 h 1.754 v 0.5 H 60.55 v 0.777 h 1.068 v 0.496 H 60.55 v 1.385 h -0.632 z" /><path
       style="fill:#ffffff;fill-opacity:1"
       inkscape:connector-curvature="0"
       id="path42"
       d="m 62.229,30.824 c 0.234,-0.105 0.551,-0.178 0.809,-0.178 0.709,0 1.004,0.297 1.004,0.986 v 0.295 c 0,0.236 0.004,0.412 0.008,0.582 0.005,0.178 0.014,0.342 0.028,0.521 h -0.533 c -0.022,-0.121 -0.022,-0.275 -0.027,-0.346 h -0.009 c -0.141,0.256 -0.444,0.4 -0.721,0.4 -0.41,0 -0.813,-0.248 -0.813,-0.695 0,-0.342 0.167,-0.549 0.398,-0.66 0.23,-0.113 0.529,-0.135 0.781,-0.135 h 0.335 c 0,-0.375 -0.168,-0.502 -0.525,-0.502 -0.258,0 -0.516,0.1 -0.718,0.252 z m 0.709,1.821 c 0.186,0 0.33,-0.084 0.425,-0.209 0.1,-0.133 0.127,-0.297 0.127,-0.48 h -0.262 c -0.272,0 -0.674,0.049 -0.674,0.402 0,0.201 0.167,0.287 0.384,0.287 z" /><path
       style="fill:#ffffff;fill-opacity:1"
       inkscape:connector-curvature="0"
       id="path44"
       d="m 66.15,31.205 c -0.109,-0.051 -0.227,-0.086 -0.412,-0.086 -0.375,0 -0.615,0.301 -0.615,0.738 0,0.428 0.204,0.758 0.628,0.758 0.172,0 0.361,-0.064 0.466,-0.107 l 0.026,0.5 c -0.175,0.055 -0.357,0.078 -0.605,0.078 -0.764,0 -1.149,-0.52 -1.149,-1.229 0,-0.676 0.398,-1.211 1.126,-1.211 0.243,0 0.42,0.031 0.588,0.08 z" /><path
       style="fill:#ffffff;fill-opacity:1"
       inkscape:connector-curvature="0"
       id="path46"
       d="m 66.66,29.699 h 0.607 v 0.58 H 66.66 Z m 0,1.004 h 0.607 v 2.328 H 66.66 Z" /><path
       style="fill:#ffffff;fill-opacity:1"
       inkscape:connector-curvature="0"
       id="path48"
       d="m 67.918,29.641 h 0.605 v 3.391 h -0.605 z" /><path
       style="fill:#ffffff;fill-opacity:1"
       inkscape:connector-curvature="0"
       id="path50"
       d="m 69.174,29.699 h 0.608 v 0.58 h -0.608 z m 0,1.004 h 0.608 v 2.328 h -0.608 z" /><path
       style="fill:#ffffff;fill-opacity:1"
       inkscape:connector-curvature="0"
       id="path52"
       d="M 70.617,31.146 H 70.17 v -0.443 h 0.447 v -0.465 l 0.606,-0.197 v 0.662 h 0.539 v 0.443 h -0.539 v 1.086 c 0,0.197 0.055,0.383 0.286,0.383 0.107,0 0.212,-0.021 0.275,-0.064 l 0.017,0.48 c -0.126,0.039 -0.267,0.055 -0.447,0.055 -0.475,0 -0.737,-0.291 -0.737,-0.756 z" /><path
       style="fill:#ffffff;fill-opacity:1"
       inkscape:connector-curvature="0"
       id="path54"
       d="m 73.146,32.402 h 0.009 l 0.561,-1.699 h 0.615 l -0.872,2.313 c -0.195,0.516 -0.334,1.02 -0.968,1.02 -0.145,0 -0.288,-0.023 -0.429,-0.064 l 0.04,-0.447 c 0.077,0.025 0.163,0.043 0.313,0.043 0.245,0 0.394,-0.168 0.394,-0.418 l -0.891,-2.445 h 0.669 z" /><path
       style="fill:#ffffff;fill-opacity:1"
       inkscape:connector-curvature="0"
       id="path56"
       d="m 76.17,31.146 h -0.446 v -0.443 h 0.446 v -0.326 c 0,-0.463 0.264,-0.791 0.742,-0.791 0.155,0 0.326,0.023 0.443,0.051 l -0.049,0.5 c -0.055,-0.031 -0.13,-0.082 -0.262,-0.082 -0.203,0 -0.267,0.178 -0.267,0.357 v 0.291 h 0.528 v 0.443 h -0.528 v 1.885 H 76.17 Z" /><path
       style="fill:#ffffff;fill-opacity:1"
       inkscape:connector-curvature="0"
       id="path58"
       d="m 78.776,30.646 c 0.69,0 1.222,0.467 1.222,1.236 0,0.668 -0.449,1.203 -1.222,1.203 -0.77,0 -1.217,-0.535 -1.217,-1.203 0.001,-0.769 0.529,-1.236 1.217,-1.236 z m 0,1.969 c 0.465,0 0.589,-0.416 0.589,-0.803 0,-0.359 -0.191,-0.693 -0.589,-0.693 -0.394,0 -0.585,0.344 -0.585,0.693 0,0.383 0.123,0.803 0.585,0.803 z" /><path
       style="fill:#ffffff;fill-opacity:1"
       inkscape:connector-curvature="0"
       id="path60"
       d="m 80.485,30.703 h 0.538 v 0.529 h 0.01 c 0.028,-0.219 0.275,-0.586 0.637,-0.586 0.059,0 0.121,0 0.187,0.021 v 0.607 c -0.057,-0.029 -0.164,-0.045 -0.272,-0.045 -0.494,0 -0.494,0.611 -0.494,0.947 v 0.854 h -0.604 v -2.327 z" /><path
       style="fill:#ffffff;fill-opacity:1"
       inkscape:connector-curvature="0"
       id="path62"
       d="m 83.543,29.873 h 0.863 c 0.967,0 1.823,0.328 1.823,1.58 0,1.252 -0.856,1.578 -1.823,1.578 h -0.863 z m 0.633,2.66 h 0.354 c 0.527,0 1.037,-0.395 1.037,-1.08 0,-0.685 -0.51,-1.08 -1.037,-1.08 h -0.354 z" /><path
       style="fill:#ffffff;fill-opacity:1"
       inkscape:connector-curvature="0"
       id="path64"
       d="m 86.767,29.699 h 0.605 v 0.58 h -0.605 z m 0,1.004 h 0.605 v 2.328 h -0.605 z" /><path
       style="fill:#ffffff;fill-opacity:1"
       inkscape:connector-curvature="0"
       id="path66"
       d="m 89.394,31.193 c -0.185,-0.066 -0.321,-0.1 -0.54,-0.1 -0.166,0 -0.358,0.057 -0.358,0.258 0,0.371 1.053,0.137 1.053,0.977 0,0.543 -0.484,0.758 -0.976,0.758 -0.23,0 -0.467,-0.043 -0.688,-0.1 l 0.037,-0.498 c 0.188,0.096 0.388,0.156 0.597,0.156 0.152,0 0.398,-0.061 0.398,-0.287 0,-0.455 -1.055,-0.146 -1.055,-0.984 0,-0.504 0.438,-0.727 0.914,-0.727 0.283,0 0.471,0.047 0.66,0.088 z" /><path
       style="fill:#ffffff;fill-opacity:1"
       inkscape:connector-curvature="0"
       id="path68"
       d="m 90.123,30.824 c 0.236,-0.105 0.55,-0.178 0.811,-0.178 0.709,0 1.002,0.297 1.002,0.986 v 0.295 c 0,0.236 0.005,0.412 0.01,0.582 0.004,0.178 0.012,0.342 0.029,0.521 H 91.44 c -0.022,-0.121 -0.022,-0.275 -0.027,-0.346 h -0.009 c -0.142,0.256 -0.442,0.4 -0.719,0.4 -0.413,0 -0.813,-0.248 -0.813,-0.695 0,-0.342 0.166,-0.549 0.396,-0.66 0.229,-0.113 0.53,-0.135 0.783,-0.135 h 0.335 c 0,-0.375 -0.169,-0.502 -0.525,-0.502 -0.258,0 -0.515,0.1 -0.719,0.252 z m 0.709,1.821 c 0.188,0 0.331,-0.084 0.426,-0.209 0.098,-0.133 0.127,-0.297 0.127,-0.48 h -0.263 c -0.271,0 -0.673,0.049 -0.673,0.402 0,0.201 0.168,0.287 0.383,0.287 z" /><path
       style="fill:#ffffff;fill-opacity:1"
       inkscape:connector-curvature="0"
       id="path70"
       d="m 93.918,31.193 c -0.188,-0.066 -0.322,-0.1 -0.544,-0.1 -0.163,0 -0.356,0.057 -0.356,0.258 0,0.371 1.053,0.137 1.053,0.977 0,0.543 -0.483,0.758 -0.978,0.758 -0.229,0 -0.464,-0.043 -0.687,-0.1 l 0.037,-0.498 c 0.188,0.096 0.388,0.156 0.596,0.156 0.154,0 0.398,-0.061 0.398,-0.287 0,-0.455 -1.053,-0.146 -1.053,-0.984 0,-0.504 0.438,-0.727 0.914,-0.727 0.285,0 0.469,0.047 0.66,0.088 z" /><path
       style="fill:#ffffff;fill-opacity:1"
       inkscape:connector-curvature="0"
       id="path72"
       d="m 94.741,31.146 h -0.448 v -0.443 h 0.448 v -0.465 l 0.604,-0.197 v 0.662 h 0.539 v 0.443 h -0.539 v 1.086 c 0,0.197 0.055,0.383 0.285,0.383 0.109,0 0.213,-0.021 0.276,-0.064 l 0.018,0.48 c -0.126,0.039 -0.267,0.055 -0.446,0.055 -0.478,0 -0.737,-0.291 -0.737,-0.756 z" /><path
       style="fill:#ffffff;fill-opacity:1"
       inkscape:connector-curvature="0"
       id="path74"
       d="m 98.168,32.902 c -0.221,0.121 -0.476,0.184 -0.8,0.184 -0.769,0 -1.216,-0.441 -1.216,-1.207 0,-0.674 0.355,-1.232 1.079,-1.232 0.864,0 1.108,0.598 1.108,1.408 h -1.608 c 0.024,0.375 0.288,0.59 0.664,0.59 0.292,0 0.548,-0.111 0.772,-0.236 v 0.493 z m -0.406,-1.263 c -0.02,-0.293 -0.155,-0.545 -0.492,-0.545 -0.34,0 -0.514,0.232 -0.538,0.545 z" /><path
       style="fill:#ffffff;fill-opacity:1"
       inkscape:connector-curvature="0"
       id="path76"
       d="m 98.828,30.703 h 0.54 v 0.529 h 0.006 c 0.03,-0.219 0.278,-0.586 0.64,-0.586 0.057,0 0.123,0 0.186,0.021 v 0.607 c -0.054,-0.029 -0.164,-0.045 -0.271,-0.045 -0.492,0 -0.492,0.611 -0.492,0.947 V 33.03 H 98.83 v -2.327 z" /><path
       style="fill:#ffffff;fill-opacity:1"
       inkscape:connector-curvature="0"
       id="path78"
       d="m 101.831,29.873 h 0.683 c 0.68,0 1.488,-0.02 1.488,0.857 0,0.369 -0.247,0.678 -0.65,0.732 v 0.01 c 0.172,0.016 0.271,0.186 0.334,0.324 l 0.506,1.234 h -0.705 l -0.379,-0.982 c -0.092,-0.236 -0.172,-0.326 -0.438,-0.326 h -0.205 v 1.309 h -0.633 v -3.158 z m 0.633,1.348 h 0.208 c 0.312,0 0.672,-0.043 0.672,-0.436 0,-0.381 -0.355,-0.412 -0.672,-0.412 h -0.208 z" /><path
       style="fill:#ffffff;fill-opacity:1"
       inkscape:connector-curvature="0"
       id="path80"
       d="m 106.463,32.902 c -0.222,0.121 -0.475,0.184 -0.803,0.184 -0.767,0 -1.215,-0.441 -1.215,-1.207 0,-0.674 0.358,-1.232 1.08,-1.232 0.865,0 1.107,0.598 1.107,1.408 h -1.608 c 0.026,0.375 0.29,0.59 0.664,0.59 0.294,0 0.548,-0.111 0.774,-0.236 v 0.493 z m -0.406,-1.263 c -0.019,-0.293 -0.156,-0.545 -0.494,-0.545 -0.341,0 -0.512,0.232 -0.538,0.545 z" /><path
       style="fill:#ffffff;fill-opacity:1"
       inkscape:connector-curvature="0"
       id="path82"
       d="m 108.66,32.77 h -0.008 c -0.182,0.227 -0.432,0.316 -0.715,0.316 -0.715,0 -0.977,-0.59 -0.977,-1.225 0,-0.641 0.262,-1.215 0.977,-1.215 0.303,0 0.516,0.107 0.695,0.328 h 0.01 V 29.64 h 0.605 v 3.391 h -0.588 V 32.77 Z m -0.556,-0.155 c 0.404,0 0.535,-0.424 0.535,-0.754 0,-0.326 -0.155,-0.742 -0.545,-0.742 -0.393,0 -0.5,0.428 -0.5,0.742 0,0.321 0.113,0.754 0.51,0.754 z" /><path
       style="fill:#ffffff;fill-opacity:1"
       inkscape:connector-curvature="0"
       id="path84"
       d="m 112.012,33.031 h -0.574 v -0.316 h -0.01 c -0.187,0.227 -0.447,0.371 -0.763,0.371 -0.552,0 -0.792,-0.389 -0.792,-0.914 v -1.469 h 0.605 v 1.244 c 0,0.285 0.006,0.668 0.395,0.668 0.438,0 0.532,-0.477 0.532,-0.773 v -1.139 h 0.606 v 2.328 z" /><path
       style="fill:#ffffff;fill-opacity:1"
       inkscape:connector-curvature="0"
       id="path86"
       d="m 114.148,31.205 c -0.109,-0.051 -0.229,-0.086 -0.413,-0.086 -0.374,0 -0.616,0.301 -0.616,0.738 0,0.428 0.205,0.758 0.629,0.758 0.172,0 0.362,-0.064 0.467,-0.107 l 0.026,0.5 c -0.178,0.055 -0.357,0.078 -0.606,0.078 -0.766,0 -1.148,-0.52 -1.148,-1.229 0,-0.676 0.398,-1.211 1.127,-1.211 0.244,0 0.422,0.031 0.587,0.08 z" /><path
       style="fill:#ffffff;fill-opacity:1"
       inkscape:connector-curvature="0"
       id="path88"
       d="m 114.844,31.146 h -0.449 v -0.443 h 0.449 v -0.465 l 0.604,-0.197 v 0.662 h 0.539 v 0.443 h -0.539 v 1.086 c 0,0.197 0.055,0.383 0.287,0.383 0.107,0 0.213,-0.021 0.275,-0.064 l 0.018,0.48 c -0.127,0.039 -0.268,0.055 -0.446,0.055 -0.476,0 -0.737,-0.291 -0.737,-0.756 v -1.184 z" /><path
       style="fill:#ffffff;fill-opacity:1"
       inkscape:connector-curvature="0"
       id="path90"
       d="m 116.418,29.699 h 0.605 v 0.58 h -0.605 z m 0,1.004 h 0.605 v 2.328 h -0.605 z" /><path
       style="fill:#ffffff;fill-opacity:1"
       inkscape:connector-curvature="0"
       id="path92"
       d="m 118.727,30.646 c 0.693,0 1.223,0.467 1.223,1.236 0,0.668 -0.448,1.203 -1.223,1.203 -0.768,0 -1.215,-0.535 -1.215,-1.203 0,-0.769 0.527,-1.236 1.215,-1.236 z m 0,1.969 c 0.468,0 0.59,-0.416 0.59,-0.803 0,-0.359 -0.191,-0.693 -0.59,-0.693 -0.394,0 -0.583,0.344 -0.583,0.693 0,0.383 0.122,0.803 0.583,0.803 z" /><path
       style="fill:#ffffff;fill-opacity:1"
       inkscape:connector-curvature="0"
       id="path94"
       d="m 120.424,30.703 h 0.574 v 0.316 h 0.01 c 0.188,-0.266 0.446,-0.373 0.764,-0.373 0.552,0 0.792,0.393 0.792,0.914 v 1.471 h -0.606 v -1.242 c 0,-0.287 -0.004,-0.67 -0.395,-0.67 -0.438,0 -0.532,0.477 -0.532,0.773 v 1.139 h -0.606 v -2.328 z" /><path
       style="fill:#ffffff;fill-opacity:1"
       inkscape:connector-curvature="0"
       id="path96"
       d="m 124.548,30.824 c 0.234,-0.105 0.551,-0.178 0.81,-0.178 0.709,0 1.004,0.297 1.004,0.986 v 0.295 c 0,0.236 0.004,0.412 0.008,0.582 0.005,0.178 0.015,0.342 0.027,0.521 h -0.531 c -0.025,-0.121 -0.025,-0.275 -0.027,-0.346 h -0.008 c -0.143,0.256 -0.445,0.4 -0.721,0.4 -0.412,0 -0.815,-0.248 -0.815,-0.695 0,-0.342 0.169,-0.549 0.398,-0.66 0.23,-0.113 0.529,-0.135 0.782,-0.135 h 0.336 c 0,-0.375 -0.168,-0.502 -0.526,-0.502 -0.259,0 -0.516,0.1 -0.719,0.252 z m 0.71,1.821 c 0.186,0 0.33,-0.084 0.424,-0.209 0.102,-0.133 0.129,-0.297 0.129,-0.48 h -0.262 c -0.273,0 -0.675,0.049 -0.675,0.402 0,0.201 0.165,0.287 0.384,0.287 z" /><path
       style="fill:#ffffff;fill-opacity:1"
       inkscape:connector-curvature="0"
       id="path98"
       d="m 126.959,30.703 h 0.574 v 0.316 h 0.008 c 0.191,-0.266 0.449,-0.373 0.766,-0.373 0.551,0 0.791,0.393 0.791,0.914 v 1.471 h -0.606 v -1.242 c 0,-0.287 -0.005,-0.67 -0.394,-0.67 -0.438,0 -0.533,0.477 -0.533,0.773 v 1.139 h -0.605 v -2.328 z" /><path
       style="fill:#ffffff;fill-opacity:1"
       inkscape:connector-curvature="0"
       id="path100"
       d="m 131.273,32.77 h -0.012 c -0.179,0.227 -0.428,0.316 -0.713,0.316 -0.715,0 -0.977,-0.59 -0.977,-1.225 0,-0.641 0.262,-1.215 0.977,-1.215 0.303,0 0.517,0.107 0.695,0.328 h 0.012 V 29.64 h 0.604 v 3.391 h -0.586 z m -0.556,-0.155 c 0.401,0 0.533,-0.424 0.533,-0.754 0,-0.326 -0.153,-0.742 -0.543,-0.742 -0.393,0 -0.5,0.428 -0.5,0.742 0,0.321 0.111,0.754 0.51,0.754 z" /><path
       style="fill:#ffffff;fill-opacity:1"
       inkscape:connector-curvature="0"
       id="path102"
       d="m 133.744,29.873 h 0.682 c 0.679,0 1.486,-0.02 1.486,0.857 0,0.369 -0.249,0.678 -0.65,0.732 v 0.01 c 0.172,0.016 0.271,0.186 0.336,0.324 l 0.506,1.234 h -0.706 l -0.381,-0.982 c -0.09,-0.236 -0.17,-0.326 -0.438,-0.326 h -0.203 v 1.309 h -0.631 v -3.158 z m 0.631,1.348 h 0.209 c 0.311,0 0.67,-0.043 0.67,-0.436 0,-0.381 -0.353,-0.412 -0.67,-0.412 h -0.209 z" /><path
       style="fill:#ffffff;fill-opacity:1"
       inkscape:connector-curvature="0"
       id="path104"
       d="m 138.374,32.902 c -0.224,0.121 -0.475,0.184 -0.803,0.184 -0.767,0 -1.215,-0.441 -1.215,-1.207 0,-0.674 0.358,-1.232 1.081,-1.232 0.864,0 1.105,0.598 1.105,1.408 h -1.607 c 0.025,0.375 0.288,0.59 0.665,0.59 0.292,0 0.545,-0.111 0.773,-0.236 v 0.493 z m -0.409,-1.263 c -0.017,-0.293 -0.152,-0.545 -0.492,-0.545 -0.339,0 -0.512,0.232 -0.537,0.545 z" /><path
       style="fill:#ffffff;fill-opacity:1"
       inkscape:connector-curvature="0"
       id="path106"
       d="m 140.528,31.205 c -0.108,-0.051 -0.225,-0.086 -0.411,-0.086 -0.373,0 -0.613,0.301 -0.613,0.738 0,0.428 0.202,0.758 0.629,0.758 0.171,0 0.361,-0.064 0.466,-0.107 l 0.026,0.5 c -0.178,0.055 -0.357,0.078 -0.604,0.078 -0.768,0 -1.151,-0.52 -1.151,-1.229 0,-0.676 0.397,-1.211 1.128,-1.211 0.242,0 0.421,0.031 0.586,0.08 z" /><path
       style="fill:#ffffff;fill-opacity:1"
       inkscape:connector-curvature="0"
       id="path108"
       d="m 142.096,30.646 c 0.691,0 1.219,0.467 1.219,1.236 0,0.668 -0.445,1.203 -1.219,1.203 -0.768,0 -1.218,-0.535 -1.218,-1.203 0,-0.769 0.531,-1.236 1.218,-1.236 z m 0,1.969 c 0.465,0 0.589,-0.416 0.589,-0.803 0,-0.359 -0.19,-0.693 -0.589,-0.693 -0.394,0 -0.585,0.344 -0.585,0.693 0,0.383 0.123,0.803 0.585,0.803 z" /><path
       style="fill:#ffffff;fill-opacity:1"
       inkscape:connector-curvature="0"
       id="path110"
       d="m 143.533,30.703 h 0.652 l 0.577,1.695 h 0.007 l 0.563,-1.695 h 0.607 l -0.86,2.328 h -0.681 z" /><path
       style="fill:#ffffff;fill-opacity:1"
       inkscape:connector-curvature="0"
       id="path112"
       d="m 148.172,32.902 c -0.221,0.121 -0.475,0.184 -0.798,0.184 -0.77,0 -1.218,-0.441 -1.218,-1.207 0,-0.674 0.358,-1.232 1.079,-1.232 0.866,0 1.109,0.598 1.109,1.408 h -1.608 c 0.026,0.375 0.289,0.59 0.664,0.59 0.292,0 0.547,-0.111 0.771,-0.236 v 0.493 z m -0.404,-1.263 c -0.02,-0.293 -0.155,-0.545 -0.494,-0.545 -0.34,0 -0.511,0.232 -0.537,0.545 z" /><path
       style="fill:#ffffff;fill-opacity:1"
       inkscape:connector-curvature="0"
       id="path114"
       d="m 148.834,30.703 h 0.536 v 0.529 h 0.011 c 0.027,-0.219 0.277,-0.586 0.638,-0.586 0.057,0 0.122,0 0.185,0.021 v 0.607 c -0.053,-0.029 -0.163,-0.045 -0.271,-0.045 -0.492,0 -0.492,0.611 -0.492,0.947 v 0.854 h -0.605 v -2.327 z" /><path
       style="fill:#ffffff;fill-opacity:1"
       inkscape:connector-curvature="0"
       id="path116"
       d="m 151.547,32.402 h 0.01 l 0.56,-1.699 h 0.616 l -0.873,2.313 c -0.195,0.516 -0.335,1.02 -0.967,1.02 -0.145,0 -0.291,-0.023 -0.432,-0.064 l 0.041,-0.447 c 0.077,0.025 0.162,0.043 0.313,0.043 0.246,0 0.393,-0.168 0.393,-0.418 l -0.89,-2.445 h 0.668 z" /></g><g
     id="g154"
     style="fill:#ffffff;fill-opacity:1"><radialGradient
       gradientUnits="userSpaceOnUse"
       r="0.047200002"
       cy="29.497101"
       cx="14.4375"
       id="SVGID_1_"><stop
         id="stop120"
         style="stop-color:#FFFFFF"
         offset="0" /><stop
         id="stop122"
         style="stop-color:#DBDBDB"
         offset="0.0262" /><stop
         id="stop124"
         style="stop-color:#8E8E8E"
         offset="0.0863" /><stop
         id="stop126"
         style="stop-color:#515151"
         offset="0.14" /><stop
         id="stop128"
         style="stop-color:#252525"
         offset="0.1852" /><stop
         id="stop130"
         style="stop-color:#0A0A0A"
         offset="0.2202" /><stop
         id="stop132"
         style="stop-color:#000000"
         offset="0.2407" /></radialGradient><path
       inkscape:connector-curvature="0"
       style="fill:#ffffff;fill-opacity:1"
       id="path135"
       d="m 14.375,29.477 v 0.006 c 0.043,0.014 0.085,0.025 0.126,0.035 -0.042,-0.014 -0.083,-0.03 -0.126,-0.041 z" /><radialGradient
       gradientUnits="userSpaceOnUse"
       r="0.0126"
       cy="29.725599"
       cx="19.3545"
       id="SVGID_2_"><stop
         id="stop137"
         style="stop-color:#FFFFFF"
         offset="0" /><stop
         id="stop139"
         style="stop-color:#DBDBDB"
         offset="0.0262" /><stop
         id="stop141"
         style="stop-color:#8E8E8E"
         offset="0.0863" /><stop
         id="stop143"
         style="stop-color:#515151"
         offset="0.14" /><stop
         id="stop145"
         style="stop-color:#252525"
         offset="0.1852" /><stop
         id="stop147"
         style="stop-color:#0A0A0A"
         offset="0.2202" /><stop
         id="stop149"
         style="stop-color:#000000"
         offset="0.2407" /></radialGradient><path
       inkscape:connector-curvature="0"
       style="fill:#ffffff;fill-opacity:1"
       id="path152"
       d="m 19.337,29.729 c 0.011,-0.002 0.023,-0.004 0.035,-0.006 v 0 c -0.012,0 -0.024,0.002 -0.035,0.006 z" /></g><line
     style="fill:#ffffff;stroke:#666666;stroke-width:0.5187;fill-opacity:1"
     id="line156"
     y2="31.58"
     x2="38.828999"
     y1="2.168"
     x1="38.828999" /><g
     id="g253"
     style="fill:#ffffff;fill-opacity:1"><linearGradient
       y2="12.7393"
       x2="65.143097"
       y1="12.7393"
       x1="43.757801"
       gradientUnits="userSpaceOnUse"
       id="SVGID_3_"><stop
         id="stop158"
         style="stop-color:#FFFFFF"
         offset="0" /><stop
         id="stop160"
         style="stop-color:#DBDBDB;stop-opacity:0.9891"
         offset="0" /><stop
         id="stop162"
         style="stop-color:#8E8E8E;stop-opacity:0.9641"
         offset="0" /><stop
         id="stop164"
         style="stop-color:#515151;stop-opacity:0.9418"
         offset="0" /><stop
         id="stop166"
         style="stop-color:#252525;stop-opacity:0.9231"
         offset="0" /><stop
         id="stop168"
         style="stop-color:#0A0A0A;stop-opacity:0.9085"
         offset="0" /><stop
         id="stop170"
         style="stop-color:#000000;stop-opacity:0.9"
         offset="0" /><stop
         id="stop172"
         style="stop-color:#000000;stop-opacity:0.9"
         offset="0.9292" /></linearGradient><path
       inkscape:connector-curvature="0"
       style="fill:#ffffff;fill-opacity:1"
       id="path175"
       d="m 64.089,5.225 c -1.896,-0.877 -4.354,-1.298 -6.32,-1.298 -5.725,0 -8.884,3.862 -8.884,8.88 0,4.988 3.089,8.746 8.322,8.746 1.334,0 2.387,-0.141 3.231,-0.354 v -6.39 H 55.24 v -3.86 h 9.903 V 24.15 c -2.599,0.703 -5.303,1.264 -7.936,1.264 -7.936,0 -13.449,-3.967 -13.449,-12.255 0,-8.39 5.127,-13.095 13.449,-13.095 2.843,0 5.091,0.386 7.198,1.018 z" /><linearGradient
       y2="12.7393"
       x2="83.927696"
       y1="12.7393"
       x1="70.304703"
       gradientUnits="userSpaceOnUse"
       id="SVGID_4_"><stop
         id="stop177"
         style="stop-color:#FFFFFF"
         offset="0" /><stop
         id="stop179"
         style="stop-color:#DBDBDB;stop-opacity:0.9891"
         offset="0" /><stop
         id="stop181"
         style="stop-color:#8E8E8E;stop-opacity:0.9641"
         offset="0" /><stop
         id="stop183"
         style="stop-color:#515151;stop-opacity:0.9418"
         offset="0" /><stop
         id="stop185"
         style="stop-color:#252525;stop-opacity:0.9231"
         offset="0" /><stop
         id="stop187"
         style="stop-color:#0A0A0A;stop-opacity:0.9085"
         offset="0" /><stop
         id="stop189"
         style="stop-color:#000000;stop-opacity:0.9"
         offset="0" /><stop
         id="stop191"
         style="stop-color:#000000;stop-opacity:0.9"
         offset="0.9292" /></linearGradient><path
       inkscape:connector-curvature="0"
       style="fill:#ffffff;fill-opacity:1"
       id="path194"
       d="m 70.305,0.485 h 13.623 v 3.863 h -8.707 v 6.039 h 8.287 v 3.86 h -8.287 v 10.747 h -4.916 z" /><linearGradient
       y2="12.7393"
       x2="108.7207"
       y1="12.7393"
       x1="87.864304"
       gradientUnits="userSpaceOnUse"
       id="SVGID_5_"><stop
         id="stop196"
         style="stop-color:#FFFFFF"
         offset="0" /><stop
         id="stop198"
         style="stop-color:#DBDBDB;stop-opacity:0.9891"
         offset="0" /><stop
         id="stop200"
         style="stop-color:#8E8E8E;stop-opacity:0.9641"
         offset="0" /><stop
         id="stop202"
         style="stop-color:#515151;stop-opacity:0.9418"
         offset="0" /><stop
         id="stop204"
         style="stop-color:#252525;stop-opacity:0.9231"
         offset="0" /><stop
         id="stop206"
         style="stop-color:#0A0A0A;stop-opacity:0.9085"
         offset="0" /><stop
         id="stop208"
         style="stop-color:#000000;stop-opacity:0.9"
         offset="0" /><stop
         id="stop210"
         style="stop-color:#000000;stop-opacity:0.9"
         offset="0.9292" /></linearGradient><path
       inkscape:connector-curvature="0"
       style="fill:#ffffff;fill-opacity:1"
       id="path213"
       d="m 87.864,0.485 h 6.705 c 7.515,0 14.151,2.529 14.151,12.254 0,9.726 -6.637,12.255 -14.151,12.255 h -6.705 z m 4.917,20.644 h 2.736 c 4.109,0 8.078,-3.053 8.078,-8.39 0,-5.337 -3.969,-8.391 -8.078,-8.391 h -2.736 z" /><linearGradient
       y2="12.7393"
       x2="131.123"
       y1="12.7393"
       x1="112.7969"
       gradientUnits="userSpaceOnUse"
       id="SVGID_6_"><stop
         id="stop215"
         style="stop-color:#FFFFFF"
         offset="0" /><stop
         id="stop217"
         style="stop-color:#DBDBDB;stop-opacity:0.9891"
         offset="0" /><stop
         id="stop219"
         style="stop-color:#8E8E8E;stop-opacity:0.9641"
         offset="0" /><stop
         id="stop221"
         style="stop-color:#515151;stop-opacity:0.9418"
         offset="0" /><stop
         id="stop223"
         style="stop-color:#252525;stop-opacity:0.9231"
         offset="0" /><stop
         id="stop225"
         style="stop-color:#0A0A0A;stop-opacity:0.9085"
         offset="0" /><stop
         id="stop227"
         style="stop-color:#000000;stop-opacity:0.9"
         offset="0" /><stop
         id="stop229"
         style="stop-color:#000000;stop-opacity:0.9"
         offset="0.9292" /></linearGradient><path
       inkscape:connector-curvature="0"
       style="fill:#ffffff;fill-opacity:1"
       id="path232"
       d="m 112.797,0.485 h 5.301 c 5.267,0 11.551,-0.175 11.551,6.635 0,2.88 -1.93,5.268 -5.053,5.688 v 0.072 c 1.331,0.104 2.104,1.439 2.598,2.526 l 3.93,9.588 h -5.477 L 122.7,17.337 c -0.705,-1.826 -1.336,-2.528 -3.408,-2.528 h -1.58 v 10.185 h -4.914 V 0.485 Z m 4.914,10.464 h 1.617 c 2.422,0 5.196,-0.354 5.196,-3.406 0,-2.95 -2.739,-3.194 -5.196,-3.194 h -1.617 z" /><linearGradient
       y2="12.7393"
       x2="152.58009"
       y1="12.7393"
       x1="134.25"
       gradientUnits="userSpaceOnUse"
       id="SVGID_7_"><stop
         id="stop234"
         style="stop-color:#FFFFFF"
         offset="0" /><stop
         id="stop236"
         style="stop-color:#DBDBDB;stop-opacity:0.9891"
         offset="0" /><stop
         id="stop238"
         style="stop-color:#8E8E8E;stop-opacity:0.9641"
         offset="0" /><stop
         id="stop240"
         style="stop-color:#515151;stop-opacity:0.9418"
         offset="0" /><stop
         id="stop242"
         style="stop-color:#252525;stop-opacity:0.9231"
         offset="0" /><stop
         id="stop244"
         style="stop-color:#0A0A0A;stop-opacity:0.9085"
         offset="0" /><stop
         id="stop246"
         style="stop-color:#000000;stop-opacity:0.9"
         offset="0" /><stop
         id="stop248"
         style="stop-color:#000000;stop-opacity:0.9"
         offset="0.9292" /></linearGradient><path
       inkscape:connector-curvature="0"
       style="fill:#ffffff;fill-opacity:1"
       id="path251"
       d="m 134.25,0.485 h 5.305 c 5.267,0 11.551,-0.175 11.551,6.635 0,2.88 -1.932,5.268 -5.057,5.688 v 0.072 c 1.334,0.104 2.107,1.439 2.599,2.526 l 3.933,9.588 h -5.479 l -2.949,-7.657 c -0.699,-1.826 -1.334,-2.528 -3.406,-2.528 h -1.58 v 10.185 h -4.916 V 0.485 Z m 4.916,10.464 h 1.615 c 2.422,0 5.199,-0.354 5.199,-3.406 0,-2.95 -2.74,-3.194 -5.199,-3.194 h -1.615 z" /></g></svg>