<?xml version="1.0" encoding="UTF-8" standalone="no"?>
<!-- Created with Inkscape (http://www.inkscape.org/) -->

<svg
   xmlns:dc="http://purl.org/dc/elements/1.1/"
   xmlns:cc="http://creativecommons.org/ns#"
   xmlns:rdf="http://www.w3.org/1999/02/22-rdf-syntax-ns#"
   xmlns:svg="http://www.w3.org/2000/svg"
   xmlns="http://www.w3.org/2000/svg"
   xmlns:sodipodi="http://sodipodi.sourceforge.net/DTD/sodipodi-0.dtd"
   xmlns:inkscape="http://www.inkscape.org/namespaces/inkscape"
   width="227.29401"
   height="78"
   viewBox="0 0 60.138206 20.6375"
   version="1.1"
   id="svg8"
   inkscape:version="0.92.1 r15371"
   sodipodi:docname="hev-e-logo.svg">
  <defs
     id="defs2" />
  <sodipodi:namedview
     id="base"
     pagecolor="#ffffff"
     bordercolor="#666666"
     borderopacity="1.0"
     inkscape:pageopacity="0.0"
     inkscape:pageshadow="2"
     inkscape:zoom="2.8"
     inkscape:cx="54.792451"
     inkscape:cy="64.367089"
     inkscape:document-units="mm"
     inkscape:current-layer="layer1"
     showgrid="false"
     units="px"
     inkscape:window-width="1920"
     inkscape:window-height="1017"
     inkscape:window-x="-8"
     inkscape:window-y="-8"
     inkscape:window-maximized="1" />
  <metadata
     id="metadata5">
    <rdf:RDF>
      <cc:Work
         rdf:about="">
        <dc:format>image/svg+xml</dc:format>
        <dc:type
           rdf:resource="http://purl.org/dc/dcmitype/StillImage" />
        <dc:title />
      </cc:Work>
    </rdf:RDF>
  </metadata>
  <g
     inkscape:label="Livello 1"
     inkscape:groupmode="layer"
     id="layer1"
     transform="translate(0,-276.3625)">
    <path
       style="font-style:normal;font-variant:normal;font-weight:normal;font-stretch:normal;font-size:medium;line-height:1.25;font-family:Variable;-inkscape-font-specification:Variable;letter-spacing:0px;word-spacing:0px;fill:#21bab0;fill-opacity:1;stroke:none;stroke-width:0.66440481"
       d="m 25.704942,276.36271 c -0.33576,0.001 -0.697895,0.076 -1.004615,0.0124 -3.033202,4.1e-4 -6.066418,-0.001 -9.099599,8.4e-4 -0.765512,0.0834 -0.505948,1.06879 -0.535596,1.57775 0.01613,6.09851 -0.03205,12.20311 0.02378,18.29786 0.307715,0.72994 1.302316,0.2743 1.890059,0.40028 2.94647,-0.0237 5.902379,0.0458 8.843384,-0.0321 0.637238,-0.21863 0.333513,-1.28447 -0.338948,-1.11703 h -9.269185 v -8.89488 c 2.93755,-0.0233 5.884417,0.0453 8.816527,-0.0321 0.618566,-0.22666 0.332651,-1.29084 -0.338948,-1.11703 h -8.477579 v -7.94745 h 9.316989 c 2.136024,6.41739 4.207637,12.86218 6.383225,19.26276 0.317671,0.51597 0.968231,0.0521 0.985415,-0.4304 2.122235,-6.47796 4.301347,-12.94256 6.388251,-19.42884 -0.01029,-0.65782 -1.142622,-0.74346 -1.170927,-0.0245 -1.935978,5.85251 -3.872021,11.70501 -5.807917,17.55754 -1.977108,-5.94955 -3.891297,-11.92585 -5.907004,-17.85896 -0.190984,-0.18527 -0.436164,-0.2277 -0.697324,-0.22632 z m 33.910347,0.007 v 2.1e-4 c -0.01872,0 -0.03781,0.001 -0.0574,0.004 -3.509517,0.009 -7.018369,10e-4 -10.526979,-10e-4 v 16.36829 c 0.0043,1.17014 0.01029,2.34016 0.02073,3.50971 0.308275,0.73208 1.302349,0.27294 1.890066,0.40006 2.946466,-0.0237 5.902364,0.0459 8.843377,-0.0321 0.03759,-0.0129 0.07164,-0.0288 0.102791,-0.0472 0.329201,-0.19401 0.30583,-0.66965 0.06832,-0.92276 -0.01718,-0.0183 -0.03671,-0.0342 -0.0561,-0.0499 -0.116813,-0.0951 -0.270938,-0.14272 -0.453964,-0.0971 h -9.269166 v -8.89488 c 2.938355,-0.0241 5.88653,0.0469 8.819156,-0.0333 0.07513,-0.0281 0.136519,-0.0685 0.185728,-0.11762 0.249965,-0.24955 0.177372,-0.72177 -0.0956,-0.92276 -0.112731,-0.083 -0.259138,-0.12045 -0.431708,-0.0757 h -8.477575 v -7.94746 c 3.201452,-0.0231 6.412101,0.045 9.608131,-0.0321 0.05073,-0.0163 0.09363,-0.0406 0.132919,-0.068 0.394148,-0.27602 0.224843,-1.04688 -0.302722,-1.03974 z m -58.99761007,0.005 c -0.03125,-10e-4 -0.06247,-4e-5 -0.09319,0.004 -0.759612,0.0867 -0.45468,1.07966 -0.505471,1.57513 0.01698,6.10908 -0.03366,12.22401 0.02487,18.32951 0.192458,0.64706 1.29774997,0.36472 1.12443697,-0.31472 v -9.68431 H 11.607124 c 0.02382,3.34064 -0.04653,6.69096 0.03319,10.02586 0.222951,0.61793 1.284734,0.32293 1.116134,-0.34155 -0.01731,-6.40571 0.03442,-12.8177 -0.02555,-19.21954 -0.201298,-0.64341 -1.301239,-0.37975 -1.123779,0.31079 v 8.07534 H 1.1683219 c -0.02479,-2.80265 0.04822,-5.61589 -0.03404,-8.41232 -0.07716,-0.20909 -0.29795997,-0.33881 -0.51661197,-0.3479 z m 59.40072207,0.20428 c -0.0015,-0.002 -9.4e-4,-10e-4 0.007,0.009 -0.0013,-10e-4 -0.0054,-0.007 -0.007,-0.009 z m 0.06068,0.0919 c -0.0013,-0.002 -3.12e-4,-0.002 0.0054,0.0106 -0.0013,-10e-4 -0.0043,-0.007 -0.0054,-0.0106 z m 0.02226,0.0473 c -3.13e-4,-0.002 1.83e-4,-8.4e-4 0.0043,0.0106 -0.0013,-0.002 -0.0034,-0.008 -0.0043,-0.0106 z m 0.0093,0.0248 c -3.12e-4,-0.002 0,-0.001 0.0034,0.0106 -0.0013,-0.002 -0.0028,-0.008 -0.0034,-0.0106 z m 0.008,0.0256 c -3.13e-4,-0.002 -1.88e-4,-0.001 0.0028,0.0106 -9.39e-4,-0.001 -0.0025,-0.008 -0.0028,-0.0106 z m 0.01769,0.0803 c -10e-5,-0.002 2.67e-4,-10e-4 0.0015,0.0118 -9.4e-4,-0.004 -0.0013,-0.009 -0.0015,-0.0118 z m -11.106245,0.0344 c 3.13e-4,-0.005 9.39e-4,-0.008 0,0.004 -9.4e-4,0.007 -3.14e-4,8.4e-4 0,-0.004 z m -0.0015,0.0277 c -0.0015,0.027 2.44e-4,-0.0137 0,0 z m 11.109493,0.11549 c 3.12e-4,-0.002 3.12e-4,-10e-4 -0.0015,0.0118 -1.13e-4,-0.002 9.39e-4,-0.009 0.0015,-0.0118 z m -0.01615,0.0816 c 9.4e-4,-0.002 3.1e-4,-4.3e-4 -0.0028,0.0106 9.39e-4,-0.002 0.0025,-0.008 0.0028,-0.0106 z m -0.0077,0.0256 c 9.4e-4,-0.002 9.4e-4,-0.001 -0.0034,0.0106 3.13e-4,-0.002 0.0025,-0.008 0.0034,-0.0106 z m -0.0088,0.0245 c 0.0013,-0.002 0.0013,-0.001 -0.0043,0.0106 4.6e-5,-0.001 0.0028,-0.008 0.0043,-0.0106 z m -0.238553,0.28569 c 0.0028,-10e-4 0.0022,-4.3e-4 -0.0124,0.007 0.0022,-0.001 0.0095,-0.006 0.0124,-0.007 z m -0.262767,0.067 c -0.02138,10e-4 -0.0049,-4.1e-4 0,0 z m -0.477757,8.04981 c -0.0022,-0.002 -9.4e-4,-10e-4 0.01065,0.008 -0.0028,-10e-4 -0.0085,-0.007 -0.01065,-0.008 z m 0.15081,0.18837 c -9.39e-4,-0.002 3.4e-5,-8.5e-4 0.005,0.0106 -0.0015,-0.002 -0.0043,-0.008 -0.005,-0.0106 z m 0.03034,0.0742 c -3.12e-4,-0.002 7.6e-5,-8.5e-4 0.0034,0.0106 -0.0013,-0.002 -0.0028,-0.008 -0.0034,-0.0106 z m 0.02026,0.0806 c -3.14e-4,-0.002 6.5e-5,-0.002 0.0022,0.0106 -9.39e-4,-10e-4 -0.0015,-0.008 -0.0022,-0.0106 z m 0.0046,0.0275 c -9.7e-5,-0.002 2.6e-4,-0.001 0.0013,0.0106 -3.12e-4,-0.002 -0.0013,-0.008 -0.0013,-0.0106 z m -12.846565,0.016 c -0.03848,0.001 -0.07845,0.008 -0.119813,0.0183 -1.920612,4e-4 -3.841268,-10e-4 -5.76187,8.4e-4 v 2.1e-4 c -0.741137,-0.0378 -0.693579,1.23749 0.04234,1.14823 2.02608,-0.0344 4.068336,0.0648 6.085754,-0.0421 0.567608,-0.23733 0.330807,-1.151 -0.246409,-1.1253 z m 12.849627,0.009 c 4.6e-5,-0.002 2.38e-4,-10e-4 9.38e-4,0.0133 -3.12e-4,-0.004 -9.38e-4,-0.0106 -9.38e-4,-0.0133 z m 0.0028,0.0615 c 3.13e-4,-0.005 9.39e-4,-0.002 0,0.0183 -9.4e-4,-0.005 -3.14e-4,-0.0143 0,-0.0183 z m -0.0025,0.0666 c 3.14e-4,-0.004 9.4e-4,-10e-4 -9.38e-4,0.0133 -3.14e-4,-0.002 1.77e-4,-0.0106 9.38e-4,-0.0133 z m -0.0025,0.0288 c 3.13e-4,-0.002 3.13e-4,-10e-4 -0.0013,0.0106 -3.5e-5,-0.002 9.39e-4,-0.008 0.0013,-0.0106 z m -0.196429,0.38456 c 0.0025,-0.001 0.0015,-4.4e-4 -0.01065,0.008 0.0022,-0.002 0.0082,-0.007 0.01065,-0.008 z m -0.04101,0.0299 c 0.0022,-0.001 9.39e-4,-1.8e-4 -0.01089,0.006 0.0028,-0.002 0.0088,-0.005 0.01089,-0.006 z m -0.02163,0.0129 c 0.0028,-0.001 0.0015,-4e-4 -0.0116,0.006 0.0022,-10e-4 0.0088,-0.005 0.0116,-0.006 z m -0.02313,0.012 c 0.0028,-0.001 0.0015,-2.7e-4 -0.0116,0.006 0.0022,-10e-4 0.0088,-0.005 0.0116,-0.006 z m -0.02357,0.0106 c 0.0025,-8.4e-4 0.0013,-1.1e-4 -0.01225,0.005 0.0028,-0.001 0.0096,-0.004 0.01225,-0.005 z m -0.215425,0.0439 c -0.02138,0.001 -0.0049,-4.3e-4 0,0 z m 1.101301,9.00205 c -0.0022,-0.002 -9.38e-4,-10e-4 0.01029,0.008 -0.0025,-0.001 -0.008,-0.007 -0.01029,-0.008 z m 0.01963,0.0168 c -0.0015,-0.002 -3.14e-4,-8.6e-4 0.0096,0.009 -0.0025,-0.002 -0.0077,-0.007 -0.0096,-0.009 z m 0.08511,0.0934 c -0.0015,-0.002 -9.38e-4,-10e-4 0.007,0.008 -0.0013,-10e-4 -0.0054,-0.006 -0.007,-0.008 z m 0.04758,0.0683 c -0.0013,-0.002 -9.4e-4,-0.002 0.0059,0.009 -0.0013,-8.4e-4 -0.0046,-0.007 -0.0059,-0.009 z m 0.01309,0.0233 c -9.38e-4,-0.002 -2.69e-4,-0.001 0.005,0.009 -0.0013,-0.002 -0.0043,-0.007 -0.005,-0.009 z m 0.03163,0.0721 c -9.4e-4,-0.002 -1.79e-4,-10e-4 0.0038,0.0106 -0.0013,-0.002 -0.0028,-0.008 -0.0038,-0.0106 z m 0.008,0.0256 c -3.12e-4,-0.002 -1.9e-4,-10e-4 0.0028,0.0106 -9.4e-4,-0.001 -0.0025,-0.008 -0.0028,-0.0106 z m 0.01769,0.0804 c -1.03e-4,-0.002 2.66e-4,-10e-4 0.0015,0.0118 -9.38e-4,-0.002 -0.0013,-0.009 -0.0015,-0.0118 z m -11.108402,0.12223 c -2.35e-4,-0.005 -3.13e-4,-0.008 3.13e-4,0.005 1.22e-4,0.007 -1.88e-4,6e-5 -3.13e-4,-0.005 z m 0.0022,0.029 c 0.0015,0.0236 -0.0015,-0.0136 0,0 z m 11.107742,0.0264 c 3.14e-4,-0.002 3.14e-4,-0.001 -0.0015,0.0118 -1.16e-4,-0.002 9.39e-4,-0.009 0.0015,-0.0118 z m -11.104464,0.004 c -9.39e-4,-0.005 -0.0013,-0.009 3.13e-4,0.001 9.39e-4,0.008 2.44e-4,0.004 -3.13e-4,-0.001 z m 0.0046,0.0261 c 0.0043,0.0231 -0.0034,-0.0153 0,0 z m 11.083952,0.0517 c 9.39e-4,-0.002 2.32e-4,-4.1e-4 -0.0034,0.0106 9.38e-4,-0.002 0.0025,-0.008 0.0034,-0.0106 z m -0.0077,0.0256 c 9.4e-4,-0.002 3.14e-4,-10e-4 -0.0038,0.0106 3.12e-4,-0.002 0.0025,-0.008 0.0038,-0.0106 z m -11.055152,8.6e-4 c 0.0057,0.0168 -0.006,-0.0159 0,0 z m 0.009,0.0235 c 0.0098,0.0246 -0.0076,-0.0174 0,0 z m 0.01089,0.0243 c 0.0095,0.0204 -0.0092,-0.0185 0,0 z m 0.09341,0.13706 c 0.01744,0.0196 -0.0099,-0.0107 0,0 z m 0.04388,0.0445 c -0.0038,-0.004 -0.0063,-0.006 0.0034,0.002 0.0051,0.005 2.35e-4,4e-4 -0.0034,-0.002 z m 10.649849,0.0803 c 0.0028,-10e-4 0.0015,-4.3e-4 -0.0116,0.006 0.0022,-0.001 0.0088,-0.005 0.0116,-0.006 z m -0.02336,0.012 c 0.0028,-10e-4 0.0022,-2.8e-4 -0.01136,0.006 0.0022,-0.001 0.0085,-0.005 0.01136,-0.006 z m -10.486608,0.004 c -0.0049,-0.002 -0.0093,-0.005 9.38e-4,0 0.0092,0.005 0.0038,0.002 -9.38e-4,0 z m 10.463031,0.007 c 0.0025,-8.4e-4 0.0013,-9e-5 -0.01199,0.005 0.0028,-0.001 0.0093,-0.004 0.01199,-0.005 z m -10.44076,0.004 c -0.0053,-0.002 -0.0095,-0.005 0.0028,8.6e-4 0.0088,0.004 0.0025,0.001 -0.0028,-8.6e-4 z m 0.02598,0.009 c 0,0 2.1e-4,0 2.1e-4,0 0,0 -2.1e-4,0 -2.1e-4,0 z m 0.07552,0.0207 c -0.0049,-8.5e-4 -0.0088,-10e-4 0.0028,4e-4 0.0077,0.001 0.0022,4.4e-4 -0.0028,-4e-4 z m 0.02792,0.005 c 0.02022,0.004 -0.01712,-0.002 0,0 z m 0.02749,0.004 c -0.0046,-4.4e-4 -0.008,-8.5e-4 0.0038,0 0.0067,8.4e-4 9.39e-4,4e-4 -0.0038,0 z"
       id="path4607-4-9-4"
       inkscape:connector-curvature="0" />
  </g>
</svg>
