<?xml version="1.0" encoding="UTF-8" standalone="no"?>
<!-- Created with Inkscape (http://www.inkscape.org/) -->

<svg
   xmlns:dc="http://purl.org/dc/elements/1.1/"
   xmlns:cc="http://creativecommons.org/ns#"
   xmlns:rdf="http://www.w3.org/1999/02/22-rdf-syntax-ns#"
   xmlns:svg="http://www.w3.org/2000/svg"
   xmlns="http://www.w3.org/2000/svg"
   xmlns:sodipodi="http://sodipodi.sourceforge.net/DTD/sodipodi-0.dtd"
   xmlns:inkscape="http://www.inkscape.org/namespaces/inkscape"
   width="150mm"
   height="20.637501mm"
   viewBox="0 0 150 20.637499"
   version="1.1"
   id="svg8"
   inkscape:version="0.92.1 r15371"
   sodipodi:docname="hev-e-extended-logo.svg">
  <defs
     id="defs2">
    <clipPath
       id="clipPath174">
      <path
         id="path176"
         d="m 35.975,463.833 h 139.774 v 96.009 H 35.975 Z"
         inkscape:connector-curvature="0" />
    </clipPath>
  </defs>
  <sodipodi:namedview
     id="base"
     pagecolor="#ffffff"
     bordercolor="#666666"
     borderopacity="1.0"
     inkscape:pageopacity="0.0"
     inkscape:pageshadow="2"
     inkscape:zoom="1.4"
     inkscape:cx="339.74465"
     inkscape:cy="43.577955"
     inkscape:document-units="mm"
     inkscape:current-layer="layer1"
     showgrid="false"
     units="mm"
     inkscape:window-width="1920"
     inkscape:window-height="1017"
     inkscape:window-x="1912"
     inkscape:window-y="-8"
     inkscape:window-maximized="1" />
  <metadata
     id="metadata5">
    <rdf:RDF>
      <cc:Work
         rdf:about="">
        <dc:format>image/svg+xml</dc:format>
        <dc:type
           rdf:resource="http://purl.org/dc/dcmitype/StillImage" />
        <dc:title></dc:title>
      </cc:Work>
    </rdf:RDF>
  </metadata>
  <g
     inkscape:label="Livello 1"
     inkscape:groupmode="layer"
     id="layer1"
     transform="translate(0,-276.3625)">
    <path
       inkscape:connector-curvature="0"
       id="path4547"
       style="font-style:normal;font-variant:normal;font-weight:normal;font-stretch:normal;font-size:medium;line-height:1.25;font-family:Variable;-inkscape-font-specification:Variable;letter-spacing:0px;word-spacing:0px;fill:#555555;fill-opacity:1;stroke:none;stroke-width:0.23058856"
       d="m 65.189458,283.27969 v -6.64293 q 0,-0.13061 0.08107,-0.20267 0.08107,-0.0721 0.193658,-0.0721 0.112593,0 0.19366,0.0721 0.08557,0.0721 0.08557,0.20267 v 2.76526 h 3.467835 v -2.76526 q 0,-0.13061 0.08107,-0.20267 0.08107,-0.0721 0.193658,-0.0721 0.112591,0 0.193657,0.0721 0.08557,0.0721 0.08557,0.20267 v 6.64293 q 0,0.13061 -0.08557,0.20266 -0.08107,0.0721 -0.193657,0.0721 -0.112593,0 -0.193658,-0.0721 -0.08107,-0.0721 -0.08107,-0.20266 v -3.32372 h -3.46784 v 3.32372 q 0,0.13061 -0.08557,0.20266 -0.08107,0.0721 -0.19366,0.0721 -0.112593,0 -0.193658,-0.0721 -0.08107,-0.0721 -0.08107,-0.20266 z" />
    <path
       inkscape:connector-curvature="0"
       id="path4549"
       style="font-style:normal;font-variant:normal;font-weight:normal;font-stretch:normal;font-size:medium;line-height:1.25;font-family:Variable;-inkscape-font-specification:Variable;letter-spacing:0px;word-spacing:0px;fill:#555555;fill-opacity:1;stroke:none;stroke-width:0.23058856"
       d="m 70.963179,282.16278 q 0,-0.33328 0.130607,-0.6035 0.135109,-0.27021 0.364799,-0.45037 0.234189,-0.18465 0.508915,-0.30624 0.279229,-0.12161 0.612501,-0.18916 l 1.179966,-0.2522 v -0.43236 q 0,-0.47739 -0.279229,-0.75211 -0.274726,-0.27924 -0.819671,-0.27924 -0.44136,0 -0.774633,0.25671 -0.05855,0.0495 -0.139614,0.13962 -0.08107,0.0856 -0.139615,0.1216 -0.05855,0.036 -0.144117,0.036 -0.108089,0 -0.189154,-0.0765 -0.07656,-0.0765 -0.07656,-0.19366 0,-0.12159 0.126102,-0.26571 0.243199,-0.27924 0.594487,-0.42335 0.351286,-0.14862 0.743106,-0.14862 0.765625,0 1.206988,0.44135 0.445863,0.43686 0.445863,1.14395 v 2.13023 q 0,0.69357 -0.490902,1.13943 -0.4909,0.44587 -1.179963,0.44587 -0.45037,0 -0.828677,-0.16213 -0.373807,-0.16664 -0.612502,-0.50892 -0.238695,-0.34678 -0.238695,-0.81066 z m 0.553951,-0.009 q 0,0.42785 0.301749,0.68456 0.306249,0.25671 0.815166,0.25671 0.486398,0 0.80616,-0.29273 0.319762,-0.29725 0.319762,-0.74311 v -1.14393 l -1.188973,0.26121 q -0.481895,0.1036 -0.770131,0.3693 -0.283733,0.26121 -0.283733,0.60799 z" />
    <path
       inkscape:connector-curvature="0"
       id="path4551"
       style="font-style:normal;font-variant:normal;font-weight:normal;font-stretch:normal;font-size:medium;line-height:1.25;font-family:Variable;-inkscape-font-specification:Variable;letter-spacing:0px;word-spacing:0px;fill:#555555;fill-opacity:1;stroke:none;stroke-width:0.23058856"
       d="m 75.223662,283.32473 q 0,-0.10361 0.06306,-0.19366 l 2.648166,-4.14339 H 75.72808 q -0.130606,0 -0.202665,-0.0811 -0.07206,-0.081 -0.07206,-0.19366 0,-0.11258 0.07206,-0.19365 0.07206,-0.0856 0.202665,-0.0856 h 2.711218 q 0.135109,0 0.216177,0.0676 0.08107,0.0675 0.08107,0.16663 0,0.1036 -0.06305,0.19366 l -2.648166,4.13888 h 2.454508 q 0.130605,0 0.202663,0.0856 0.07206,0.0811 0.07206,0.19366 0,0.1126 -0.07206,0.19365 -0.07206,0.0811 -0.202663,0.0811 h -2.963425 q -0.135109,0 -0.216178,-0.063 -0.07656,-0.0676 -0.07656,-0.16664 z" />
    <path
       inkscape:connector-curvature="0"
       id="path4553"
       style="font-style:normal;font-variant:normal;font-weight:normal;font-stretch:normal;font-size:medium;line-height:1.25;font-family:Variable;-inkscape-font-specification:Variable;letter-spacing:0px;word-spacing:0px;fill:#555555;fill-opacity:1;stroke:none;stroke-width:0.23058856"
       d="m 79.57422,282.16278 q 0,-0.33328 0.130608,-0.6035 0.135109,-0.27021 0.364798,-0.45037 0.23419,-0.18465 0.508915,-0.30624 0.279229,-0.12161 0.612502,-0.18916 l 1.179964,-0.2522 v -0.43236 q 0,-0.47739 -0.279228,-0.75211 -0.274725,-0.27924 -0.819671,-0.27924 -0.44136,0 -0.774632,0.25671 -0.05855,0.0495 -0.139615,0.13962 -0.08107,0.0856 -0.139615,0.1216 -0.05855,0.036 -0.144118,0.036 -0.108087,0 -0.189153,-0.0765 -0.07656,-0.0765 -0.07656,-0.19366 0,-0.12159 0.126103,-0.26571 0.243199,-0.27924 0.594486,-0.42335 0.351286,-0.14862 0.743107,-0.14862 0.765626,0 1.206988,0.44135 0.445864,0.43686 0.445864,1.14395 v 2.13023 q 0,0.69357 -0.490902,1.13943 -0.4909,0.44587 -1.179964,0.44587 -0.450369,0 -0.828677,-0.16213 -0.373807,-0.16664 -0.612501,-0.50892 -0.238695,-0.34678 -0.238695,-0.81066 z m 0.553952,-0.009 q 0,0.42785 0.301749,0.68456 0.306249,0.25671 0.815164,0.25671 0.486399,0 0.806161,-0.29273 0.319761,-0.29725 0.319761,-0.74311 v -1.14393 l -1.188972,0.26121 q -0.481896,0.1036 -0.770131,0.3693 -0.283732,0.26121 -0.283732,0.60799 z" />
    <path
       inkscape:connector-curvature="0"
       id="path4555"
       style="font-style:normal;font-variant:normal;font-weight:normal;font-stretch:normal;font-size:medium;line-height:1.25;font-family:Variable;-inkscape-font-specification:Variable;letter-spacing:0px;word-spacing:0px;fill:#555555;fill-opacity:1;stroke:none;stroke-width:0.23058856"
       d="m 84.154465,283.27969 v -3.07151 q 0,-0.80616 0.423346,-1.33309 0.423347,-0.53143 1.193476,-0.53143 0.297242,0 0.621508,0.12159 0.324265,0.12161 0.522428,0.32877 0.09007,0.0901 0.09007,0.19366 0,0.1126 -0.08557,0.19816 -0.08107,0.081 -0.198163,0.081 -0.09458,0 -0.193657,-0.0856 -0.02252,-0.018 -0.04954,-0.036 -0.306251,-0.24771 -0.707079,-0.24771 -0.499909,0 -0.783641,0.34679 -0.279226,0.34227 -0.279226,0.96378 v 3.07152 q 0,0.1306 -0.08107,0.20266 -0.08107,0.0721 -0.193657,0.0721 -0.112592,0 -0.198163,-0.0721 -0.08107,-0.0721 -0.08107,-0.20266 z" />
    <path
       inkscape:connector-curvature="0"
       id="path4557"
       style="font-style:normal;font-variant:normal;font-weight:normal;font-stretch:normal;font-size:medium;line-height:1.25;font-family:Variable;-inkscape-font-specification:Variable;letter-spacing:0px;word-spacing:0px;fill:#555555;fill-opacity:1;stroke:none;stroke-width:0.23058856"
       d="m 87.784433,281.84752 v -1.7069 q 0,-0.74761 0.522427,-1.27003 0.526931,-0.52693 1.274543,-0.52693 0.711583,0 1.247519,0.58097 v -2.28787 q 0,-0.13061 0.08107,-0.20267 0.08107,-0.0721 0.193658,-0.0721 0.112591,0 0.193657,0.0721 0.08557,0.0721 0.08557,0.20267 v 5.21076 q 0,0.74761 -0.526932,1.27454 -0.526929,0.52242 -1.274541,0.52242 -0.747612,0 -1.274543,-0.52242 -0.522427,-0.52693 -0.522428,-1.27454 z m 0.553953,0 q 0,0.52242 0.360294,0.88723 0.364798,0.36029 0.882723,0.36029 0.522426,0 0.882721,-0.3648 0.364798,-0.3648 0.364798,-0.88272 v -1.7069 q 0,-0.51792 -0.364798,-0.87821 -0.360295,-0.36481 -0.882721,-0.36481 -0.522428,0 -0.882723,0.36029 -0.360294,0.36031 -0.360294,0.88273 z" />
    <path
       inkscape:connector-curvature="0"
       id="path4559"
       style="font-style:normal;font-variant:normal;font-weight:normal;font-stretch:normal;font-size:medium;line-height:1.25;font-family:Variable;-inkscape-font-specification:Variable;letter-spacing:0px;word-spacing:0px;fill:#555555;fill-opacity:1;stroke:none;stroke-width:0.23058856"
       d="m 92.031406,284.93705 q 0,-0.1171 0.121599,-0.21168 0.03602,-0.027 0.09007,-0.0901 0.297243,-0.29275 0.454871,-0.69357 0.162134,-0.40083 0.162134,-0.83768 0,-0.13062 0.08107,-0.20268 0.08557,-0.0765 0.198163,-0.0765 0.112592,0 0.193657,0.0765 0.08107,0.0721 0.08107,0.20268 0,0.56745 -0.252206,1.15743 -0.252207,0.58999 -0.689063,0.90525 -0.07206,0.0585 -0.166637,0.0585 -0.108089,0 -0.193658,-0.0901 -0.08107,-0.0856 -0.08107,-0.19816 z" />
    <path
       inkscape:connector-curvature="0"
       id="path4561"
       style="font-style:normal;font-variant:normal;font-weight:normal;font-stretch:normal;font-size:medium;line-height:1.25;font-family:Variable;-inkscape-font-specification:Variable;letter-spacing:0px;word-spacing:0px;fill:#555555;fill-opacity:1;stroke:none;stroke-width:0.23058856"
       d="m 96.913397,283.27969 v -6.64293 q 0,-0.1126 0.08105,-0.19366 0.08105,-0.0811 0.193653,-0.0811 h 3.45883 q 0.1306,0 0.20267,0.0811 0.0765,0.0811 0.0765,0.19366 0,0.11259 -0.0765,0.19366 -0.0721,0.0811 -0.20267,0.0811 h -3.179597 v 2.60312 h 2.904867 q 0.13061,0 0.20267,0.0811 0.0721,0.0811 0.0721,0.19367 0,0.11259 -0.0721,0.19816 -0.0721,0.0811 -0.20267,0.0811 h -2.904867 v 2.9319 h 3.179597 q 0.1306,0 0.20267,0.0856 0.0765,0.081 0.0765,0.19366 0,0.11259 -0.0765,0.19365 -0.0721,0.081 -0.20267,0.081 H 97.1881 q -0.112593,0 -0.193653,-0.081 -0.08105,-0.0811 -0.08105,-0.19365 z" />
    <path
       inkscape:connector-curvature="0"
       id="path4563"
       style="font-style:normal;font-variant:normal;font-weight:normal;font-stretch:normal;font-size:medium;line-height:1.25;font-family:Variable;-inkscape-font-specification:Variable;letter-spacing:0px;word-spacing:0px;fill:#555555;fill-opacity:1;stroke:none;stroke-width:0.23058856"
       d="m 101.75036,283.28869 q 0,-0.081 0.045,-0.15762 l 1.41415,-2.1888 -1.3511,-2.08069 q -0.045,-0.0766 -0.045,-0.15763 0,-0.10809 0.0901,-0.18915 0.0901,-0.0811 0.19816,-0.0811 0.13962,0 0.22969,0.1306 l 1.20698,1.87354 1.19798,-1.87354 q 0.0901,-0.1306 0.2342,-0.1306 0.1126,0 0.19815,0.0811 0.0856,0.0811 0.0856,0.18915 0,0.0811 -0.045,0.15763 l -1.3466,2.08069 1.40966,2.1888 q 0.045,0.0765 0.045,0.15762 0,0.10809 -0.0856,0.18916 -0.0856,0.0765 -0.19816,0.0765 -0.13962,0 -0.22969,-0.1306 l -1.26554,-1.97262 -1.27003,1.97262 q -0.0901,0.1306 -0.2342,0.1306 -0.10808,0 -0.19816,-0.0765 -0.0856,-0.081 -0.0856,-0.18916 z" />
    <path
       inkscape:connector-curvature="0"
       id="path4565"
       style="font-style:normal;font-variant:normal;font-weight:normal;font-stretch:normal;font-size:medium;line-height:1.25;font-family:Variable;-inkscape-font-specification:Variable;letter-spacing:0px;word-spacing:0px;fill:#555555;fill-opacity:1;stroke:none;stroke-width:0.23058856"
       d="m 106.3306,285.1217 v -4.98108 q 0,-0.74761 0.52693,-1.27003 0.52694,-0.52693 1.27454,-0.52693 0.74761,0 1.27004,0.52693 0.52694,0.52242 0.52694,1.27003 v 1.7069 q 0,0.74761 -0.52694,1.27454 -0.52243,0.52242 -1.27004,0.52242 -0.71158,0 -1.24751,-0.58096 v 2.05818 q 0,0.1306 -0.081,0.20266 -0.0811,0.0765 -0.19367,0.0765 -0.11259,0 -0.19816,-0.0765 -0.0811,-0.0721 -0.0811,-0.20266 z m 0.55396,-3.27418 q 0,0.51792 0.36479,0.88272 0.36479,0.3648 0.88272,0.3648 0.51792,0 0.87822,-0.36029 0.3648,-0.36481 0.3648,-0.88723 v -1.7069 q 0,-0.52242 -0.3648,-0.88273 -0.3603,-0.36029 -0.87822,-0.36029 -0.52243,0 -0.88722,0.36481 -0.36029,0.36029 -0.36029,0.87821 z" />
    <path
       inkscape:connector-curvature="0"
       id="path4567"
       style="font-style:normal;font-variant:normal;font-weight:normal;font-stretch:normal;font-size:medium;line-height:1.25;font-family:Variable;-inkscape-font-specification:Variable;letter-spacing:0px;word-spacing:0px;fill:#555555;fill-opacity:1;stroke:none;stroke-width:0.23058856"
       d="m 111.13153,281.84752 v -1.7069 q 0,-0.74761 0.52242,-1.27003 0.52693,-0.52693 1.27454,-0.52693 0.74762,0 1.27454,0.52693 0.52693,0.52242 0.52693,1.27003 v 1.7069 q 0,0.74761 -0.52693,1.27454 -0.52692,0.52242 -1.27454,0.52242 -0.74761,0 -1.27454,-0.52242 -0.52242,-0.52693 -0.52242,-1.27454 z m 0.55394,0 q 0,0.52242 0.3603,0.88723 0.3648,0.36029 0.88272,0.36029 0.52243,0 0.88273,-0.3648 0.36479,-0.3648 0.36479,-0.88272 v -1.7069 q 0,-0.51792 -0.36479,-0.87821 -0.3603,-0.36481 -0.88273,-0.36481 -0.52242,0 -0.88272,0.36029 -0.3603,0.36031 -0.3603,0.88273 z" />
    <path
       inkscape:connector-curvature="0"
       id="path4569"
       style="font-style:normal;font-variant:normal;font-weight:normal;font-stretch:normal;font-size:medium;line-height:1.25;font-family:Variable;-inkscape-font-specification:Variable;letter-spacing:0px;word-spacing:0px;fill:#555555;fill-opacity:1;stroke:none;stroke-width:0.23058856"
       d="m 115.78383,282.85184 q 0,-0.11709 0.0856,-0.19366 0.0901,-0.0811 0.20266,-0.0811 0.13512,0 0.22069,0.12159 l 0.045,0.045 q 0.33777,0.35129 0.90524,0.35129 0.52693,0 0.84219,-0.26121 0.31976,-0.26122 0.31976,-0.64403 0,-0.26572 -0.14412,-0.45937 -0.13962,-0.19817 -0.3693,-0.31977 -0.22969,-0.1216 -0.50441,-0.22519 -0.27473,-0.10808 -0.55396,-0.22969 -0.27472,-0.12159 -0.50441,-0.27472 -0.22969,-0.15763 -0.3738,-0.41434 -0.13962,-0.26121 -0.13962,-0.60349 0,-0.41884 0.22519,-0.72509 0.22518,-0.31075 0.55395,-0.45037 0.33327,-0.14411 0.71158,-0.14411 0.40082,0 0.80166,0.20266 0.40533,0.19816 0.61249,0.52693 0.045,0.0765 0.045,0.15312 0,0.10809 -0.0901,0.18916 -0.0901,0.0811 -0.19817,0.0811 -0.1396,0 -0.22969,-0.1306 -0.018,-0.018 -0.045,-0.063 -0.36029,-0.40534 -0.89624,-0.40534 -0.41433,0 -0.68005,0.21618 -0.26121,0.21167 -0.26121,0.54945 0,0.22969 0.14412,0.40533 0.14412,0.17114 0.36929,0.28373 0.2297,0.1126 0.50442,0.21618 0.27923,0.1036 0.55396,0.2342 0.27922,0.12609 0.50441,0.29273 0.22969,0.16664 0.3738,0.45038 0.14412,0.27922 0.14412,0.64402 0,0.43235 -0.2387,0.77012 -0.23869,0.33778 -0.63051,0.51342 -0.38732,0.17114 -0.84669,0.17114 -0.38732,0 -0.79716,-0.16663 -0.40532,-0.17114 -0.60349,-0.46838 -0.0586,-0.0856 -0.0586,-0.15763 z" />
    <path
       inkscape:connector-curvature="0"
       id="path4571"
       style="font-style:normal;font-variant:normal;font-weight:normal;font-stretch:normal;font-size:medium;line-height:1.25;font-family:Variable;-inkscape-font-specification:Variable;letter-spacing:0px;word-spacing:0px;fill:#555555;fill-opacity:1;stroke:none;stroke-width:0.23058856"
       d="m 120.05782,281.84752 v -3.13457 q 0,-0.1306 0.081,-0.20266 0.0856,-0.0765 0.19816,-0.0765 0.11259,0 0.19366,0.0765 0.081,0.0721 0.081,0.20266 v 3.13457 q 0,0.51792 0.36479,0.88272 0.3648,0.3648 0.88272,0.3648 0.51793,0 0.87822,-0.36029 0.3648,-0.36481 0.3648,-0.88723 v -3.13457 q 0,-0.1306 0.081,-0.20266 0.0856,-0.0765 0.19816,-0.0765 0.1126,0 0.19367,0.0765 0.0811,0.0721 0.0811,0.20266 v 3.13457 q 0,0.74761 -0.52694,1.27454 -0.52243,0.52242 -1.27004,0.52242 -0.74761,0 -1.27454,-0.52242 -0.52693,-0.52693 -0.52693,-1.27454 z" />
    <path
       inkscape:connector-curvature="0"
       id="path4573"
       style="font-style:normal;font-variant:normal;font-weight:normal;font-stretch:normal;font-size:medium;line-height:1.25;font-family:Variable;-inkscape-font-specification:Variable;letter-spacing:0px;word-spacing:0px;fill:#555555;fill-opacity:1;stroke:none;stroke-width:0.23058856"
       d="m 124.93981,283.27969 v -3.07151 q 0,-0.80616 0.42335,-1.33309 0.42335,-0.53143 1.19347,-0.53143 0.29725,0 0.62152,0.12159 0.32426,0.12161 0.52242,0.32877 0.0901,0.0901 0.0901,0.19366 0,0.1126 -0.0856,0.19816 -0.0811,0.081 -0.19816,0.081 -0.0945,0 -0.19367,-0.0856 -0.0226,-0.018 -0.0495,-0.036 -0.30626,-0.24771 -0.70709,-0.24771 -0.49991,0 -0.78363,0.34679 -0.27923,0.34227 -0.27923,0.96378 v 3.07152 q 0,0.1306 -0.0811,0.20266 -0.0811,0.0721 -0.19365,0.0721 -0.1126,0 -0.19817,-0.0721 -0.0811,-0.0721 -0.0811,-0.20266 z" />
    <path
       inkscape:connector-curvature="0"
       id="path4575"
       style="font-style:normal;font-variant:normal;font-weight:normal;font-stretch:normal;font-size:medium;line-height:1.25;font-family:Variable;-inkscape-font-specification:Variable;letter-spacing:0px;word-spacing:0px;fill:#555555;fill-opacity:1;stroke:none;stroke-width:0.23058856"
       d="m 128.56978,281.84752 v -1.7069 q 0,-0.74761 0.52243,-1.27003 0.52693,-0.52693 1.27454,-0.52693 0.74761,0 1.27454,0.52693 0.52694,0.52242 0.52694,1.27003 v 0.64854 q 0,0.11259 -0.0856,0.19365 -0.0811,0.0811 -0.19367,0.0811 h -2.76525 v 0.78364 q 0,0.4954 0.40082,0.87371 0.40533,0.37381 0.93676,0.37381 0.69358,0 1.04036,-0.44586 0.0901,-0.1171 0.23419,-0.1171 0.1126,0 0.19816,0.0811 0.0856,0.0766 0.0856,0.18465 0,0.0945 -0.0541,0.17564 -0.25221,0.32878 -0.65754,0.49991 -0.40082,0.17114 -0.8467,0.17114 -0.48188,0 -0.91875,-0.23419 -0.43235,-0.23418 -0.70257,-0.65303 -0.27022,-0.41884 -0.27022,-0.90974 z m 0.55396,-1.3376 h 2.49053 v -0.3693 q 0,-0.51792 -0.36479,-0.87821 -0.36031,-0.36481 -0.88273,-0.36481 -0.52243,0 -0.88272,0.36029 -0.36029,0.36031 -0.36029,0.88273 z" />
    <path
       inkscape:connector-curvature="0"
       id="path4577"
       style="font-style:normal;font-variant:normal;font-weight:normal;font-stretch:normal;font-size:medium;line-height:1.25;font-family:Variable;-inkscape-font-specification:Variable;letter-spacing:0px;word-spacing:0px;fill:#555555;fill-opacity:1;stroke:none;stroke-width:0.23058856"
       d="m 135.40187,282.16278 q 0,-0.33328 0.1306,-0.6035 0.13512,-0.27021 0.36481,-0.45037 0.23418,-0.18465 0.50891,-0.30624 0.27923,-0.12161 0.6125,-0.18916 l 1.17997,-0.2522 v -0.43236 q 0,-0.47739 -0.27923,-0.75211 -0.27473,-0.27924 -0.81967,-0.27924 -0.44136,0 -0.77463,0.25671 -0.0586,0.0495 -0.13962,0.13962 -0.0811,0.0856 -0.13962,0.1216 -0.0586,0.036 -0.14411,0.036 -0.1081,0 -0.18915,-0.0765 -0.0766,-0.0765 -0.0766,-0.19366 0,-0.12159 0.12611,-0.26571 0.2432,-0.27924 0.59449,-0.42335 0.35128,-0.14862 0.74311,-0.14862 0.76562,0 1.20698,0.44135 0.44587,0.43686 0.44587,1.14395 v 2.13023 q 0,0.69357 -0.49091,1.13943 -0.49089,0.44587 -1.17996,0.44587 -0.45037,0 -0.82867,-0.16213 -0.37381,-0.16664 -0.61251,-0.50892 -0.23869,-0.34678 -0.23869,-0.81066 z m 0.55395,-0.009 q 0,0.42785 0.30175,0.68456 0.30625,0.25671 0.81517,0.25671 0.48639,0 0.80615,-0.29273 0.31977,-0.29725 0.31977,-0.74311 v -1.14393 l -1.18897,0.26121 q -0.4819,0.1036 -0.77013,0.3693 -0.28374,0.26121 -0.28374,0.60799 z" />
    <path
       inkscape:connector-curvature="0"
       id="path4579"
       style="font-style:normal;font-variant:normal;font-weight:normal;font-stretch:normal;font-size:medium;line-height:1.25;font-family:Variable;-inkscape-font-specification:Variable;letter-spacing:0px;word-spacing:0px;fill:#555555;fill-opacity:1;stroke:none;stroke-width:0.23058856"
       d="m 139.98212,283.27969 v -3.13907 q 0,-0.74761 0.52692,-1.27003 0.52693,-0.52693 1.27455,-0.52693 0.74761,0 1.27003,0.52693 0.52694,0.52242 0.52694,1.27003 v 3.13907 q 0,0.13061 -0.0811,0.20266 -0.081,0.0721 -0.19366,0.0721 -0.11259,0 -0.19816,-0.0721 -0.0811,-0.0721 -0.0811,-0.20266 v -3.13907 q 0,-0.52242 -0.36479,-0.88273 -0.36029,-0.36029 -0.87821,-0.36029 -0.52244,0 -0.88724,0.36481 -0.36029,0.36029 -0.36029,0.87821 v 3.13907 q 0,0.13061 -0.0811,0.20266 -0.0811,0.0721 -0.19366,0.0721 -0.1126,0 -0.19817,-0.0721 -0.0811,-0.0721 -0.0811,-0.20266 z" />
    <path
       inkscape:connector-curvature="0"
       id="path4581"
       style="font-style:normal;font-variant:normal;font-weight:normal;font-stretch:normal;font-size:medium;line-height:1.25;font-family:Variable;-inkscape-font-specification:Variable;letter-spacing:0px;word-spacing:0px;fill:#555555;fill-opacity:1;stroke:none;stroke-width:0.23058856"
       d="m 144.81907,281.84752 v -1.7069 q 0,-0.74761 0.52242,-1.27003 0.52694,-0.52693 1.27454,-0.52693 0.71159,0 1.24753,0.58097 v -2.28787 q 0,-0.13061 0.0811,-0.20267 0.081,-0.0721 0.19366,-0.0721 0.1126,0 0.19366,0.0721 0.0856,0.0721 0.0856,0.20267 v 5.21076 q 0,0.74761 -0.52692,1.27454 -0.52694,0.52242 -1.27456,0.52242 -0.7476,0 -1.27454,-0.52242 -0.52242,-0.52693 -0.52242,-1.27454 z m 0.55395,0 q 0,0.52242 0.3603,0.88723 0.36479,0.36029 0.88271,0.36029 0.52244,0 0.88273,-0.3648 0.3648,-0.3648 0.3648,-0.88272 v -1.7069 q 0,-0.51792 -0.3648,-0.87821 -0.36029,-0.36481 -0.88273,-0.36481 -0.52242,0 -0.88271,0.36029 -0.3603,0.36031 -0.3603,0.88273 z" />
    <path
       inkscape:connector-curvature="0"
       id="path4583"
       style="font-style:normal;font-variant:normal;font-weight:normal;font-stretch:normal;font-size:medium;line-height:1.25;font-family:Variable;-inkscape-font-specification:Variable;letter-spacing:0px;word-spacing:0px;fill:#555555;fill-opacity:1;stroke:none;stroke-width:0.23058856"
       d="m 64.635504,288.22677 q 0,-0.11709 0.08557,-0.18915 0.08557,-0.0766 0.198161,-0.0766 0.198164,0 0.261215,0.19366 l 1.945591,5.90883 1.954598,-5.90883 q 0.06305,-0.19366 0.247703,-0.19366 0.117094,0 0.207167,0.0766 0.09007,0.0721 0.09007,0.18915 0,0.036 -0.01801,0.0901 l -2.21581,6.715 q -0.08107,0.2432 -0.265717,0.2432 -0.189156,0 -0.256712,-0.2432 l -2.215811,-6.715 q -0.01801,-0.0541 -0.01801,-0.0901 z" />
    <path
       inkscape:connector-curvature="0"
       id="path4585"
       style="font-style:normal;font-variant:normal;font-weight:normal;font-stretch:normal;font-size:medium;line-height:1.25;font-family:Variable;-inkscape-font-specification:Variable;letter-spacing:0px;word-spacing:0px;fill:#555555;fill-opacity:1;stroke:none;stroke-width:0.23058856"
       d="m 70.445256,293.44654 v -3.13456 q 0,-0.13061 0.08107,-0.20267 0.08557,-0.0766 0.198161,-0.0766 0.112594,0 0.19366,0.0766 0.08107,0.0721 0.08107,0.20267 v 3.13456 q 0,0.51792 0.364798,0.88272 0.364798,0.36479 0.882722,0.36479 0.517923,0 0.878218,-0.36029 0.364798,-0.36479 0.364798,-0.88722 v -3.13456 q 0,-0.13061 0.08107,-0.20267 0.08557,-0.0766 0.198162,-0.0766 0.112593,0 0.193658,0.0766 0.08107,0.0721 0.08107,0.20267 v 3.13456 q 0,0.74761 -0.526931,1.27454 -0.522428,0.52243 -1.270038,0.52243 -0.747612,0 -1.274544,-0.52243 -0.526929,-0.52693 -0.526929,-1.27454 z" />
    <path
       inkscape:connector-curvature="0"
       id="path4587"
       style="font-style:normal;font-variant:normal;font-weight:normal;font-stretch:normal;font-size:medium;line-height:1.25;font-family:Variable;-inkscape-font-specification:Variable;letter-spacing:0px;word-spacing:0px;fill:#555555;fill-opacity:1;stroke:none;stroke-width:0.23058856"
       d="m 75.327247,293.70325 v -5.46747 q 0,-0.13061 0.08107,-0.20267 0.08557,-0.0721 0.198163,-0.0721 0.112592,0 0.193657,0.0721 0.08107,0.0721 0.08107,0.20267 v 5.46747 q 0,0.31075 0.112591,0.608 0.117095,0.29273 0.360295,0.40083 0.175644,0.0765 0.175644,0.25671 0,0.10808 -0.08107,0.18915 -0.07656,0.0856 -0.189155,0.0856 -0.07206,0 -0.108087,-0.018 -0.05855,-0.018 -0.148622,-0.0811 -0.337776,-0.21618 -0.508916,-0.60349 -0.166637,-0.39182 -0.166637,-0.83768 z" />
    <path
       inkscape:connector-curvature="0"
       id="path4589"
       style="font-style:normal;font-variant:normal;font-weight:normal;font-stretch:normal;font-size:medium;line-height:1.25;font-family:Variable;-inkscape-font-specification:Variable;letter-spacing:0px;word-spacing:0px;fill:#555555;fill-opacity:1;stroke:none;stroke-width:0.23058856"
       d="m 77.344897,294.87871 v -3.13906 q 0,-0.74762 0.526931,-1.27004 0.52693,-0.52694 1.274542,-0.52694 0.747611,0 1.270038,0.52694 0.526931,0.52242 0.526931,1.27004 v 3.13906 q 0,0.1306 -0.08107,0.20266 -0.08107,0.0721 -0.19366,0.0721 -0.112591,0 -0.19816,-0.0721 -0.08107,-0.0721 -0.08107,-0.20266 v -3.13906 q 0,-0.52244 -0.364797,-0.88273 -0.360294,-0.36029 -0.87822,-0.36029 -0.522425,0 -0.887224,0.36479 -0.360294,0.3603 -0.360294,0.87823 v 3.13906 q 0,0.1306 -0.08107,0.20266 -0.08107,0.0721 -0.193657,0.0721 -0.112592,0 -0.198163,-0.0721 -0.08107,-0.0721 -0.08107,-0.20266 z" />
    <path
       inkscape:connector-curvature="0"
       id="path4591"
       style="font-style:normal;font-variant:normal;font-weight:normal;font-stretch:normal;font-size:medium;line-height:1.25;font-family:Variable;-inkscape-font-specification:Variable;letter-spacing:0px;word-spacing:0px;fill:#555555;fill-opacity:1;stroke:none;stroke-width:0.23058856"
       d="m 82.181852,293.44654 v -1.70689 q 0,-0.74762 0.522427,-1.27004 0.526932,-0.52694 1.274542,-0.52694 0.747612,0 1.274543,0.52694 0.52693,0.52242 0.52693,1.27004 v 0.64852 q 0,0.1126 -0.08557,0.19367 -0.08107,0.081 -0.193658,0.081 h -2.765262 v 0.78365 q 0,0.49541 0.400828,0.87371 0.40533,0.3738 0.936766,0.3738 0.693566,0 1.040351,-0.44586 0.09007,-0.11709 0.23419,-0.11709 0.112592,0 0.198163,0.0811 0.08557,0.0765 0.08557,0.18465 0,0.0945 -0.05405,0.17564 -0.252206,0.32877 -0.657539,0.49991 -0.400827,0.17114 -0.846691,0.17114 -0.481894,0 -0.918752,-0.2342 -0.432354,-0.23419 -0.702574,-0.65303 -0.270222,-0.41885 -0.270222,-0.90974 z m 0.553953,-1.3376 h 2.490537 v -0.36929 q 0,-0.51793 -0.364798,-0.87823 -0.360295,-0.36479 -0.882723,-0.36479 -0.522427,0 -0.882721,0.36029 -0.360295,0.36029 -0.360295,0.88273 z" />
    <path
       inkscape:connector-curvature="0"
       id="path4593"
       style="font-style:normal;font-variant:normal;font-weight:normal;font-stretch:normal;font-size:medium;line-height:1.25;font-family:Variable;-inkscape-font-specification:Variable;letter-spacing:0px;word-spacing:0px;fill:#555555;fill-opacity:1;stroke:none;stroke-width:0.23058856"
       d="m 86.982778,294.87871 v -3.07152 q 0,-0.80615 0.423345,-1.33308 0.423347,-0.53144 1.193478,-0.53144 0.297243,0 0.621507,0.12161 0.324265,0.12159 0.522427,0.32877 0.09007,0.0901 0.09007,0.19365 0,0.11259 -0.08557,0.19816 -0.08107,0.0811 -0.198161,0.0811 -0.09458,0 -0.193658,-0.0856 -0.02252,-0.018 -0.04955,-0.036 -0.306249,-0.2477 -0.707077,-0.2477 -0.499909,0 -0.78364,0.34678 -0.279229,0.34228 -0.279229,0.96378 v 3.07151 q 0,0.13061 -0.08107,0.20267 -0.08107,0.0721 -0.19366,0.0721 -0.112593,0 -0.198162,-0.0721 -0.08107,-0.0721 -0.08107,-0.20267 z" />
    <path
       inkscape:connector-curvature="0"
       id="path4595"
       style="font-style:normal;font-variant:normal;font-weight:normal;font-stretch:normal;font-size:medium;line-height:1.25;font-family:Variable;-inkscape-font-specification:Variable;letter-spacing:0px;word-spacing:0px;fill:#555555;fill-opacity:1;stroke:none;stroke-width:0.23058856"
       d="m 90.473133,293.76179 q 0,-0.33326 0.130606,-0.60349 0.135111,-0.27022 0.364797,-0.45037 0.234192,-0.18464 0.508916,-0.30625 0.279229,-0.1216 0.612501,-0.18915 l 1.179965,-0.25221 v -0.43235 q 0,-0.47739 -0.279228,-0.75212 -0.274724,-0.27922 -0.819669,-0.27922 -0.441362,0 -0.774635,0.25671 -0.05855,0.0495 -0.139614,0.13962 -0.08107,0.0856 -0.139615,0.12159 -0.05855,0.036 -0.144118,0.036 -0.108088,0 -0.189153,-0.0766 -0.07656,-0.0765 -0.07656,-0.19365 0,-0.1216 0.126105,-0.26572 0.243197,-0.27924 0.594484,-0.42335 0.351289,-0.14862 0.743109,-0.14862 0.765626,0 1.206986,0.44136 0.445866,0.43686 0.445866,1.14394 v 2.13024 q 0,0.69356 -0.490902,1.13943 -0.490902,0.44587 -1.179966,0.44587 -0.450367,0 -0.828677,-0.16214 -0.373805,-0.16663 -0.612501,-0.50891 -0.238694,-0.34678 -0.238694,-0.81067 z m 0.553952,-0.009 q 0,0.42785 0.301745,0.68456 0.306253,0.2567 0.815168,0.2567 0.486397,0 0.806158,-0.29273 0.319762,-0.29725 0.319762,-0.74311 v -1.14394 l -1.188972,0.26121 q -0.481893,0.10361 -0.770129,0.36931 -0.283732,0.26121 -0.283732,0.608 z" />
    <path
       inkscape:connector-curvature="0"
       id="path4597"
       style="font-style:normal;font-variant:normal;font-weight:normal;font-stretch:normal;font-size:medium;line-height:1.25;font-family:Variable;-inkscape-font-specification:Variable;letter-spacing:0px;word-spacing:0px;fill:#555555;fill-opacity:1;stroke:none;stroke-width:0.23058856"
       d="m 95.053378,293.44654 v -5.21076 q 0,-0.13061 0.08107,-0.20267 0.08557,-0.0721 0.198161,-0.0721 0.112594,0 0.193654,0.0721 0.08105,0.0721 0.08105,0.20267 v 2.28787 q 0.535934,-0.58098 1.247518,-0.58098 0.747608,0 1.27004,0.52694 0.526932,0.52242 0.526932,1.27004 v 1.70689 q 0,0.74761 -0.526932,1.27454 -0.522432,0.52243 -1.27004,0.52243 -0.747608,0 -1.274541,-0.52243 -0.526927,-0.52693 -0.526927,-1.27454 z m 0.553954,0 q 0,0.51792 0.364793,0.88272 0.364804,0.36479 0.882725,0.36479 0.517921,0 0.878213,-0.36029 0.364804,-0.36479 0.364804,-0.88722 v -1.70689 q 0,-0.52244 -0.364804,-0.88273 -0.360292,-0.36029 -0.878213,-0.36029 -0.522432,0 -0.887225,0.36479 -0.360293,0.3603 -0.360293,0.87823 z" />
    <path
       inkscape:connector-curvature="0"
       id="path4599"
       style="font-style:normal;font-variant:normal;font-weight:normal;font-stretch:normal;font-size:medium;line-height:1.25;font-family:Variable;-inkscape-font-specification:Variable;letter-spacing:0px;word-spacing:0px;fill:#555555;fill-opacity:1;stroke:none;stroke-width:0.23058856"
       d="m 99.917352,288.69966 q -0.108083,-0.10809 -0.108083,-0.26122 0,-0.15312 0.108083,-0.26122 0.108088,-0.10808 0.261218,-0.10808 0.15312,0 0.26121,0.10808 0.10809,0.1081 0.10809,0.26122 0,0.15313 -0.10809,0.26122 -0.10809,0.10809 -0.26121,0.10809 -0.15313,0 -0.261218,-0.10809 z m -0.01802,6.17905 v -4.56673 q 0,-0.13061 0.08105,-0.20267 0.08558,-0.0766 0.198158,-0.0766 0.11259,0 0.19366,0.0766 0.081,0.0721 0.081,0.20267 v 4.56673 q 0,0.1306 -0.081,0.20266 -0.081,0.0721 -0.19366,0.0721 -0.11259,0 -0.198158,-0.0721 -0.08105,-0.0721 -0.08105,-0.20266 z" />
    <path
       inkscape:connector-curvature="0"
       id="path4601"
       style="font-style:normal;font-variant:normal;font-weight:normal;font-stretch:normal;font-size:medium;line-height:1.25;font-family:Variable;-inkscape-font-specification:Variable;letter-spacing:0px;word-spacing:0px;fill:#555555;fill-opacity:1;stroke:none;stroke-width:0.23058856"
       d="m 101.73684,293.70325 v -5.46747 q 0,-0.13061 0.0811,-0.20267 0.0856,-0.0721 0.19816,-0.0721 0.11259,0 0.19365,0.0721 0.0811,0.0721 0.0811,0.20267 v 5.46747 q 0,0.31075 0.11259,0.608 0.1171,0.29273 0.3603,0.40083 0.17565,0.0765 0.17565,0.25671 0,0.10808 -0.0811,0.18915 -0.0765,0.0856 -0.18915,0.0856 -0.0721,0 -0.1081,-0.018 -0.0585,-0.018 -0.14861,-0.0811 -0.33778,-0.21618 -0.50892,-0.60349 -0.16664,-0.39182 -0.16664,-0.83768 z" />
    <path
       inkscape:connector-curvature="0"
       id="path4603"
       style="font-style:normal;font-variant:normal;font-weight:normal;font-stretch:normal;font-size:medium;line-height:1.25;font-family:Variable;-inkscape-font-specification:Variable;letter-spacing:0px;word-spacing:0px;fill:#555555;fill-opacity:1;stroke:none;stroke-width:0.23058856"
       d="m 103.77251,288.69966 q -0.1081,-0.10809 -0.1081,-0.26122 0,-0.15312 0.1081,-0.26122 0.10808,-0.10808 0.26121,-0.10808 0.15313,0 0.26121,0.10808 0.10809,0.1081 0.10809,0.26122 0,0.15313 -0.10809,0.26122 -0.10808,0.10809 -0.26121,0.10809 -0.15313,0 -0.26121,-0.10809 z m -0.018,6.17905 v -4.56673 q 0,-0.13061 0.081,-0.20267 0.0856,-0.0766 0.19817,-0.0766 0.11259,0 0.19365,0.0766 0.0811,0.0721 0.0811,0.20267 v 4.56673 q 0,0.1306 -0.0811,0.20266 -0.0811,0.0721 -0.19365,0.0721 -0.1126,0 -0.19817,-0.0721 -0.081,-0.0721 -0.081,-0.20266 z" />
    <path
       inkscape:connector-curvature="0"
       id="path4605"
       style="font-style:normal;font-variant:normal;font-weight:normal;font-stretch:normal;font-size:medium;line-height:1.25;font-family:Variable;-inkscape-font-specification:Variable;letter-spacing:0px;word-spacing:0px;fill:#555555;fill-opacity:1;stroke:none;stroke-width:0.23058856"
       d="m 105.1101,290.50563 q -0.0721,-0.0811 -0.0721,-0.19365 0,-0.1126 0.0721,-0.19367 0.0766,-0.0856 0.20717,-0.0856 h 0.83769 v -1.17096 q 0,-0.1306 0.081,-0.20266 0.0856,-0.0721 0.19816,-0.0721 0.1126,0 0.19367,0.0721 0.081,0.0721 0.081,0.20266 v 1.17096 h 1.63485 q 0.1306,0 0.20266,0.0856 0.0721,0.0811 0.0721,0.19367 0,0.11259 -0.0721,0.19365 -0.0721,0.0811 -0.20266,0.0811 h -1.63485 v 3.35975 q 0,0.31525 0.22969,0.53143 0.2342,0.21617 0.62151,0.21617 0.22068,0 0.39633,-0.0811 0.17564,-0.0856 0.29274,-0.16664 0.12159,-0.0856 0.20266,-0.0856 0.10809,0 0.18915,0.0856 0.081,0.0856 0.081,0.19817 0,0.12159 -0.18465,0.27022 -0.44586,0.32877 -0.9773,0.32877 -0.608,0 -1.00883,-0.3693 -0.39631,-0.37381 -0.39631,-0.92776 v -3.35975 h -0.83769 q -0.13061,0 -0.20718,-0.081 z" />
    <path
       inkscape:connector-curvature="0"
       id="path4607"
       style="font-style:normal;font-variant:normal;font-weight:normal;font-stretch:normal;font-size:medium;line-height:1.25;font-family:Variable;-inkscape-font-specification:Variable;letter-spacing:0px;word-spacing:0px;fill:#555555;fill-opacity:1;stroke:none;stroke-width:0.23058856"
       d="m 109.16792,290.30297 q 0,-0.1171 0.0856,-0.19366 0.0901,-0.0766 0.20266,-0.0766 0.18015,0 0.25671,0.18465 l 1.37362,3.83715 1.43217,-3.83715 q 0.063,-0.18465 0.24771,-0.18465 0.1171,0 0.20717,0.0766 0.0901,0.0721 0.0901,0.19366 0,0.045 -0.027,0.0991 l -2.39147,6.41325 q -0.063,0.18465 -0.24769,0.18465 -0.1126,0 -0.20267,-0.0766 -0.0856,-0.0765 -0.0856,-0.19365 0,-0.027 0.018,-0.0991 l 0.65754,-1.77445 -1.59431,-4.45415 q -0.0226,-0.0901 -0.0226,-0.0991 z" />
    <path
       inkscape:connector-curvature="0"
       id="path4609"
       style="font-style:normal;font-variant:normal;font-weight:normal;font-stretch:normal;font-size:medium;line-height:1.25;font-family:Variable;-inkscape-font-specification:Variable;letter-spacing:0px;word-spacing:0px;fill:#555555;fill-opacity:1;stroke:none;stroke-width:0.23058856"
       d="m 116.29725,294.87871 v -6.64293 q 0,-0.11259 0.081,-0.19366 0.0811,-0.0811 0.19365,-0.0811 h 3.45883 q 0.1306,0 0.20266,0.0811 0.0765,0.0811 0.0765,0.19366 0,0.11259 -0.0765,0.19365 -0.0721,0.081 -0.20266,0.081 h -3.1796 v 2.60313 h 2.90488 q 0.1306,0 0.20266,0.0811 0.0721,0.0811 0.0721,0.19365 0,0.11259 -0.0721,0.19816 -0.0721,0.0811 -0.20266,0.0811 h -2.90488 v 2.9319 h 3.1796 q 0.1306,0 0.20266,0.0856 0.0765,0.0811 0.0765,0.19365 0,0.1126 -0.0765,0.19367 -0.0721,0.0811 -0.20266,0.0811 h -3.45883 q -0.11259,0 -0.19365,-0.0811 -0.081,-0.0811 -0.081,-0.19367 z" />
    <path
       inkscape:connector-curvature="0"
       id="path4611"
       style="font-style:normal;font-variant:normal;font-weight:normal;font-stretch:normal;font-size:medium;line-height:1.25;font-family:Variable;-inkscape-font-specification:Variable;letter-spacing:0px;word-spacing:0px;fill:#555555;fill-opacity:1;stroke:none;stroke-width:0.23058856"
       d="m 121.1342,294.88772 q 0,-0.0811 0.045,-0.15763 l 1.41416,-2.18879 -1.3511,-2.08071 q -0.045,-0.0765 -0.045,-0.15762 0,-0.10809 0.0901,-0.18916 0.0901,-0.0811 0.19816,-0.0811 0.13961,0 0.22969,0.13061 l 1.20698,1.87353 1.19799,-1.87353 q 0.0901,-0.13061 0.23418,-0.13061 0.1126,0 0.19817,0.0811 0.0856,0.0811 0.0856,0.18916 0,0.081 -0.045,0.15762 l -1.34659,2.08071 1.40964,2.18879 q 0.045,0.0765 0.045,0.15763 0,0.10809 -0.0856,0.18915 -0.0856,0.0765 -0.19816,0.0765 -0.13962,0 -0.22969,-0.13062 l -1.26554,-1.97261 -1.27004,1.97261 q -0.0901,0.13062 -0.23418,0.13062 -0.1081,0 -0.19817,-0.0765 -0.0856,-0.0811 -0.0856,-0.18915 z" />
    <path
       inkscape:connector-curvature="0"
       id="path4613"
       style="font-style:normal;font-variant:normal;font-weight:normal;font-stretch:normal;font-size:medium;line-height:1.25;font-family:Variable;-inkscape-font-specification:Variable;letter-spacing:0px;word-spacing:0px;fill:#555555;fill-opacity:1;stroke:none;stroke-width:0.23058856"
       d="m 125.71445,296.72071 v -4.98106 q 0,-0.74762 0.52692,-1.27004 0.52694,-0.52694 1.27456,-0.52694 0.7476,0 1.27003,0.52694 0.52693,0.52242 0.52693,1.27004 v 1.70689 q 0,0.74761 -0.52693,1.27454 -0.52243,0.52243 -1.27003,0.52243 -0.71159,0 -1.24753,-0.58098 v 2.05818 q 0,0.13061 -0.0811,0.20267 -0.081,0.0766 -0.19366,0.0766 -0.1126,0 -0.19817,-0.0766 -0.081,-0.0721 -0.081,-0.20267 z m 0.55395,-3.27417 q 0,0.51792 0.3648,0.88272 0.36479,0.36479 0.88273,0.36479 0.51792,0 0.87821,-0.36029 0.36479,-0.36479 0.36479,-0.88722 v -1.70689 q 0,-0.52244 -0.36479,-0.88273 -0.36029,-0.36029 -0.87821,-0.36029 -0.52244,0 -0.88724,0.36479 -0.36029,0.3603 -0.36029,0.87823 z" />
    <path
       inkscape:connector-curvature="0"
       id="path4615"
       style="font-style:normal;font-variant:normal;font-weight:normal;font-stretch:normal;font-size:medium;line-height:1.25;font-family:Variable;-inkscape-font-specification:Variable;letter-spacing:0px;word-spacing:0px;fill:#555555;fill-opacity:1;stroke:none;stroke-width:0.23058856"
       d="m 130.56041,293.70325 v -5.46747 q 0,-0.13061 0.081,-0.20267 0.0856,-0.0721 0.19817,-0.0721 0.11259,0 0.19365,0.0721 0.0811,0.0721 0.0811,0.20267 v 5.46747 q 0,0.31075 0.11259,0.608 0.1171,0.29273 0.36029,0.40083 0.17566,0.0765 0.17566,0.25671 0,0.10808 -0.081,0.18915 -0.0765,0.0856 -0.18915,0.0856 -0.0721,0 -0.1081,-0.018 -0.0585,-0.018 -0.14862,-0.0811 -0.33778,-0.21618 -0.50892,-0.60349 -0.16664,-0.39182 -0.16664,-0.83768 z" />
    <path
       inkscape:connector-curvature="0"
       id="path4617"
       style="font-style:normal;font-variant:normal;font-weight:normal;font-stretch:normal;font-size:medium;line-height:1.25;font-family:Variable;-inkscape-font-specification:Variable;letter-spacing:0px;word-spacing:0px;fill:#555555;fill-opacity:1;stroke:none;stroke-width:0.23058856"
       d="m 132.53302,293.44654 v -1.70689 q 0,-0.74762 0.52243,-1.27004 0.52693,-0.52694 1.27454,-0.52694 0.74762,0 1.27454,0.52694 0.52693,0.52242 0.52693,1.27004 v 1.70689 q 0,0.74761 -0.52693,1.27454 -0.52692,0.52243 -1.27454,0.52243 -0.74761,0 -1.27454,-0.52243 -0.52243,-0.52693 -0.52243,-1.27454 z m 0.55395,0 q 0,0.52243 0.3603,0.88722 0.3648,0.36029 0.88272,0.36029 0.52243,0 0.88273,-0.36479 0.36479,-0.3648 0.36479,-0.88272 v -1.70689 q 0,-0.51793 -0.36479,-0.87823 -0.3603,-0.36479 -0.88273,-0.36479 -0.52242,0 -0.88272,0.36029 -0.3603,0.36029 -0.3603,0.88273 z" />
    <path
       inkscape:connector-curvature="0"
       id="path4619"
       style="font-style:normal;font-variant:normal;font-weight:normal;font-stretch:normal;font-size:medium;line-height:1.25;font-family:Variable;-inkscape-font-specification:Variable;letter-spacing:0px;word-spacing:0px;fill:#555555;fill-opacity:1;stroke:none;stroke-width:0.23058856"
       d="m 137.36998,294.87871 v -3.07152 q 0,-0.80615 0.42334,-1.33308 0.42335,-0.53144 1.19348,-0.53144 0.29725,0 0.62151,0.12161 0.32426,0.12159 0.52243,0.32877 0.0901,0.0901 0.0901,0.19365 0,0.11259 -0.0856,0.19816 -0.0811,0.0811 -0.19816,0.0811 -0.0945,0 -0.19366,-0.0856 -0.0225,-0.018 -0.0495,-0.036 -0.30625,-0.2477 -0.70708,-0.2477 -0.4999,0 -0.78364,0.34678 -0.27922,0.34228 -0.27922,0.96378 v 3.07151 q 0,0.13061 -0.0811,0.20267 -0.0811,0.0721 -0.19366,0.0721 -0.1126,0 -0.19817,-0.0721 -0.081,-0.0721 -0.081,-0.20267 z" />
    <path
       inkscape:connector-curvature="0"
       id="path4621"
       style="font-style:normal;font-variant:normal;font-weight:normal;font-stretch:normal;font-size:medium;line-height:1.25;font-family:Variable;-inkscape-font-specification:Variable;letter-spacing:0px;word-spacing:0px;fill:#555555;fill-opacity:1;stroke:none;stroke-width:0.23058856"
       d="m 140.99995,293.44654 v -1.70689 q 0,-0.74762 0.52242,-1.27004 0.52693,-0.52694 1.27454,-0.52694 0.74762,0 1.27454,0.52694 0.52694,0.52242 0.52694,1.27004 v 0.64852 q 0,0.1126 -0.0856,0.19367 -0.0811,0.081 -0.19366,0.081 h -2.76526 v 0.78365 q 0,0.49541 0.40082,0.87371 0.40534,0.3738 0.93677,0.3738 0.69358,0 1.04036,-0.44586 0.0901,-0.11709 0.23418,-0.11709 0.1126,0 0.19817,0.0811 0.0856,0.0765 0.0856,0.18465 0,0.0945 -0.0541,0.17564 -0.25221,0.32877 -0.65754,0.49991 -0.40082,0.17114 -0.84669,0.17114 -0.48189,0 -0.91875,-0.2342 -0.43236,-0.23419 -0.70258,-0.65303 -0.27021,-0.41885 -0.27021,-0.90974 z m 0.55395,-1.3376 h 2.49053 v -0.36929 q 0,-0.51793 -0.36479,-0.87823 -0.3603,-0.36479 -0.88273,-0.36479 -0.52242,0 -0.88271,0.36029 -0.3603,0.36029 -0.3603,0.88273 z" />
    <path
       inkscape:connector-curvature="0"
       id="path4623"
       style="font-style:normal;font-variant:normal;font-weight:normal;font-stretch:normal;font-size:medium;line-height:1.25;font-family:Variable;-inkscape-font-specification:Variable;letter-spacing:0px;word-spacing:0px;fill:#555555;fill-opacity:1;stroke:none;stroke-width:0.23058856"
       d="m 145.80087,294.87871 v -3.07152 q 0,-0.80615 0.42335,-1.33308 0.42335,-0.53144 1.19348,-0.53144 0.29723,0 0.6215,0.12161 0.32427,0.12159 0.52243,0.32877 0.0901,0.0901 0.0901,0.19365 0,0.11259 -0.0856,0.19816 -0.0811,0.0811 -0.19817,0.0811 -0.0945,0 -0.19366,-0.0856 -0.0225,-0.018 -0.0495,-0.036 -0.30624,-0.2477 -0.70707,-0.2477 -0.49991,0 -0.78364,0.34678 -0.27923,0.34228 -0.27923,0.96378 v 3.07151 q 0,0.13061 -0.0811,0.20267 -0.0811,0.0721 -0.19366,0.0721 -0.11259,0 -0.19816,-0.0721 -0.0811,-0.0721 -0.0811,-0.20267 z" />
    <path
       style="font-style:normal;font-variant:normal;font-weight:normal;font-stretch:normal;font-size:medium;line-height:1.25;font-family:Variable;-inkscape-font-specification:Variable;letter-spacing:0px;word-spacing:0px;fill:#20bab0;fill-opacity:1;stroke:none;stroke-width:0.59178942"
       d="m 24.243875,276.61085 c -0.299058,10e-4 -0.621619,0.0677 -0.894813,0.0111 -2.701693,2.8e-4 -5.403397,-0.001 -8.105069,8.4e-4 -0.681852,0.0743 -0.450659,0.95198 -0.47706,1.40531 0.01433,5.43198 -0.02856,10.86938 0.02119,16.29802 0.274079,0.65016 1.159976,0.24432 1.683483,0.35653 2.624439,-0.0211 5.257288,0.0408 7.876857,-0.0286 0.567594,-0.19473 0.297067,-1.14409 -0.301903,-0.99494 h -8.256121 v -7.92273 c 2.616502,-0.0208 5.241289,0.0404 7.852932,-0.0286 0.550963,-0.20188 0.296297,-1.14975 -0.301893,-0.99494 h -7.551039 v -7.07885 h 8.2987 c 1.902568,5.71601 3.747769,11.45643 5.68558,17.15746 0.282954,0.45959 0.862406,0.0464 0.877721,-0.38335 1.890276,-5.76996 3.831229,-11.52802 5.690047,-17.30539 -0.0095,-0.58592 -1.017744,-0.66221 -1.042956,-0.0218 -1.724387,5.21288 -3.448827,10.42573 -5.173139,15.63861 -1.761023,-5.29929 -3.466007,-10.62242 -5.261409,-15.90708 -0.170108,-0.16502 -0.388496,-0.20281 -0.621113,-0.20159 z m 30.204159,0.006 v 1.9e-4 c -0.01665,0 -0.03362,0.001 -0.05112,0.003 -3.125938,0.008 -6.25131,10e-4 -9.376447,-0.001 v 14.57935 c 0.0042,1.04225 0.0095,2.0844 0.01843,3.12612 0.274585,0.65207 1.160007,0.24311 1.683504,0.35634 2.62444,-0.0211 5.257266,0.0409 7.876836,-0.0286 0.03352,-0.0115 0.06376,-0.0256 0.09159,-0.042 0.29323,-0.17281 0.272405,-0.59647 0.06081,-0.82192 -0.01528,-0.0163 -0.03267,-0.0304 -0.04996,-0.0445 -0.104025,-0.0847 -0.241312,-0.12712 -0.404334,-0.0865 h -8.2561 v -7.9227 c 2.617196,-0.0215 5.243163,0.0417 7.855272,-0.0296 0.06693,-0.025 0.121593,-0.061 0.165416,-0.10476 0.222659,-0.22227 0.157987,-0.64289 -0.08516,-0.82192 -0.100441,-0.0739 -0.230815,-0.10727 -0.384524,-0.0674 h -7.551018 v -7.07885 c 2.851554,-0.0205 5.711298,0.0401 8.558025,-0.0286 0.04521,-0.0145 0.08337,-0.0362 0.118391,-0.0606 0.35107,-0.24586 0.20027,-0.93247 -0.269633,-0.92611 z m -52.5495356,0.004 c -0.027824,-0.001 -0.055648,-3e-5 -0.083051,0.003 -0.6765932,0.0772 -0.4049905,0.96167 -0.450226,1.40298 0.015177,5.44141 -0.029932,10.88801 0.022133,16.32621 0.1714249,0.57635 1.1559082,0.32486 1.0015363,-0.28031 v -8.62588 h 9.2979073 c 0.02118,2.97552 -0.04142,5.95968 0.02962,8.9301 0.198585,0.55039 1.144315,0.28763 0.994149,-0.30422 -0.01539,-5.70562 0.03067,-11.41681 -0.02277,-17.11898 -0.179296,-0.57309 -1.159027,-0.33825 -1.000956,0.27683 v 7.19276 H 2.3889325 c -0.022028,-2.49633 0.043001,-5.00212 -0.030354,-7.49292 -0.068717,-0.18623 -0.2653949,-0.30177 -0.4601437,-0.30987 z m 52.9085836,0.18195 c -0.0012,-0.002 -8.36e-4,-10e-4 0.0063,0.008 -0.0012,-10e-4 -0.0053,-0.006 -0.0063,-0.008 z m 0.05407,0.0819 c -0.0012,-0.002 -2.73e-4,-0.002 0.0053,0.009 -0.0012,-0.001 -0.0042,-0.006 -0.0053,-0.009 z m 0.01983,0.0422 c -2.73e-4,-0.002 1.81e-4,-8.3e-4 0.0042,0.009 -0.0012,-0.002 -0.0032,-0.007 -0.0042,-0.009 z m 0.0084,0.0221 c -2.74e-4,-0.002 0,-0.001 0.0032,0.009 -0.0012,-0.002 -0.0022,-0.007 -0.0032,-0.009 z m 0.0074,0.0228 c -2.76e-4,-0.002 -1.7e-4,-10e-4 0.0022,0.009 -8.36e-4,-10e-4 -0.0022,-0.007 -0.0022,-0.009 z m 0.0157,0.0716 c -8.3e-5,-0.002 2.42e-4,-0.001 0.0012,0.0105 -8.37e-4,-0.003 -0.0012,-0.008 -0.0012,-0.0105 z m -9.892356,0.0307 c 2.65e-4,-0.004 8.36e-4,-0.007 0,0.003 -8.37e-4,0.006 -2.79e-4,8.4e-4 0,-0.003 z m -0.0012,0.0247 c -0.0012,0.024 2.01e-4,-0.0122 0,0 z m 9.895276,0.10286 c 2.79e-4,-0.002 2.79e-4,-10e-4 -0.0012,0.0105 -9.5e-5,-0.002 8.36e-4,-0.008 0.0012,-0.0105 z m -0.01445,0.0727 c 8.36e-4,-0.002 2.79e-4,-2.7e-4 -0.0022,0.009 8.37e-4,-0.002 0.0022,-0.007 0.0022,-0.009 z m -0.0063,0.0228 c 8.36e-4,-0.002 8.36e-4,-0.001 -0.0032,0.009 2.78e-4,-0.002 0.0022,-0.007 0.0032,-0.009 z m -0.0074,0.0218 c 0.0012,-0.002 0.0012,-10e-4 -0.0042,0.009 4.2e-5,-0.001 0.0022,-0.007 0.0042,-0.009 z m -0.212445,0.25446 c 0.0022,-10e-4 0.0022,-2.7e-4 -0.01107,0.006 0.0022,-0.001 0.0084,-0.005 0.01107,-0.006 z m -0.234051,0.0596 c -0.01908,0.001 -0.0042,-2.7e-4 0,0 z m -0.425541,7.17003 c -0.0022,-0.002 -8.37e-4,-10e-4 0.0095,0.007 -0.0022,-10e-4 -0.0074,-0.006 -0.0095,-0.007 z m 0.134325,0.16778 c -8.36e-4,-0.002 3.1e-5,-8.4e-4 0.0042,0.009 -0.0012,-0.002 -0.0042,-0.007 -0.0042,-0.009 z m 0.02699,0.0661 c -2.73e-4,-0.002 6.4e-5,-8.4e-4 0.0032,0.009 -0.0012,-0.002 -0.0022,-0.007 -0.0032,-0.009 z m 0.01801,0.0718 c -2.73e-4,-0.002 6.4e-5,-0.002 0.0022,0.009 -8.36e-4,-10e-4 -0.0012,-0.007 -0.0022,-0.009 z m 0.0042,0.0245 c -8.4e-5,-0.002 2.31e-4,-0.001 0.0012,0.009 -2.73e-4,-0.002 -0.0012,-0.007 -0.0012,-0.009 z m -11.442525,0.0142 c -0.03425,0.001 -0.06988,0.007 -0.106724,0.0163 -1.710696,2.8e-4 -3.421435,-10e-4 -5.13213,8.3e-4 v 1.9e-4 c -0.660142,-0.0336 -0.617773,1.10225 0.03773,1.02274 1.804645,-0.0307 3.623688,0.0577 5.420616,-0.0375 0.505569,-0.21139 0.294655,-1.0252 -0.219474,-1.00231 z m 11.445232,0.008 c 4.5e-5,-0.002 2.12e-4,-0.001 8.37e-4,0.0118 -2.74e-4,-0.003 -8.37e-4,-0.009 -8.37e-4,-0.0118 z m 0.0022,0.0548 c 2.79e-4,-0.004 8.37e-4,-0.002 0,0.0163 -8.36e-4,-0.004 -2.73e-4,-0.0128 0,-0.0163 z m -0.0022,0.0593 c 2.77e-4,-0.003 8.37e-4,-10e-4 -8.36e-4,0.0118 -2.73e-4,-0.002 1.59e-4,-0.009 8.36e-4,-0.0118 z m -0.0022,0.0256 c 2.73e-4,-0.002 2.73e-4,-10e-4 -0.0012,0.009 -3.4e-5,-0.002 8.36e-4,-0.007 0.0012,-0.009 z m -0.174957,0.34253 c 0.0022,-10e-4 0.0012,-2.7e-4 -0.0095,0.007 0.0022,-0.002 0.0074,-0.006 0.0095,-0.007 z m -0.03657,0.0267 c 0.0022,-10e-4 8.36e-4,-1.6e-4 -0.0095,0.005 0.0022,-0.002 0.0074,-0.004 0.0095,-0.005 z m -0.0193,0.0115 c 0.0022,-10e-4 0.0012,-2.8e-4 -0.01054,0.005 0.0022,-10e-4 0.0074,-0.004 0.01054,-0.005 z m -0.02067,0.0106 c 0.0022,-0.001 0.0012,-2.3e-4 -0.01054,0.005 0.0022,-0.001 0.0074,-0.004 0.01054,-0.005 z m -0.02097,0.009 c 0.0022,-8.5e-4 0.0012,-1.1e-4 -0.01096,0.004 0.0022,-10e-4 0.0084,-0.003 0.01096,-0.004 z m -0.191881,0.0391 c -0.01908,0.001 -0.0042,-2.9e-4 0,0 z m 0.980942,8.01818 c -0.0022,-0.002 -8.37e-4,-0.001 0.0095,0.007 -0.0022,-0.001 -0.0074,-0.006 -0.0095,-0.007 z m 0.01749,0.015 c -0.0012,-0.002 -2.76e-4,-8.5e-4 0.0084,0.008 -0.0022,-0.002 -0.0074,-0.006 -0.0084,-0.008 z m 0.07578,0.0831 c -0.0012,-0.002 -8.37e-4,-0.001 0.0063,0.007 -0.0012,-0.001 -0.0053,-0.005 -0.0063,-0.007 z m 0.04237,0.0608 c -0.0012,-0.002 -8.37e-4,-0.002 0.0053,0.008 -0.0012,-8.5e-4 -0.0042,-0.006 -0.0053,-0.008 z m 0.01169,0.0208 c -8.37e-4,-0.002 -2.4e-4,-10e-4 0.0042,0.008 -0.0012,-0.002 -0.0042,-0.006 -0.0042,-0.008 z m 0.02814,0.0642 c -8.36e-4,-0.002 -1.58e-4,-0.001 0.0032,0.009 -0.0012,-0.002 -0.0022,-0.007 -0.0032,-0.009 z m 0.0074,0.0228 c -2.73e-4,-0.002 -1.67e-4,-10e-4 0.0022,0.009 -8.37e-4,-10e-4 -0.0022,-0.007 -0.0022,-0.009 z m 0.0157,0.0716 c -9.5e-5,-0.002 2.32e-4,-0.001 0.0012,0.0105 -8.36e-4,-0.002 -0.0012,-0.008 -0.0012,-0.0105 z m -9.894327,0.10888 c -1.99e-4,-0.004 -2.74e-4,-0.007 2.78e-4,0.004 1.06e-4,0.006 -1.78e-4,5e-5 -2.78e-4,-0.004 z m 0.0022,0.0258 c 0.0012,0.021 -0.0012,-0.0121 0,0 z m 9.893737,0.0235 c 2.79e-4,-0.002 2.79e-4,-10e-4 -0.0012,0.0105 -1.05e-4,-0.002 8.37e-4,-0.008 0.0012,-0.0105 z m -9.890817,0.003 c -8.36e-4,-0.004 -0.0012,-0.008 2.79e-4,10e-4 8.36e-4,0.007 2.01e-4,0.003 -2.79e-4,-10e-4 z m 0.0042,0.0233 c 0.0042,0.0206 -0.0032,-0.0136 0,0 z m 9.872552,0.0461 c 8.36e-4,-0.002 2e-4,-2.7e-4 -0.0032,0.009 8.37e-4,-0.002 0.0022,-0.007 0.0032,-0.009 z m -0.0074,0.0228 c 8.36e-4,-0.002 2.76e-4,-0.001 -0.0032,0.009 2.74e-4,-0.002 0.0022,-0.007 0.0032,-0.009 z m -9.846889,8.3e-4 c 0.0053,0.015 -0.0053,-0.0141 0,0 z m 0.0084,0.021 c 0.0084,0.0219 -0.0063,-0.0155 0,0 z m 0.0095,0.0216 c 0.0084,0.0181 -0.0084,-0.0164 0,0 z m 0.08316,0.12208 c 0.0155,0.0175 -0.0084,-0.009 0,0 z m 0.0391,0.0396 c -0.0032,-0.003 -0.0053,-0.005 0.0032,0.002 0.0042,0.004 2e-4,2.9e-4 -0.0032,-0.002 z m 9.485881,0.0716 c 0.0022,-10e-4 0.0012,-2.7e-4 -0.01054,0.005 0.0022,-10e-4 0.0074,-0.004 0.01054,-0.005 z m -0.02077,0.0106 c 0.0022,-10e-4 0.0022,-2.5e-4 -0.01054,0.005 0.0022,-10e-4 0.0074,-0.004 0.01054,-0.005 z m -9.340487,0.003 c -0.0042,-0.002 -0.0084,-0.004 8.37e-4,0 0.0084,0.004 0.0032,0.002 -8.37e-4,0 z m 9.319495,0.006 c 0.0022,-8.3e-4 0.0012,-9e-5 -0.01066,0.004 0.0022,-10e-4 0.0084,-0.003 0.01066,-0.004 z m -9.299648,0.003 c -0.0053,-0.002 -0.0084,-0.004 0.0022,8.5e-4 0.0074,0.003 0.0022,10e-4 -0.0022,-8.5e-4 z m 0.02318,0.008 c 0,0 1.89e-4,0 1.89e-4,0 0,0 -1.89e-4,0 -1.89e-4,0 z m 0.06724,0.0184 c -0.0042,-8.3e-4 -0.0074,-10e-4 0.0022,2.8e-4 0.0063,10e-4 0.0022,2.8e-4 -0.0022,-2.8e-4 z m 0.02487,0.004 c 0.01801,0.003 -0.01528,-0.002 0,0 z m 0.02445,0.003 c -0.0042,-2.8e-4 -0.0074,-8.4e-4 0.0032,0 0.0063,8.4e-4 8.37e-4,2.8e-4 -0.0032,0 z"
       id="path4607-4-9-6-5-9"
       inkscape:connector-curvature="0" />
  </g>
</svg>
