<?xml version="1.0" encoding="UTF-8" standalone="no"?>
<!-- Created with Inkscape (http://www.inkscape.org/) -->

<svg
   xmlns:dc="http://purl.org/dc/elements/1.1/"
   xmlns:cc="http://creativecommons.org/ns#"
   xmlns:rdf="http://www.w3.org/1999/02/22-rdf-syntax-ns#"
   xmlns:svg="http://www.w3.org/2000/svg"
   xmlns="http://www.w3.org/2000/svg"
   xmlns:sodipodi="http://sodipodi.sourceforge.net/DTD/sodipodi-0.dtd"
   xmlns:inkscape="http://www.inkscape.org/namespaces/inkscape"
   width="755"
   height="78"
   viewBox="0 0 199.76042 20.637499"
   version="1.1"
   id="svg8"
   inkscape:version="0.92.1 r15371"
   sodipodi:docname="hev-e-extended-logo-inverse.svg">
  <defs
     id="defs2">
    <clipPath
       id="clipPath174">
      <path
         id="path176"
         d="m 35.975,463.833 h 139.774 v 96.009 H 35.975 Z"
         inkscape:connector-curvature="0" />
    </clipPath>
  </defs>
  <sodipodi:namedview
     id="base"
     pagecolor="#ffffff"
     bordercolor="#666666"
     borderopacity="1.0"
     inkscape:pageopacity="0.0"
     inkscape:pageshadow="2"
     inkscape:zoom="0.98994949"
     inkscape:cx="283.8989"
     inkscape:cy="7.1036933"
     inkscape:document-units="mm"
     inkscape:current-layer="layer1"
     showgrid="false"
     units="px"
     inkscape:window-width="1920"
     inkscape:window-height="1017"
     inkscape:window-x="-8"
     inkscape:window-y="-8"
     inkscape:window-maximized="1" />
  <metadata
     id="metadata5">
    <rdf:RDF>
      <cc:Work
         rdf:about="">
        <dc:format>image/svg+xml</dc:format>
        <dc:type
           rdf:resource="http://purl.org/dc/dcmitype/StillImage" />
        <dc:title />
      </cc:Work>
    </rdf:RDF>
  </metadata>
  <g
     inkscape:label="Livello 1"
     inkscape:groupmode="layer"
     id="layer1"
     transform="translate(0,-276.3625)">
    <path
       inkscape:connector-curvature="0"
       id="path5547-2"
       style="font-style:normal;font-variant:normal;font-weight:normal;font-stretch:normal;font-size:medium;line-height:1.25;font-family:Variable;-inkscape-font-specification:Variable;letter-spacing:0px;word-spacing:0px;fill:#ffffff;fill-opacity:1;stroke:none;stroke-width:0.23058397"
       d="m 64.536778,283.28002 v -6.6428 q 0,-0.13061 0.08107,-0.20266 0.08107,-0.0721 0.193654,-0.0721 0.112589,0 0.193654,0.0721 0.08557,0.0721 0.08557,0.20266 v 2.76521 h 3.467769 v -2.76521 q 0,-0.13061 0.08107,-0.20266 0.08107,-0.0721 0.193655,-0.0721 0.112589,0 0.193651,0.0721 0.08557,0.0721 0.08557,0.20266 v 6.6428 q 0,0.13061 -0.08557,0.20266 -0.08107,0.0721 -0.193651,0.0721 -0.112592,0 -0.193655,-0.0721 -0.08107,-0.0721 -0.08107,-0.20266 v -3.32365 h -3.467769 v 3.32365 q 0,0.13061 -0.08557,0.20266 -0.08107,0.0721 -0.193654,0.0721 -0.112592,0 -0.193654,-0.0721 -0.08107,-0.0721 -0.08107,-0.20266 z" />
    <path
       inkscape:connector-curvature="0"
       id="path5549-0"
       style="font-style:normal;font-variant:normal;font-weight:normal;font-stretch:normal;font-size:medium;line-height:1.25;font-family:Variable;-inkscape-font-specification:Variable;letter-spacing:0px;word-spacing:0px;fill:#ffffff;fill-opacity:1;stroke:none;stroke-width:0.23058397"
       d="m 70.310383,282.16313 q 0,-0.33327 0.130605,-0.60348 0.135107,-0.27022 0.364791,-0.45036 0.234183,-0.18465 0.508904,-0.30625 0.279224,-0.12159 0.612491,-0.18915 l 1.179942,-0.2522 v -0.43234 q 0,-0.47738 -0.279226,-0.7521 -0.274719,-0.27923 -0.819655,-0.27923 -0.441349,0 -0.774617,0.25671 -0.05855,0.0495 -0.139611,0.13961 -0.08107,0.0856 -0.139611,0.1216 -0.05855,0.036 -0.144113,0.036 -0.108089,0 -0.189151,-0.0766 -0.07656,-0.0766 -0.07656,-0.19365 0,-0.1216 0.1261,-0.26571 0.243195,-0.27923 0.594476,-0.42334 0.351277,-0.14862 0.74309,-0.14862 0.76561,0 1.206964,0.44135 0.445854,0.43685 0.445854,1.14392 v 2.13019 q 0,0.69356 -0.49089,1.13942 -0.490891,0.44585 -1.179942,0.44585 -0.45036,0 -0.828658,-0.16213 -0.373807,-0.16663 -0.612495,-0.50891 -0.238691,-0.34677 -0.238691,-0.81064 z m 0.553939,-0.009 q 0,0.42784 0.301745,0.68455 0.306241,0.2567 0.815148,0.2567 0.486388,0 0.806144,-0.29273 0.319757,-0.29724 0.319757,-0.74309 v -1.14392 l -1.188949,0.26121 q -0.481887,0.10358 -0.770117,0.3693 -0.283728,0.26121 -0.283728,0.60798 z" />
    <path
       inkscape:connector-curvature="0"
       id="path5551-8"
       style="font-style:normal;font-variant:normal;font-weight:normal;font-stretch:normal;font-size:medium;line-height:1.25;font-family:Variable;-inkscape-font-specification:Variable;letter-spacing:0px;word-spacing:0px;fill:#ffffff;fill-opacity:1;stroke:none;stroke-width:0.23058397"
       d="m 74.57078,283.32505 q 0,-0.10358 0.06306,-0.19365 l 2.648113,-4.14331 H 75.07519 q -0.130602,0 -0.202661,-0.0811 -0.07206,-0.0811 -0.07206,-0.19366 0,-0.11259 0.07206,-0.19365 0.07206,-0.0856 0.202661,-0.0856 h 2.711165 q 0.135106,0 0.216174,0.0676 0.08107,0.0675 0.08107,0.16663 0,0.10358 -0.06305,0.19365 l -2.648114,4.13881 h 2.454459 q 0.130603,0 0.202658,0.0856 0.07206,0.0811 0.07206,0.19366 0,0.11259 -0.07206,0.19365 -0.07206,0.0811 -0.202658,0.0811 h -2.963366 q -0.135107,0 -0.216174,-0.0631 -0.07656,-0.0675 -0.07656,-0.16663 z" />
    <path
       inkscape:connector-curvature="0"
       id="path5553-3"
       style="font-style:normal;font-variant:normal;font-weight:normal;font-stretch:normal;font-size:medium;line-height:1.25;font-family:Variable;-inkscape-font-specification:Variable;letter-spacing:0px;word-spacing:0px;fill:#ffffff;fill-opacity:1;stroke:none;stroke-width:0.23058397"
       d="m 78.921251,282.16313 q 0,-0.33327 0.130606,-0.60348 0.135106,-0.27022 0.364791,-0.45036 0.234185,-0.18465 0.508904,-0.30625 0.279223,-0.12159 0.61249,-0.18915 l 1.179942,-0.2522 v -0.43234 q 0,-0.47738 -0.279223,-0.7521 -0.274719,-0.27923 -0.819654,-0.27923 -0.441353,0 -0.774617,0.25671 -0.05855,0.0495 -0.139613,0.13961 -0.08107,0.0856 -0.139612,0.1216 -0.05855,0.036 -0.144114,0.036 -0.108085,0 -0.18915,-0.0766 -0.07656,-0.0766 -0.07656,-0.19365 0,-0.1216 0.126099,-0.26571 0.243195,-0.27923 0.594473,-0.42334 0.351281,-0.14862 0.743092,-0.14862 0.765611,0 1.206966,0.44135 0.445854,0.43685 0.445854,1.14392 v 2.13019 q 0,0.69356 -0.490891,1.13942 -0.490891,0.44585 -1.179942,0.44585 -0.45036,0 -0.828661,-0.16213 -0.373799,-0.16663 -0.612487,-0.50891 -0.238692,-0.34677 -0.238692,-0.81064 z m 0.553942,-0.009 q 0,0.42784 0.301742,0.68455 0.306244,0.2567 0.815149,0.2567 0.486389,0 0.806146,-0.29273 0.319754,-0.29724 0.319754,-0.74309 v -1.14392 l -1.188949,0.26121 q -0.481886,0.10358 -0.770116,0.3693 -0.283726,0.26121 -0.283726,0.60798 z" />
    <path
       inkscape:connector-curvature="0"
       id="path5555-9"
       style="font-style:normal;font-variant:normal;font-weight:normal;font-stretch:normal;font-size:medium;line-height:1.25;font-family:Variable;-inkscape-font-specification:Variable;letter-spacing:0px;word-spacing:0px;fill:#ffffff;fill-opacity:1;stroke:none;stroke-width:0.23058397"
       d="m 83.501406,283.28002 v -3.07145 q 0,-0.80614 0.423336,-1.33306 0.423339,-0.53143 1.193455,-0.53143 0.297234,0 0.621494,0.1216 0.32426,0.1216 0.522417,0.32876 0.09007,0.0901 0.09007,0.19365 0,0.11259 -0.08557,0.19816 -0.08107,0.0811 -0.198158,0.0811 -0.09458,0 -0.193654,-0.0856 -0.02253,-0.018 -0.04954,-0.036 -0.306244,-0.2477 -0.707065,-0.2477 -0.499897,0 -0.783626,0.34678 -0.279221,0.34227 -0.279221,0.96377 v 3.07145 q 0,0.1306 -0.08107,0.20266 -0.08107,0.0721 -0.193652,0.0721 -0.112592,0 -0.19816,-0.0721 -0.08107,-0.0721 -0.08107,-0.20266 z" />
    <path
       inkscape:connector-curvature="0"
       id="path5557-0"
       style="font-style:normal;font-variant:normal;font-weight:normal;font-stretch:normal;font-size:medium;line-height:1.25;font-family:Variable;-inkscape-font-specification:Variable;letter-spacing:0px;word-spacing:0px;fill:#ffffff;fill-opacity:1;stroke:none;stroke-width:0.23058397"
       d="m 87.131301,281.84788 v -1.70686 q 0,-0.7476 0.522417,-1.27002 0.526922,-0.52692 1.274517,-0.52692 0.711569,0 1.247494,0.58096 v -2.28782 q 0,-0.13061 0.08107,-0.20266 0.08107,-0.0721 0.193654,-0.0721 0.11259,0 0.193655,0.0721 0.08557,0.0721 0.08557,0.20266 v 5.21066 q 0,0.74759 -0.526922,1.27451 -0.526918,0.52242 -1.274518,0.52242 -0.747595,0 -1.274517,-0.52242 -0.522414,-0.52692 -0.522414,-1.27451 z m 0.553942,0 q 0,0.52241 0.360288,0.8872 0.36479,0.36029 0.882704,0.36029 0.522416,0 0.882703,-0.36479 0.364791,-0.36479 0.364791,-0.8827 v -1.70686 q 0,-0.51792 -0.364791,-0.87821 -0.360287,-0.36479 -0.882703,-0.36479 -0.522417,0 -0.882704,0.36029 -0.360288,0.36029 -0.360288,0.88271 z" />
    <path
       inkscape:connector-curvature="0"
       id="path5559-4"
       style="font-style:normal;font-variant:normal;font-weight:normal;font-stretch:normal;font-size:medium;line-height:1.25;font-family:Variable;-inkscape-font-specification:Variable;letter-spacing:0px;word-spacing:0px;fill:#ffffff;fill-opacity:1;stroke:none;stroke-width:0.23058397"
       d="m 91.837557,282.85218 q 0,-0.1171 0.08557,-0.19366 0.09007,-0.0811 0.202658,-0.0811 0.135113,0 0.220682,0.12159 l 0.045,0.045 q 0.337763,0.35128 0.905219,0.35128 0.526922,0 0.842173,-0.26121 0.319751,-0.26121 0.319751,-0.64401 0,-0.26572 -0.144114,-0.45937 -0.139614,-0.19816 -0.369296,-0.31975 -0.229683,-0.1216 -0.5044,-0.22518 -0.274717,-0.10809 -0.553944,-0.22969 -0.274717,-0.1216 -0.5044,-0.27472 -0.229682,-0.15762 -0.373795,-0.41433 -0.139613,-0.26121 -0.139613,-0.60348 0,-0.41883 0.22518,-0.72508 0.225182,-0.31074 0.553945,-0.45036 0.333262,-0.14411 0.711559,-0.14411 0.40083,0 0.80165,0.20266 0.405319,0.19816 0.612479,0.52692 0.045,0.0766 0.045,0.15312 0,0.10809 -0.09011,0.18915 -0.09011,0.0811 -0.198159,0.0811 -0.139614,0 -0.229683,-0.1306 -0.01802,-0.018 -0.045,-0.063 -0.360285,-0.40532 -0.896218,-0.40532 -0.414331,0 -0.680037,0.21617 -0.261205,0.21166 -0.261205,0.54944 0,0.22968 0.144114,0.40532 0.144114,0.17114 0.369296,0.28373 0.229683,0.11259 0.5044,0.21617 0.279217,0.10358 0.553934,0.23419 0.279228,0.1261 0.50441,0.29273 0.229683,0.16663 0.373797,0.45036 0.144114,0.27922 0.144114,0.64401 0,0.43235 -0.238694,0.77012 -0.238683,0.33776 -0.630502,0.5134 -0.387308,0.17114 -0.846673,0.17114 -0.387308,0 -0.797138,-0.16663 -0.40532,-0.17114 -0.603478,-0.46838 -0.05854,-0.0856 -0.05854,-0.15762 z" />
    <path
       inkscape:connector-curvature="0"
       id="path5561-3"
       style="font-style:normal;font-variant:normal;font-weight:normal;font-stretch:normal;font-size:medium;line-height:1.25;font-family:Variable;-inkscape-font-specification:Variable;letter-spacing:0px;word-spacing:0px;fill:#ffffff;fill-opacity:1;stroke:none;stroke-width:0.23058397"
       d="m 95.467452,284.93734 q 0,-0.11709 0.121592,-0.21167 0.03604,-0.027 0.09011,-0.0901 0.297229,-0.29274 0.454865,-0.69356 0.162126,-0.40082 0.162126,-0.83767 0,-0.1306 0.08105,-0.20266 0.08558,-0.0766 0.198149,-0.0766 0.112591,0 0.193659,0.0766 0.08105,0.0721 0.08105,0.20266 0,0.56746 -0.252205,1.15743 -0.252205,0.58997 -0.689048,0.90522 -0.07209,0.0585 -0.166636,0.0585 -0.108081,0 -0.193649,-0.0901 -0.08105,-0.0856 -0.08105,-0.19816 z" />
    <path
       inkscape:connector-curvature="0"
       id="path5563-4"
       style="font-style:normal;font-variant:normal;font-weight:normal;font-stretch:normal;font-size:medium;line-height:1.25;font-family:Variable;-inkscape-font-specification:Variable;letter-spacing:0px;word-spacing:0px;fill:#ffffff;fill-opacity:1;stroke:none;stroke-width:0.23058397"
       d="m 100.34934,283.28002 v -6.6428 q 0,-0.11259 0.0811,-0.19366 0.081,-0.0811 0.19365,-0.0811 h 3.45876 q 0.13061,0 0.20267,0.0811 0.0765,0.0811 0.0765,0.19366 0,0.11259 -0.0765,0.19366 -0.0721,0.0811 -0.20267,0.0811 h -3.17953 v 2.60308 h 2.90481 q 0.1306,0 0.20266,0.0811 0.0721,0.0811 0.0721,0.19365 0,0.11259 -0.0721,0.19816 -0.0721,0.0811 -0.20266,0.0811 h -2.90481 v 2.93184 h 3.17953 q 0.13061,0 0.20267,0.0856 0.0765,0.0811 0.0765,0.19365 0,0.11259 -0.0765,0.19365 -0.0721,0.0811 -0.20267,0.0811 h -3.45876 q -0.11258,0 -0.19365,-0.0811 -0.0811,-0.0811 -0.0811,-0.19365 z" />
    <path
       inkscape:connector-curvature="0"
       id="path5565-8"
       style="font-style:normal;font-variant:normal;font-weight:normal;font-stretch:normal;font-size:medium;line-height:1.25;font-family:Variable;-inkscape-font-specification:Variable;letter-spacing:0px;word-spacing:0px;fill:#ffffff;fill-opacity:1;stroke:none;stroke-width:0.23058397"
       d="m 105.18621,283.28902 q 0,-0.0811 0.045,-0.15762 l 1.41413,-2.18875 -1.35108,-2.08065 q -0.045,-0.0766 -0.045,-0.15763 0,-0.10809 0.0901,-0.18915 0.0901,-0.0811 0.19815,-0.0811 0.13962,0 0.22969,0.13061 l 1.20697,1.87349 1.19795,-1.87349 q 0.0901,-0.13061 0.23419,-0.13061 0.11259,0 0.19816,0.0811 0.0856,0.0811 0.0856,0.18915 0,0.0811 -0.045,0.15763 l -1.34658,2.08065 1.40963,2.18875 q 0.045,0.0766 0.045,0.15762 0,0.10809 -0.0856,0.18915 -0.0856,0.0766 -0.19816,0.0766 -0.13961,0 -0.22968,-0.1306 l -1.2655,-1.97258 -1.27002,1.97258 q -0.0901,0.1306 -0.23418,0.1306 -0.10809,0 -0.19816,-0.0766 -0.0856,-0.0811 -0.0856,-0.18915 z" />
    <path
       inkscape:connector-curvature="0"
       id="path5567-9"
       style="font-style:normal;font-variant:normal;font-weight:normal;font-stretch:normal;font-size:medium;line-height:1.25;font-family:Variable;-inkscape-font-specification:Variable;letter-spacing:0px;word-spacing:0px;fill:#ffffff;fill-opacity:1;stroke:none;stroke-width:0.23058397"
       d="m 109.76636,285.12199 v -4.98097 q 0,-0.7476 0.52692,-1.27002 0.52692,-0.52692 1.27452,-0.52692 0.74759,0 1.27001,0.52692 0.52692,0.52242 0.52692,1.27002 v 1.70686 q 0,0.74759 -0.52692,1.27451 -0.52242,0.52242 -1.27001,0.52242 -0.71157,0 -1.2475,-0.58096 v 2.05814 q 0,0.1306 -0.081,0.20266 -0.0811,0.0766 -0.19365,0.0766 -0.11259,0 -0.19816,-0.0766 -0.081,-0.0721 -0.081,-0.20266 z m 0.55394,-3.27411 q 0,0.51791 0.36479,0.8827 0.36479,0.36479 0.88271,0.36479 0.51791,0 0.8782,-0.36029 0.36479,-0.36479 0.36479,-0.8872 v -1.70686 q 0,-0.52242 -0.36479,-0.88271 -0.36029,-0.36029 -0.8782,-0.36029 -0.52242,0 -0.88721,0.36479 -0.36029,0.36029 -0.36029,0.87821 z" />
    <path
       inkscape:connector-curvature="0"
       id="path5569-5"
       style="font-style:normal;font-variant:normal;font-weight:normal;font-stretch:normal;font-size:medium;line-height:1.25;font-family:Variable;-inkscape-font-specification:Variable;letter-spacing:0px;word-spacing:0px;fill:#ffffff;fill-opacity:1;stroke:none;stroke-width:0.23058397"
       d="m 114.56719,281.84788 v -1.70686 q 0,-0.7476 0.52241,-1.27002 0.52692,-0.52692 1.27452,-0.52692 0.7476,0 1.27452,0.52692 0.52691,0.52242 0.52691,1.27002 v 1.70686 q 0,0.74759 -0.52691,1.27451 -0.52692,0.52242 -1.27452,0.52242 -0.7476,0 -1.27452,-0.52242 -0.52241,-0.52692 -0.52241,-1.27451 z m 0.55395,0 q 0,0.52241 0.36028,0.8872 0.36479,0.36029 0.8827,0.36029 0.52242,0 0.8827,-0.36479 0.3648,-0.36479 0.3648,-0.8827 v -1.70686 q 0,-0.51792 -0.3648,-0.87821 -0.36028,-0.36479 -0.8827,-0.36479 -0.52241,0 -0.8827,0.36029 -0.36028,0.36029 -0.36028,0.88271 z" />
    <path
       inkscape:connector-curvature="0"
       id="path5571-3"
       style="font-style:normal;font-variant:normal;font-weight:normal;font-stretch:normal;font-size:medium;line-height:1.25;font-family:Variable;-inkscape-font-specification:Variable;letter-spacing:0px;word-spacing:0px;fill:#ffffff;fill-opacity:1;stroke:none;stroke-width:0.23058397"
       d="m 119.2194,282.85218 q 0,-0.1171 0.0856,-0.19366 0.0901,-0.0811 0.20266,-0.0811 0.13511,0 0.22068,0.12159 l 0.045,0.045 q 0.33776,0.35128 0.90522,0.35128 0.52692,0 0.84217,-0.26121 0.31975,-0.26121 0.31975,-0.64401 0,-0.26572 -0.14411,-0.45937 -0.1396,-0.19816 -0.36929,-0.31976 -0.22968,-0.12159 -0.50441,-0.22518 -0.27471,-0.10808 -0.55393,-0.22968 -0.27473,-0.1216 -0.50441,-0.27472 -0.22968,-0.15762 -0.3738,-0.41433 -0.13961,-0.26121 -0.13961,-0.60348 0,-0.41883 0.22518,-0.72508 0.22518,-0.31075 0.55395,-0.45036 0.33326,-0.14411 0.71157,-0.14411 0.40082,0 0.80164,0.20266 0.40532,0.19816 0.61249,0.52692 0.045,0.0766 0.045,0.15312 0,0.10809 -0.0901,0.18915 -0.0901,0.0811 -0.19816,0.0811 -0.13961,0 -0.22967,-0.13061 -0.018,-0.018 -0.045,-0.063 -0.36028,-0.40533 -0.8962,-0.40533 -0.41434,0 -0.68005,0.21617 -0.26121,0.21167 -0.26121,0.54945 0,0.22968 0.14412,0.40532 0.14411,0.17114 0.36929,0.28372 0.22969,0.11259 0.5044,0.21618 0.27923,0.10358 0.55395,0.23418 0.27921,0.1261 0.5044,0.29274 0.22968,0.16663 0.37379,0.45036 0.14412,0.27922 0.14412,0.64401 0,0.43235 -0.23869,0.77011 -0.23869,0.33777 -0.6305,0.51341 -0.38732,0.17114 -0.84668,0.17114 -0.38731,0 -0.79713,-0.16664 -0.40533,-0.17113 -0.60349,-0.46837 -0.0585,-0.0856 -0.0585,-0.15762 z" />
    <path
       inkscape:connector-curvature="0"
       id="path5573-4"
       style="font-style:normal;font-variant:normal;font-weight:normal;font-stretch:normal;font-size:medium;line-height:1.25;font-family:Variable;-inkscape-font-specification:Variable;letter-spacing:0px;word-spacing:0px;fill:#ffffff;fill-opacity:1;stroke:none;stroke-width:0.23058397"
       d="m 123.49331,281.84788 v -3.1345 q 0,-0.13061 0.0811,-0.20267 0.0856,-0.0766 0.19815,-0.0766 0.1126,0 0.19365,0.0766 0.0811,0.0721 0.0811,0.20267 v 3.1345 q 0,0.51791 0.36479,0.8827 0.36479,0.36479 0.8827,0.36479 0.51791,0 0.87821,-0.36029 0.36479,-0.36479 0.36479,-0.8872 v -3.1345 q 0,-0.13061 0.081,-0.20267 0.0856,-0.0766 0.19815,-0.0766 0.1126,0 0.19366,0.0766 0.0811,0.0721 0.0811,0.20267 v 3.1345 q 0,0.74759 -0.52692,1.27451 -0.52243,0.52242 -1.27002,0.52242 -0.74759,0 -1.27451,-0.52242 -0.52693,-0.52692 -0.52693,-1.27451 z" />
    <path
       inkscape:connector-curvature="0"
       id="path5575-2"
       style="font-style:normal;font-variant:normal;font-weight:normal;font-stretch:normal;font-size:medium;line-height:1.25;font-family:Variable;-inkscape-font-specification:Variable;letter-spacing:0px;word-spacing:0px;fill:#ffffff;fill-opacity:1;stroke:none;stroke-width:0.23058397"
       d="m 128.37521,283.28002 v -3.07145 q 0,-0.80614 0.42333,-1.33306 0.42334,-0.53143 1.19346,-0.53143 0.29723,0 0.62149,0.1216 0.32426,0.1216 0.52242,0.32876 0.0901,0.0901 0.0901,0.19365 0,0.11259 -0.0856,0.19816 -0.0811,0.0811 -0.19816,0.0811 -0.0945,0 -0.19365,-0.0856 -0.0225,-0.018 -0.0495,-0.036 -0.30624,-0.2477 -0.70706,-0.2477 -0.4999,0 -0.78363,0.34678 -0.27923,0.34227 -0.27923,0.96377 v 3.07145 q 0,0.1306 -0.081,0.20266 -0.0811,0.0721 -0.19366,0.0721 -0.11259,0 -0.19816,-0.0721 -0.0811,-0.0721 -0.0811,-0.20266 z" />
    <path
       inkscape:connector-curvature="0"
       id="path5577-5"
       style="font-style:normal;font-variant:normal;font-weight:normal;font-stretch:normal;font-size:medium;line-height:1.25;font-family:Variable;-inkscape-font-specification:Variable;letter-spacing:0px;word-spacing:0px;fill:#ffffff;fill-opacity:1;stroke:none;stroke-width:0.23058397"
       d="m 132.00509,281.84788 v -1.70686 q 0,-0.7476 0.52243,-1.27002 0.52692,-0.52692 1.27451,-0.52692 0.7476,0 1.27452,0.52692 0.52692,0.52242 0.52692,1.27002 v 0.64851 q 0,0.11259 -0.0856,0.19366 -0.0811,0.0811 -0.19365,0.0811 h -2.76521 v 0.78362 q 0,0.4954 0.40082,0.8737 0.40533,0.3738 0.93675,0.3738 0.69355,0 1.04033,-0.44586 0.0901,-0.11709 0.23419,-0.11709 0.11259,0 0.19816,0.0811 0.0856,0.0766 0.0856,0.18465 0,0.0946 -0.0541,0.17563 -0.25221,0.32877 -0.65753,0.4999 -0.40082,0.17114 -0.84667,0.17114 -0.48189,0 -0.91874,-0.23418 -0.43234,-0.23419 -0.70256,-0.65303 -0.27022,-0.41883 -0.27022,-0.90972 z m 0.55395,-1.33757 h 2.49048 v -0.36929 q 0,-0.51792 -0.36478,-0.87821 -0.36029,-0.36479 -0.88271,-0.36479 -0.52241,0 -0.88271,0.36029 -0.36028,0.36029 -0.36028,0.88271 z" />
    <path
       inkscape:connector-curvature="0"
       id="path5579-5"
       style="font-style:normal;font-variant:normal;font-weight:normal;font-stretch:normal;font-size:medium;line-height:1.25;font-family:Variable;-inkscape-font-specification:Variable;letter-spacing:0px;word-spacing:0px;fill:#ffffff;fill-opacity:1;stroke:none;stroke-width:0.23058397"
       d="m 136.62128,282.85218 q 0,-0.1171 0.0856,-0.19366 0.0901,-0.0811 0.20267,-0.0811 0.1351,0 0.22067,0.12159 l 0.045,0.045 q 0.33778,0.35128 0.90522,0.35128 0.52692,0 0.84217,-0.26121 0.31977,-0.26121 0.31977,-0.64401 0,-0.26572 -0.14412,-0.45937 -0.13961,-0.19816 -0.36929,-0.31976 -0.22969,-0.12159 -0.50441,-0.22518 -0.27472,-0.10808 -0.55394,-0.22968 -0.27472,-0.1216 -0.5044,-0.27472 -0.22969,-0.15762 -0.37381,-0.41433 -0.13961,-0.26121 -0.13961,-0.60348 0,-0.41883 0.22518,-0.72508 0.22519,-0.31075 0.55395,-0.45036 0.33326,-0.14411 0.71157,-0.14411 0.40082,0 0.80164,0.20266 0.40532,0.19816 0.61249,0.52692 0.045,0.0766 0.045,0.15312 0,0.10809 -0.0901,0.18915 -0.0901,0.0811 -0.19816,0.0811 -0.13961,0 -0.22968,-0.13061 -0.018,-0.018 -0.045,-0.063 -0.36029,-0.40533 -0.89621,-0.40533 -0.41434,0 -0.68005,0.21617 -0.26121,0.21167 -0.26121,0.54945 0,0.22968 0.14412,0.40532 0.14411,0.17114 0.36929,0.28372 0.22969,0.11259 0.5044,0.21618 0.27923,0.10358 0.55395,0.23418 0.27921,0.1261 0.5044,0.29274 0.22968,0.16663 0.37379,0.45036 0.14412,0.27922 0.14412,0.64401 0,0.43235 -0.23869,0.77011 -0.23869,0.33777 -0.6305,0.51341 -0.38731,0.17114 -0.84668,0.17114 -0.38731,0 -0.79713,-0.16664 -0.40533,-0.17113 -0.60349,-0.46837 -0.0586,-0.0856 -0.0586,-0.15762 z" />
    <path
       inkscape:connector-curvature="0"
       id="path5581-2"
       style="font-style:normal;font-variant:normal;font-weight:normal;font-stretch:normal;font-size:medium;line-height:1.25;font-family:Variable;-inkscape-font-specification:Variable;letter-spacing:0px;word-spacing:0px;fill:#ffffff;fill-opacity:1;stroke:none;stroke-width:0.23058397"
       d="m 140.25118,284.93734 q 0,-0.11709 0.1216,-0.21167 0.036,-0.027 0.0901,-0.0901 0.29724,-0.29274 0.45486,-0.69356 0.16213,-0.40082 0.16213,-0.83767 0,-0.1306 0.0811,-0.20266 0.0856,-0.0766 0.19816,-0.0766 0.11259,0 0.19365,0.0766 0.081,0.0721 0.081,0.20266 0,0.56746 -0.2522,1.15743 -0.2522,0.58997 -0.68905,0.90522 -0.0721,0.0585 -0.16664,0.0585 -0.10808,0 -0.19365,-0.0901 -0.081,-0.0856 -0.081,-0.19816 z" />
    <path
       inkscape:connector-curvature="0"
       id="path5583-6"
       style="font-style:normal;font-variant:normal;font-weight:normal;font-stretch:normal;font-size:medium;line-height:1.25;font-family:Variable;-inkscape-font-specification:Variable;letter-spacing:0px;word-spacing:0px;fill:#ffffff;fill-opacity:1;stroke:none;stroke-width:0.23058397"
       d="m 144.57913,276.62821 q 0,-0.11709 0.0856,-0.18915 0.0856,-0.0765 0.19816,-0.0765 0.19816,0 0.26121,0.19365 l 1.94555,5.90871 1.95456,-5.90871 q 0.063,-0.19365 0.24769,-0.19365 0.1171,0 0.20717,0.0765 0.0901,0.0721 0.0901,0.18915 0,0.036 -0.018,0.0901 l -2.21576,6.71486 q -0.081,0.24319 -0.26572,0.24319 -0.18915,0 -0.25671,-0.24319 l -2.21576,-6.71486 q -0.018,-0.0541 -0.018,-0.0901 z" />
    <path
       inkscape:connector-curvature="0"
       id="path5585-8"
       style="font-style:normal;font-variant:normal;font-weight:normal;font-stretch:normal;font-size:medium;line-height:1.25;font-family:Variable;-inkscape-font-specification:Variable;letter-spacing:0px;word-spacing:0px;fill:#ffffff;fill-opacity:1;stroke:none;stroke-width:0.23058397"
       d="m 150.38876,281.84788 v -3.1345 q 0,-0.13061 0.0811,-0.20267 0.0856,-0.0766 0.19816,-0.0766 0.11259,0 0.19365,0.0766 0.0811,0.0721 0.0811,0.20267 v 3.1345 q 0,0.51791 0.36479,0.8827 0.36479,0.36479 0.8827,0.36479 0.51792,0 0.8782,-0.36029 0.36479,-0.36479 0.36479,-0.8872 v -3.1345 q 0,-0.13061 0.081,-0.20267 0.0856,-0.0766 0.19816,-0.0766 0.11259,0 0.19365,0.0766 0.081,0.0721 0.081,0.20267 v 3.1345 q 0,0.74759 -0.52692,1.27451 -0.52242,0.52242 -1.27001,0.52242 -0.7476,0 -1.27452,-0.52242 -0.52692,-0.52692 -0.52692,-1.27451 z" />
    <path
       inkscape:connector-curvature="0"
       id="path5587-7"
       style="font-style:normal;font-variant:normal;font-weight:normal;font-stretch:normal;font-size:medium;line-height:1.25;font-family:Variable;-inkscape-font-specification:Variable;letter-spacing:0px;word-spacing:0px;fill:#ffffff;fill-opacity:1;stroke:none;stroke-width:0.23058397"
       d="m 155.27066,282.10458 v -5.46736 q 0,-0.13061 0.0811,-0.20266 0.0856,-0.0721 0.19816,-0.0721 0.11259,0 0.19366,0.0721 0.0811,0.0721 0.0811,0.20266 v 5.46736 q 0,0.31075 0.11258,0.60798 0.1171,0.29274 0.36029,0.40083 0.17564,0.0765 0.17564,0.2567 0,0.10808 -0.0811,0.18915 -0.0765,0.0856 -0.18915,0.0856 -0.0721,0 -0.10809,-0.018 -0.0586,-0.018 -0.14861,-0.0811 -0.33777,-0.21617 -0.50891,-0.60348 -0.16663,-0.39181 -0.16663,-0.83767 z" />
    <path
       inkscape:connector-curvature="0"
       id="path5589-1"
       style="font-style:normal;font-variant:normal;font-weight:normal;font-stretch:normal;font-size:medium;line-height:1.25;font-family:Variable;-inkscape-font-specification:Variable;letter-spacing:0px;word-spacing:0px;fill:#ffffff;fill-opacity:1;stroke:none;stroke-width:0.23058397"
       d="m 157.28827,283.28002 v -3.139 q 0,-0.7476 0.52692,-1.27002 0.52691,-0.52692 1.27452,-0.52692 0.74759,0 1.27001,0.52692 0.52693,0.52242 0.52693,1.27002 v 3.139 q 0,0.13061 -0.0811,0.20266 -0.0811,0.0721 -0.19366,0.0721 -0.11259,0 -0.19815,-0.0721 -0.0811,-0.0721 -0.0811,-0.20266 v -3.139 q 0,-0.52242 -0.36479,-0.88271 -0.36029,-0.36029 -0.8782,-0.36029 -0.52242,0 -0.88721,0.36479 -0.36028,0.36029 -0.36028,0.87821 v 3.139 q 0,0.13061 -0.0811,0.20266 -0.0811,0.0721 -0.19366,0.0721 -0.11258,0 -0.19816,-0.0721 -0.081,-0.0721 -0.081,-0.20266 z" />
    <path
       inkscape:connector-curvature="0"
       id="path5591-0"
       style="font-style:normal;font-variant:normal;font-weight:normal;font-stretch:normal;font-size:medium;line-height:1.25;font-family:Variable;-inkscape-font-specification:Variable;letter-spacing:0px;word-spacing:0px;fill:#ffffff;fill-opacity:1;stroke:none;stroke-width:0.23058397"
       d="m 162.12513,281.84788 v -1.70686 q 0,-0.7476 0.52242,-1.27002 0.52692,-0.52692 1.27451,-0.52692 0.7476,0 1.27452,0.52692 0.52692,0.52242 0.52692,1.27002 v 0.64851 q 0,0.11259 -0.0856,0.19366 -0.0811,0.0811 -0.19366,0.0811 h -2.7652 v 0.78362 q 0,0.4954 0.40082,0.8737 0.40532,0.3738 0.93675,0.3738 0.69355,0 1.04032,-0.44586 0.0901,-0.11709 0.2342,-0.11709 0.11258,0 0.19816,0.0811 0.0856,0.0766 0.0856,0.18465 0,0.0946 -0.0541,0.17563 -0.2522,0.32877 -0.65752,0.4999 -0.40082,0.17114 -0.84668,0.17114 -0.48189,0 -0.91874,-0.23418 -0.43234,-0.23419 -0.70256,-0.65303 -0.27021,-0.41883 -0.27021,-0.90972 z m 0.55394,-1.33757 h 2.49049 v -0.36929 q 0,-0.51792 -0.36479,-0.87821 -0.3603,-0.36479 -0.88271,-0.36479 -0.52242,0 -0.8827,0.36029 -0.36029,0.36029 -0.36029,0.88271 z" />
    <path
       inkscape:connector-curvature="0"
       id="path5593-6"
       style="font-style:normal;font-variant:normal;font-weight:normal;font-stretch:normal;font-size:medium;line-height:1.25;font-family:Variable;-inkscape-font-specification:Variable;letter-spacing:0px;word-spacing:0px;fill:#ffffff;fill-opacity:1;stroke:none;stroke-width:0.23058397"
       d="m 166.92596,283.28002 v -3.07145 q 0,-0.80614 0.42333,-1.33306 0.42334,-0.53143 1.19346,-0.53143 0.29724,0 0.6215,0.1216 0.32425,0.1216 0.52241,0.32876 0.0901,0.0901 0.0901,0.19365 0,0.11259 -0.0856,0.19816 -0.081,0.0811 -0.19815,0.0811 -0.0945,0 -0.19366,-0.0856 -0.0226,-0.018 -0.0495,-0.036 -0.30624,-0.2477 -0.70706,-0.2477 -0.4999,0 -0.78363,0.34678 -0.27921,0.34227 -0.27921,0.96377 v 3.07145 q 0,0.1306 -0.0811,0.20266 -0.0811,0.0721 -0.19366,0.0721 -0.11258,0 -0.19815,-0.0721 -0.0811,-0.0721 -0.0811,-0.20266 z" />
    <path
       inkscape:connector-curvature="0"
       id="path5595-3"
       style="font-style:normal;font-variant:normal;font-weight:normal;font-stretch:normal;font-size:medium;line-height:1.25;font-family:Variable;-inkscape-font-specification:Variable;letter-spacing:0px;word-spacing:0px;fill:#ffffff;fill-opacity:1;stroke:none;stroke-width:0.23058397"
       d="m 170.41624,282.16313 q 0,-0.33327 0.13061,-0.60348 0.13511,-0.27022 0.36479,-0.45036 0.23418,-0.18465 0.5089,-0.30625 0.27923,-0.12159 0.61249,-0.18915 l 1.17995,-0.2522 v -0.43234 q 0,-0.47738 -0.27923,-0.7521 -0.27472,-0.27923 -0.81965,-0.27923 -0.44135,0 -0.77462,0.25671 -0.0586,0.0495 -0.13961,0.13961 -0.0811,0.0856 -0.13961,0.1216 -0.0586,0.036 -0.14412,0.036 -0.10809,0 -0.18915,-0.0766 -0.0766,-0.0766 -0.0766,-0.19365 0,-0.1216 0.1261,-0.26571 0.2432,-0.27923 0.59448,-0.42334 0.35128,-0.14862 0.7431,-0.14862 0.7656,0 1.20696,0.44135 0.44586,0.43685 0.44586,1.14392 v 2.13019 q 0,0.69356 -0.4909,1.13942 -0.49089,0.44585 -1.17993,0.44585 -0.45037,0 -0.82867,-0.16213 -0.37379,-0.16663 -0.61249,-0.50891 -0.23869,-0.34677 -0.23869,-0.81064 z m 0.55395,-0.009 q 0,0.42784 0.30174,0.68455 0.30624,0.2567 0.81515,0.2567 0.48638,0 0.80614,-0.29273 0.31976,-0.29724 0.31976,-0.74309 v -1.14392 l -1.18895,0.26121 q -0.48189,0.10358 -0.77012,0.3693 -0.28372,0.26121 -0.28372,0.60798 z" />
    <path
       inkscape:connector-curvature="0"
       id="path5597-6"
       style="font-style:normal;font-variant:normal;font-weight:normal;font-stretch:normal;font-size:medium;line-height:1.25;font-family:Variable;-inkscape-font-specification:Variable;letter-spacing:0px;word-spacing:0px;fill:#ffffff;fill-opacity:1;stroke:none;stroke-width:0.23058397"
       d="m 174.9964,281.84788 v -5.21066 q 0,-0.13061 0.0811,-0.20266 0.0856,-0.0721 0.19816,-0.0721 0.11259,0 0.19366,0.0721 0.0811,0.0721 0.0811,0.20266 v 2.28782 q 0.53593,-0.58096 1.2475,-0.58096 0.74759,0 1.27,0.52692 0.52693,0.52242 0.52693,1.27002 v 1.70686 q 0,0.74759 -0.52693,1.27451 -0.52241,0.52242 -1.27,0.52242 -0.7476,0 -1.27453,-0.52242 -0.52691,-0.52692 -0.52691,-1.27451 z m 0.55394,0 q 0,0.51791 0.36479,0.8827 0.36479,0.36479 0.88271,0.36479 0.51791,0 0.8782,-0.36029 0.36478,-0.36479 0.36478,-0.8872 v -1.70686 q 0,-0.52242 -0.36478,-0.88271 -0.36029,-0.36029 -0.8782,-0.36029 -0.52242,0 -0.88722,0.36479 -0.36028,0.36029 -0.36028,0.87821 z" />
    <path
       inkscape:connector-curvature="0"
       id="path5599-6"
       style="font-style:normal;font-variant:normal;font-weight:normal;font-stretch:normal;font-size:medium;line-height:1.25;font-family:Variable;-inkscape-font-specification:Variable;letter-spacing:0px;word-spacing:0px;fill:#ffffff;fill-opacity:1;stroke:none;stroke-width:0.23058397"
       d="m 179.86028,277.10109 q -0.10809,-0.10809 -0.10809,-0.26121 0,-0.15312 0.10809,-0.26121 0.10808,-0.10808 0.26121,-0.10808 0.15312,0 0.2612,0.10808 0.10809,0.10809 0.10809,0.26121 0,0.15312 -0.10809,0.26121 -0.10808,0.10808 -0.2612,0.10808 -0.15313,0 -0.26121,-0.10808 z m -0.018,6.17893 v -4.56664 q 0,-0.13061 0.081,-0.20267 0.0856,-0.0766 0.19816,-0.0766 0.11258,0 0.19364,0.0766 0.0811,0.0721 0.0811,0.20267 v 4.56664 q 0,0.13061 -0.0811,0.20266 -0.081,0.0721 -0.19364,0.0721 -0.1126,0 -0.19816,-0.0721 -0.081,-0.0721 -0.081,-0.20266 z" />
    <path
       inkscape:connector-curvature="0"
       id="path5601-7"
       style="font-style:normal;font-variant:normal;font-weight:normal;font-stretch:normal;font-size:medium;line-height:1.25;font-family:Variable;-inkscape-font-specification:Variable;letter-spacing:0px;word-spacing:0px;fill:#ffffff;fill-opacity:1;stroke:none;stroke-width:0.23058397"
       d="m 181.67973,282.10458 v -5.46736 q 0,-0.13061 0.0811,-0.20266 0.0856,-0.0721 0.19816,-0.0721 0.11259,0 0.19366,0.0721 0.081,0.0721 0.081,0.20266 v 5.46736 q 0,0.31075 0.11259,0.60798 0.1171,0.29274 0.36029,0.40083 0.17564,0.0765 0.17564,0.2567 0,0.10808 -0.0811,0.18915 -0.0765,0.0856 -0.18915,0.0856 -0.0721,0 -0.10808,-0.018 -0.0586,-0.018 -0.14862,-0.0811 -0.33777,-0.21617 -0.5089,-0.60348 -0.16664,-0.39181 -0.16664,-0.83767 z" />
    <path
       inkscape:connector-curvature="0"
       id="path5603-4"
       style="font-style:normal;font-variant:normal;font-weight:normal;font-stretch:normal;font-size:medium;line-height:1.25;font-family:Variable;-inkscape-font-specification:Variable;letter-spacing:0px;word-spacing:0px;fill:#ffffff;fill-opacity:1;stroke:none;stroke-width:0.23058397"
       d="m 183.71535,277.10109 q -0.10808,-0.10809 -0.10808,-0.26121 0,-0.15312 0.10808,-0.26121 0.10809,-0.10808 0.26122,-0.10808 0.15311,0 0.2612,0.10808 0.10808,0.10809 0.10808,0.26121 0,0.15312 -0.10808,0.26121 -0.10809,0.10808 -0.2612,0.10808 -0.15313,0 -0.26122,-0.10808 z m -0.018,6.17893 v -4.56664 q 0,-0.13061 0.081,-0.20267 0.0856,-0.0766 0.19816,-0.0766 0.1126,0 0.19366,0.0766 0.0811,0.0721 0.0811,0.20267 v 4.56664 q 0,0.13061 -0.0811,0.20266 -0.081,0.0721 -0.19366,0.0721 -0.11259,0 -0.19816,-0.0721 -0.081,-0.0721 -0.081,-0.20266 z" />
    <path
       inkscape:connector-curvature="0"
       id="path5605-3"
       style="font-style:normal;font-variant:normal;font-weight:normal;font-stretch:normal;font-size:medium;line-height:1.25;font-family:Variable;-inkscape-font-specification:Variable;letter-spacing:0px;word-spacing:0px;fill:#ffffff;fill-opacity:1;stroke:none;stroke-width:0.23058397"
       d="m 185.05292,278.90703 q -0.0721,-0.0811 -0.0721,-0.19365 0,-0.11259 0.0721,-0.19366 0.0765,-0.0856 0.20716,-0.0856 h 0.83767 v -1.17093 q 0,-0.1306 0.0811,-0.20266 0.0856,-0.0721 0.19816,-0.0721 0.11258,0 0.19365,0.0721 0.0811,0.0721 0.0811,0.20266 v 1.17093 h 1.6348 q 0.1306,0 0.20266,0.0856 0.0721,0.0811 0.0721,0.19366 0,0.11258 -0.0721,0.19365 -0.0721,0.0811 -0.20266,0.0811 h -1.6348 v 3.35968 q 0,0.31525 0.22968,0.53142 0.23418,0.21618 0.62149,0.21618 0.22068,0 0.39632,-0.0811 0.17564,-0.0856 0.29273,-0.16664 0.1216,-0.0856 0.20267,-0.0856 0.10808,0 0.18915,0.0856 0.081,0.0856 0.081,0.19816 0,0.1216 -0.18463,0.27022 -0.44587,0.32876 -0.97729,0.32876 -0.60798,0 -1.0088,-0.36929 -0.39632,-0.3738 -0.39632,-0.92775 v -3.35968 h -0.83767 q -0.1306,0 -0.20716,-0.0811 z" />
    <path
       inkscape:connector-curvature="0"
       id="path5607-9"
       style="font-style:normal;font-variant:normal;font-weight:normal;font-stretch:normal;font-size:medium;line-height:1.25;font-family:Variable;-inkscape-font-specification:Variable;letter-spacing:0px;word-spacing:0px;fill:#ffffff;fill-opacity:1;stroke:none;stroke-width:0.23058397"
       d="m 189.49797,277.10109 q -0.10809,-0.10809 -0.10809,-0.26121 0,-0.15312 0.10809,-0.26121 0.10808,-0.10808 0.2612,-0.10808 0.15313,0 0.26121,0.10808 0.10809,0.10809 0.10809,0.26121 0,0.15312 -0.10809,0.26121 -0.10808,0.10808 -0.26121,0.10808 -0.15312,0 -0.2612,-0.10808 z m -0.018,6.17893 v -4.56664 q 0,-0.13061 0.081,-0.20267 0.0856,-0.0766 0.19815,-0.0766 0.11259,0 0.19366,0.0766 0.0811,0.0721 0.0811,0.20267 v 4.56664 q 0,0.13061 -0.0811,0.20266 -0.081,0.0721 -0.19366,0.0721 -0.11258,0 -0.19815,-0.0721 -0.081,-0.0721 -0.081,-0.20266 z" />
    <path
       inkscape:connector-curvature="0"
       id="path5609-2"
       style="font-style:normal;font-variant:normal;font-weight:normal;font-stretch:normal;font-size:medium;line-height:1.25;font-family:Variable;-inkscape-font-specification:Variable;letter-spacing:0px;word-spacing:0px;fill:#ffffff;fill-opacity:1;stroke:none;stroke-width:0.23058397"
       d="m 191.27238,281.84788 v -1.70686 q 0,-0.7476 0.52241,-1.27002 0.52693,-0.52692 1.27452,-0.52692 0.7476,0 1.27453,0.52692 0.52691,0.52242 0.52691,1.27002 v 0.64851 q 0,0.11259 -0.0856,0.19366 -0.0811,0.0811 -0.19366,0.0811 h -2.7652 v 0.78362 q 0,0.4954 0.40082,0.8737 0.40532,0.3738 0.93674,0.3738 0.69356,0 1.04033,-0.44586 0.0901,-0.11709 0.23418,-0.11709 0.11259,0 0.19816,0.0811 0.0856,0.0766 0.0856,0.18465 0,0.0946 -0.0541,0.17563 -0.2522,0.32877 -0.65753,0.4999 -0.40082,0.17114 -0.84667,0.17114 -0.48188,0 -0.91873,-0.23418 -0.43235,-0.23419 -0.70256,-0.65303 -0.27022,-0.41883 -0.27022,-0.90972 z m 0.55395,-1.33757 h 2.49048 v -0.36929 q 0,-0.51792 -0.36479,-0.87821 -0.36029,-0.36479 -0.88271,-0.36479 -0.52241,0 -0.8827,0.36029 -0.36028,0.36029 -0.36028,0.88271 z" />
    <path
       inkscape:connector-curvature="0"
       id="path5611-4"
       style="font-style:normal;font-variant:normal;font-weight:normal;font-stretch:normal;font-size:medium;line-height:1.25;font-family:Variable;-inkscape-font-specification:Variable;letter-spacing:0px;word-spacing:0px;fill:#ffffff;fill-opacity:1;stroke:none;stroke-width:0.23058397"
       d="m 195.88857,282.85218 q 0,-0.1171 0.0856,-0.19366 0.0901,-0.0811 0.20266,-0.0811 0.1351,0 0.22067,0.12159 l 0.045,0.045 q 0.33776,0.35128 0.90522,0.35128 0.52692,0 0.84217,-0.26121 0.31975,-0.26121 0.31975,-0.64401 0,-0.26572 -0.14411,-0.45937 -0.13961,-0.19816 -0.3693,-0.31976 -0.22968,-0.12159 -0.5044,-0.22518 -0.27471,-0.10808 -0.55394,-0.22968 -0.27472,-0.1216 -0.5044,-0.27472 -0.22968,-0.15762 -0.3738,-0.41433 -0.13961,-0.26121 -0.13961,-0.60348 0,-0.41883 0.22518,-0.72508 0.22517,-0.31075 0.55394,-0.45036 0.33327,-0.14411 0.71157,-0.14411 0.40081,0 0.80163,0.20266 0.40533,0.19816 0.61249,0.52692 0.045,0.0766 0.045,0.15312 0,0.10809 -0.0901,0.18915 -0.0901,0.0811 -0.19816,0.0811 -0.13962,0 -0.22969,-0.13061 -0.018,-0.018 -0.045,-0.063 -0.36028,-0.40533 -0.89622,-0.40533 -0.41433,0 -0.68003,0.21617 -0.26122,0.21167 -0.26122,0.54945 0,0.22968 0.14413,0.40532 0.14411,0.17114 0.36928,0.28372 0.22968,0.11259 0.50441,0.21618 0.27922,0.10358 0.55393,0.23418 0.27923,0.1261 0.50441,0.29274 0.22969,0.16663 0.3738,0.45036 0.14412,0.27922 0.14412,0.64401 0,0.43235 -0.2387,0.77011 -0.23869,0.33777 -0.6305,0.51341 -0.38731,0.17114 -0.84667,0.17114 -0.38731,0 -0.79714,-0.16664 -0.40532,-0.17113 -0.60348,-0.46837 -0.0586,-0.0856 -0.0586,-0.15762 z" />
    <path
       inkscape:connector-curvature="0"
       id="path5613-3"
       style="font-style:normal;font-variant:normal;font-weight:normal;font-stretch:normal;font-size:medium;line-height:1.25;font-family:Variable;-inkscape-font-specification:Variable;letter-spacing:0px;word-spacing:0px;fill:#ffffff;fill-opacity:1;stroke:none;stroke-width:0.23058397"
       d="m 64.536778,294.87881 v -6.6428 q 0,-0.11259 0.08107,-0.19366 0.08107,-0.0811 0.193654,-0.0811 h 3.458758 q 0.130606,0 0.202664,0.0811 0.07656,0.0811 0.07656,0.19366 0,0.11259 -0.07656,0.19365 -0.07206,0.0811 -0.202664,0.0811 h -3.179536 v 2.60308 h 2.904817 q 0.130603,0 0.202661,0.0811 0.07206,0.0811 0.07206,0.19365 0,0.11259 -0.07206,0.19816 -0.07206,0.0811 -0.202661,0.0811 h -2.904817 v 2.93184 h 3.179536 q 0.130606,0 0.202664,0.0856 0.07656,0.0811 0.07656,0.19365 0,0.11259 -0.07656,0.19365 -0.07206,0.0811 -0.202664,0.0811 H 64.8115 q -0.112592,0 -0.193654,-0.0811 -0.08107,-0.0811 -0.08107,-0.19365 z" />
    <path
       inkscape:connector-curvature="0"
       id="path5615-7"
       style="font-style:normal;font-variant:normal;font-weight:normal;font-stretch:normal;font-size:medium;line-height:1.25;font-family:Variable;-inkscape-font-specification:Variable;letter-spacing:0px;word-spacing:0px;fill:#ffffff;fill-opacity:1;stroke:none;stroke-width:0.23058397"
       d="m 69.373635,294.88782 q 0,-0.0811 0.04504,-0.15763 l 1.41413,-2.18875 -1.351079,-2.08066 q -0.04503,-0.0765 -0.04503,-0.15762 0,-0.10809 0.09007,-0.18915 0.09007,-0.0811 0.198159,-0.0811 0.139612,0 0.229685,0.1306 l 1.206961,1.87349 1.197956,-1.87349 q 0.09007,-0.1306 0.234186,-0.1306 0.112592,0 0.198161,0.0811 0.08557,0.0811 0.08557,0.18915 0,0.0811 -0.04503,0.15762 l -1.346575,2.08066 1.409624,2.18875 q 0.04503,0.0766 0.04503,0.15763 0,0.10808 -0.08557,0.18915 -0.08557,0.0765 -0.198158,0.0765 -0.139613,0 -0.229682,-0.1306 l -1.265511,-1.97257 -1.270013,1.97257 q -0.09007,0.1306 -0.234188,0.1306 -0.108083,0 -0.198158,-0.0765 -0.08557,-0.0811 -0.08557,-0.18915 z" />
    <path
       inkscape:connector-curvature="0"
       id="path5617-6"
       style="font-style:normal;font-variant:normal;font-weight:normal;font-stretch:normal;font-size:medium;line-height:1.25;font-family:Variable;-inkscape-font-specification:Variable;letter-spacing:0px;word-spacing:0px;fill:#ffffff;fill-opacity:1;stroke:none;stroke-width:0.23058397"
       d="m 73.953788,296.72078 v -4.98098 q 0,-0.7476 0.526921,-1.27001 0.526918,-0.52692 1.274517,-0.52692 0.747596,0 1.270014,0.52692 0.526919,0.52241 0.526919,1.27001 v 1.70687 q 0,0.74759 -0.526919,1.27451 -0.522418,0.52242 -1.270014,0.52242 -0.711568,0 -1.247494,-0.58097 v 2.05815 q 0,0.1306 -0.08107,0.20266 Q 74.345596,297 74.23301,297 q -0.112589,0 -0.198157,-0.0766 -0.08107,-0.0721 -0.08107,-0.20266 z m 0.553944,-3.27411 q 0,0.51791 0.364791,0.8827 0.364789,0.36479 0.882703,0.36479 0.517914,0 0.878202,-0.36029 0.364791,-0.36479 0.364791,-0.8872 v -1.70687 q 0,-0.52241 -0.364791,-0.8827 -0.360288,-0.36029 -0.878202,-0.36029 -0.522417,0 -0.887206,0.36479 -0.360288,0.36029 -0.360288,0.8782 z" />
    <path
       inkscape:connector-curvature="0"
       id="path5619-0"
       style="font-style:normal;font-variant:normal;font-weight:normal;font-stretch:normal;font-size:medium;line-height:1.25;font-family:Variable;-inkscape-font-specification:Variable;letter-spacing:0px;word-spacing:0px;fill:#ffffff;fill-opacity:1;stroke:none;stroke-width:0.23058397"
       d="m 78.799654,293.70337 v -5.46736 q 0,-0.13061 0.08107,-0.20266 0.08557,-0.0721 0.198158,-0.0721 0.112592,0 0.193657,0.0721 0.08107,0.0721 0.08107,0.20266 v 5.46736 q 0,0.31075 0.112589,0.60799 0.117093,0.29273 0.360288,0.40082 0.17564,0.0766 0.17564,0.2567 0,0.10809 -0.08107,0.18915 -0.07656,0.0856 -0.189149,0.0856 -0.07206,0 -0.108088,-0.018 -0.05855,-0.018 -0.14862,-0.0811 -0.337767,-0.21618 -0.508907,-0.60348 -0.16663,-0.39182 -0.16663,-0.83767 z" />
    <path
       inkscape:connector-curvature="0"
       id="path5621-5"
       style="font-style:normal;font-variant:normal;font-weight:normal;font-stretch:normal;font-size:medium;line-height:1.25;font-family:Variable;-inkscape-font-specification:Variable;letter-spacing:0px;word-spacing:0px;fill:#ffffff;fill-opacity:1;stroke:none;stroke-width:0.23058397"
       d="m 80.772227,293.44667 v -1.70687 q 0,-0.7476 0.522418,-1.27001 0.526922,-0.52692 1.274515,-0.52692 0.747599,0 1.274519,0.52692 0.526919,0.52241 0.526919,1.27001 v 1.70687 q 0,0.74759 -0.526919,1.27451 -0.52692,0.52242 -1.274519,0.52242 -0.747593,0 -1.274515,-0.52242 -0.522418,-0.52692 -0.522418,-1.27451 z m 0.553945,0 q 0,0.52241 0.360285,0.8872 0.364791,0.36029 0.882703,0.36029 0.52242,0 0.882708,-0.36479 0.364791,-0.36479 0.364791,-0.8827 v -1.70687 q 0,-0.51791 -0.364791,-0.8782 -0.360288,-0.36479 -0.882708,-0.36479 -0.522415,0 -0.882703,0.36029 -0.360285,0.36029 -0.360285,0.8827 z" />
    <path
       inkscape:connector-curvature="0"
       id="path5623-2"
       style="font-style:normal;font-variant:normal;font-weight:normal;font-stretch:normal;font-size:medium;line-height:1.25;font-family:Variable;-inkscape-font-specification:Variable;letter-spacing:0px;word-spacing:0px;fill:#ffffff;fill-opacity:1;stroke:none;stroke-width:0.23058397"
       d="m 85.609088,294.87881 v -3.07145 q 0,-0.80615 0.423335,-1.33307 0.423339,-0.53142 1.193456,-0.53142 0.297236,0 0.621494,0.1216 0.32426,0.12159 0.522417,0.32876 0.09007,0.0901 0.09007,0.19365 0,0.1126 -0.08557,0.19816 -0.08107,0.0811 -0.198158,0.0811 -0.09458,0 -0.193654,-0.0856 -0.02253,-0.018 -0.04954,-0.036 -0.306244,-0.2477 -0.707062,-0.2477 -0.499901,0 -0.783624,0.34678 -0.279226,0.34227 -0.279226,0.96377 v 3.07145 q 0,0.1306 -0.08107,0.20266 -0.08107,0.072 -0.193657,0.072 -0.112589,0 -0.198156,-0.072 -0.08107,-0.0721 -0.08107,-0.20266 z" />
    <path
       inkscape:connector-curvature="0"
       id="path5625-5"
       style="font-style:normal;font-variant:normal;font-weight:normal;font-stretch:normal;font-size:medium;line-height:1.25;font-family:Variable;-inkscape-font-specification:Variable;letter-spacing:0px;word-spacing:0px;fill:#ffffff;fill-opacity:1;stroke:none;stroke-width:0.23058397"
       d="m 89.099372,293.76192 q 0,-0.33327 0.130604,-0.60348 0.135109,-0.27022 0.364791,-0.45036 0.234188,-0.18465 0.508905,-0.30625 0.279222,-0.12159 0.612489,-0.18915 l 1.179942,-0.2522 v -0.43235 q 0,-0.47738 -0.279223,-0.7521 -0.274719,-0.27922 -0.819654,-0.27922 -0.441352,0 -0.774617,0.25671 -0.05855,0.0495 -0.139613,0.13961 -0.08107,0.0856 -0.139613,0.1216 -0.05854,0.036 -0.144113,0.036 -0.108085,0 -0.18915,-0.0766 -0.07656,-0.0766 -0.07656,-0.19365 0,-0.1216 0.126103,-0.26572 0.24319,-0.27922 0.59447,-0.42333 0.351284,-0.14862 0.743095,-0.14862 0.765611,0 1.206963,0.44135 0.445853,0.43685 0.445853,1.14391 v 2.1302 q 0,0.69356 -0.490891,1.13941 -0.49089,0.44586 -1.179942,0.44586 -0.450356,0 -0.82866,-0.16213 -0.373795,-0.16664 -0.612486,-0.50891 -0.238688,-0.34678 -0.238688,-0.81064 z m 0.553943,-0.009 q 0,0.42785 0.301739,0.68455 0.306247,0.2567 0.815152,0.2567 0.486386,0 0.806141,-0.29273 0.319756,-0.29723 0.319756,-0.74309 v -1.14391 l -1.188949,0.26121 q -0.481884,0.10358 -0.770113,0.36929 -0.283726,0.26121 -0.283726,0.60798 z" />
    <path
       inkscape:connector-curvature="0"
       id="path5627-5"
       style="font-style:normal;font-variant:normal;font-weight:normal;font-stretch:normal;font-size:medium;line-height:1.25;font-family:Variable;-inkscape-font-specification:Variable;letter-spacing:0px;word-spacing:0px;fill:#ffffff;fill-opacity:1;stroke:none;stroke-width:0.23058397"
       d="m 93.197639,290.50582 q -0.07209,-0.0811 -0.07209,-0.19365 0,-0.1126 0.07209,-0.19366 0.07652,-0.0856 0.207171,-0.0856 h 0.837662 v -1.17093 q 0,-0.13061 0.08105,-0.20267 0.08558,-0.072 0.198159,-0.072 0.112592,0 0.193649,0.072 0.08105,0.0721 0.08105,0.20267 v 1.17093 h 1.634801 q 0.130603,0 0.20267,0.0856 0.07209,0.0811 0.07209,0.19366 0,0.11259 -0.07209,0.19365 -0.07209,0.0811 -0.20267,0.0811 H 94.79638 v 3.35968 q 0,0.31525 0.229683,0.53142 0.234183,0.21617 0.621491,0.21617 0.220682,0 0.396319,-0.0811 0.175637,-0.0856 0.292739,-0.16664 0.121591,-0.0856 0.20266,-0.0856 0.10808,0 0.189148,0.0856 0.08105,0.0856 0.08105,0.19816 0,0.1216 -0.184648,0.27022 -0.445854,0.32876 -0.977286,0.32876 -0.60798,0 -1.008799,-0.3693 -0.396319,-0.37379 -0.396319,-0.92774 v -3.35968 h -0.837663 q -0.130613,0 -0.20717,-0.0811 z" />
    <path
       inkscape:connector-curvature="0"
       id="path5629-7"
       style="font-style:normal;font-variant:normal;font-weight:normal;font-stretch:normal;font-size:medium;line-height:1.25;font-family:Variable;-inkscape-font-specification:Variable;letter-spacing:0px;word-spacing:0px;fill:#ffffff;fill-opacity:1;stroke:none;stroke-width:0.23058397"
       d="m 97.642686,288.69988 q -0.10808,-0.10809 -0.10808,-0.26121 0,-0.15312 0.10808,-0.26121 0.108091,-0.10808 0.261206,-0.10808 0.153125,0 0.261216,0.10808 0.10808,0.10809 0.10808,0.26121 0,0.15312 -0.10808,0.26121 -0.108091,0.10808 -0.261216,0.10808 -0.153115,0 -0.261206,-0.10808 z m -0.01802,6.17893 v -4.56664 q 0,-0.13061 0.08105,-0.20267 0.08558,-0.0766 0.19816,-0.0766 0.112591,0 0.193648,0.0766 0.08105,0.0721 0.08105,0.20267 v 4.56664 q 0,0.1306 -0.08105,0.20266 -0.08105,0.0721 -0.193648,0.0721 -0.112591,0 -0.19816,-0.0721 -0.08105,-0.0721 -0.08105,-0.20266 z" />
    <path
       inkscape:connector-curvature="0"
       id="path5631-3"
       style="font-style:normal;font-variant:normal;font-weight:normal;font-stretch:normal;font-size:medium;line-height:1.25;font-family:Variable;-inkscape-font-specification:Variable;letter-spacing:0px;word-spacing:0px;fill:#ffffff;fill-opacity:1;stroke:none;stroke-width:0.23058397"
       d="m 99.417101,293.44667 v -1.70687 q 0,-0.7476 0.522421,-1.27001 0.526918,-0.52692 1.274518,-0.52692 0.74759,0 1.27451,0.52692 0.52692,0.52241 0.52692,1.27001 v 1.70687 q 0,0.74759 -0.52692,1.27451 -0.52692,0.52242 -1.27451,0.52242 -0.7476,0 -1.274518,-0.52242 -0.522421,-0.52692 -0.522421,-1.27451 z m 0.553944,0 q 0,0.52241 0.360285,0.8872 0.36479,0.36029 0.88271,0.36029 0.52241,0 0.88269,-0.36479 0.3648,-0.36479 0.3648,-0.8827 v -1.70687 q 0,-0.51791 -0.3648,-0.8782 -0.36028,-0.36479 -0.88269,-0.36479 -0.52242,0 -0.88271,0.36029 -0.360285,0.36029 -0.360285,0.8827 z" />
    <path
       inkscape:connector-curvature="0"
       id="path5633-9"
       style="font-style:normal;font-variant:normal;font-weight:normal;font-stretch:normal;font-size:medium;line-height:1.25;font-family:Variable;-inkscape-font-specification:Variable;letter-spacing:0px;word-spacing:0px;fill:#ffffff;fill-opacity:1;stroke:none;stroke-width:0.23058397"
       d="m 104.25396,294.87881 v -3.13901 q 0,-0.7476 0.52692,-1.27001 0.52692,-0.52692 1.27451,-0.52692 0.74761,0 1.27002,0.52692 0.52692,0.52241 0.52692,1.27001 v 3.13901 q 0,0.1306 -0.081,0.20266 -0.081,0.0721 -0.19365,0.0721 -0.11259,0 -0.19816,-0.0721 -0.081,-0.0721 -0.081,-0.20266 v -3.13901 q 0,-0.52241 -0.36479,-0.8827 -0.36028,-0.36029 -0.8782,-0.36029 -0.52242,0 -0.88721,0.36479 -0.36029,0.36029 -0.36029,0.8782 v 3.13901 q 0,0.1306 -0.081,0.20266 -0.0811,0.0721 -0.19365,0.0721 -0.11259,0 -0.19816,-0.0721 -0.081,-0.0721 -0.081,-0.20266 z" />
    <path
       style="font-style:normal;font-variant:normal;font-weight:normal;font-stretch:normal;font-size:medium;line-height:1.25;font-family:Variable;-inkscape-font-specification:Variable;letter-spacing:0px;word-spacing:0px;fill:#21bab0;fill-opacity:1;stroke:none;stroke-width:0.59177762"
       d="m 23.592014,276.61131 c -0.299058,10e-4 -0.621607,0.0677 -0.894799,0.0111 -2.701638,2.8e-4 -5.403288,-10e-4 -8.104907,8.4e-4 -0.681833,0.0743 -0.450642,0.95196 -0.477049,1.40528 0.01436,5.43188 -0.02855,10.86917 0.02118,16.2977 0.274078,0.65015 1.159957,0.24431 1.683454,0.35652 2.624386,-0.0211 5.25718,0.0408 7.876699,-0.0286 0.56758,-0.19472 0.297056,-1.14406 -0.301898,-0.99492 H 15.13874 v -7.92256 c 2.616442,-0.0208 5.241182,0.0404 7.852777,-0.0286 0.550951,-0.20187 0.29629,-1.14973 -0.301895,-0.99492 h -7.550883 v -7.07871 h 8.298534 c 1.902532,5.7159 3.747694,11.45621 5.685465,17.15712 0.282946,0.45958 0.862391,0.0464 0.877697,-0.38334 1.89025,-5.76985 3.83116,-11.52779 5.689941,-17.30505 -0.0092,-0.58591 -1.01772,-0.6622 -1.042931,-0.0218 -1.724353,5.21278 -3.448764,10.42553 -5.173044,15.63831 -1.760988,-5.29919 -3.465933,-10.62222 -5.2613,-15.90677 -0.170107,-0.16502 -0.388486,-0.20281 -0.621099,-0.20159 z m 30.203551,0.006 v 1.9e-4 c -0.01667,0 -0.03367,10e-4 -0.05113,0.003 -3.125886,0.008 -6.251179,0.001 -9.376257,-10e-4 v 14.57905 c 0.0038,1.04224 0.0092,2.08436 0.01846,3.12606 0.274577,0.65206 1.159987,0.24311 1.68346,0.35634 2.624383,-0.0211 5.257167,0.0409 7.876693,-0.0286 0.03348,-0.0115 0.06381,-0.0256 0.09155,-0.0421 0.293216,-0.1728 0.272398,-0.59645 0.06085,-0.82189 -0.0153,-0.0163 -0.03269,-0.0305 -0.04997,-0.0445 -0.104044,-0.0847 -0.241322,-0.12711 -0.404341,-0.0865 h -8.255946 v -7.92253 c 2.617158,-0.0215 5.243064,0.0417 7.855119,-0.0296 0.06691,-0.025 0.121596,-0.061 0.165426,-0.10476 0.222641,-0.22227 0.157984,-0.64288 -0.08515,-0.8219 -0.100408,-0.0739 -0.230811,-0.10727 -0.384517,-0.0675 h -7.550878 v -7.07871 c 2.851497,-0.0205 5.711183,0.0401 8.55785,-0.0286 0.04518,-0.0146 0.0834,-0.0362 0.11839,-0.0606 0.351063,-0.24585 0.200265,-0.93245 -0.269631,-0.92609 z m -52.5484848,0.004 c -0.027834,-10e-4 -0.055637,-3e-5 -0.083007,0.003 -0.67657758,0.0773 -0.4049782,0.96165 -0.45021701,1.40295 0.0151239,5.4413 -0.0299842,10.88779 0.0221536,16.32589 0.17142035,0.57633 1.15589141,0.32485 1.00152361,-0.28031 v -8.62571 H 11.03525 c 0.02121,2.97547 -0.04144,5.95956 0.02956,8.92992 0.198581,0.55038 1.144298,0.28763 0.994128,-0.30421 -0.01542,-5.7055 0.03066,-11.41659 -0.02276,-17.11864 -0.179293,-0.57307 -1.158998,-0.33823 -1.000936,0.27683 v 7.19261 H 1.7375319 c -0.02208,-2.49628 0.042948,-5.00201 -0.030322,-7.49276 -0.068727,-0.18623 -0.2653896,-0.30177 -0.4601408,-0.30987 z m 52.9075318,0.18195 c -0.0014,-0.002 -8.37e-4,-0.001 0.0062,0.008 -0.0012,-10e-4 -0.0048,-0.006 -0.0062,-0.008 z m 0.05405,0.0819 c -0.0012,-0.002 -2.79e-4,-0.002 0.0048,0.009 -0.0012,-10e-4 -0.0038,-0.006 -0.0048,-0.009 z m 0.01982,0.0422 c -2.79e-4,-0.002 1.62e-4,-8.4e-4 0.0038,0.009 -0.0012,-0.002 -0.0031,-0.007 -0.0038,-0.009 z m 0.0083,0.0221 c -2.78e-4,-0.002 0,-10e-4 0.0031,0.009 -0.0012,-0.002 -0.0025,-0.007 -0.0031,-0.009 z m 0.0072,0.0228 c -2.79e-4,-0.002 -1.68e-4,-0.001 0.0025,0.009 -8.37e-4,-0.001 -0.0022,-0.007 -0.0025,-0.009 z m 0.01576,0.0716 c -9e-5,-0.002 2.37e-4,-10e-4 0.0014,0.0105 -8.37e-4,-0.003 -0.0012,-0.008 -0.0014,-0.0105 z m -9.892173,0.0307 c 2.79e-4,-0.004 8.37e-4,-0.007 0,0.003 -8.37e-4,0.006 -2.8e-4,8.4e-4 0,-0.003 z m -0.0014,0.0247 c -0.0014,0.024 2.18e-4,-0.0122 0,0 z m 9.895095,0.10286 c 2.79e-4,-0.002 2.79e-4,-10e-4 -0.0014,0.0105 -1e-4,-0.002 8.37e-4,-0.008 0.0014,-0.0105 z m -0.01439,0.0727 c 8.37e-4,-0.002 2.8e-4,-2.8e-4 -0.0025,0.009 8.37e-4,-0.002 0.0022,-0.007 0.0025,-0.009 z m -0.0069,0.0228 c 8.36e-4,-0.002 8.36e-4,-10e-4 -0.0031,0.009 2.8e-4,-0.002 0.0022,-0.007 0.0031,-0.009 z m -0.0078,0.0218 c 0.0012,-0.002 0.0012,-10e-4 -0.0038,0.009 4.2e-5,-10e-4 0.0025,-0.007 0.0038,-0.009 z m -0.212513,0.25446 c 0.0025,-10e-4 0.002,-2.8e-4 -0.01104,0.006 0.002,-10e-4 0.0084,-0.005 0.01104,-0.006 z m -0.234043,0.0597 c -0.01904,0.001 -0.0043,-2.8e-4 0,0 z m -0.425534,7.16988 c -0.002,-0.002 -8.36e-4,-10e-4 0.0095,0.007 -0.0025,-10e-4 -0.0076,-0.006 -0.0095,-0.007 z m 0.134326,0.16777 c -8.36e-4,-0.002 3.1e-5,-8.3e-4 0.0044,0.009 -0.0014,-0.002 -0.0038,-0.007 -0.0044,-0.009 z m 0.02702,0.0661 c -2.79e-4,-0.002 6.7e-5,-8.3e-4 0.0031,0.009 -0.0012,-0.002 -0.0025,-0.007 -0.0031,-0.009 z m 0.01804,0.0718 c -2.78e-4,-0.002 5.9e-5,-0.002 0.002,0.009 -8.37e-4,-0.001 -0.0014,-0.007 -0.002,-0.009 z m 0.0041,0.0245 c -8.7e-5,-0.002 2.28e-4,-10e-4 0.0012,0.009 -2.78e-4,-0.002 -0.0012,-0.007 -0.0012,-0.009 z m -11.442303,0.0142 c -0.03427,10e-4 -0.06987,0.007 -0.106716,0.0163 -1.710667,2.8e-4 -3.421372,-10e-4 -5.13203,8.4e-4 v 1.9e-4 c -0.660124,-0.0336 -0.617764,1.10222 0.03771,1.02271 1.804606,-0.0307 3.623619,0.0578 5.420509,-0.0375 0.505563,-0.21139 0.294649,-1.02519 -0.219473,-1.0023 z m 11.445013,0.008 c 4.1e-5,-0.002 2.12e-4,-10e-4 8.36e-4,0.0118 -2.78e-4,-0.003 -8.36e-4,-0.009 -8.36e-4,-0.0118 z m 0.0025,0.0548 c 2.78e-4,-0.004 8.37e-4,-0.002 0,0.0163 -8.37e-4,-0.004 -2.79e-4,-0.0127 0,-0.0163 z m -0.0022,0.0593 c 2.76e-4,-0.003 8.36e-4,-10e-4 -8.37e-4,0.0118 -2.78e-4,-0.002 1.62e-4,-0.009 8.37e-4,-0.0118 z m -0.0022,0.0256 c 2.8e-4,-0.002 2.8e-4,-10e-4 -0.0012,0.009 -3.1e-5,-0.002 8.37e-4,-0.007 0.0012,-0.009 z m -0.174956,0.34252 c 0.0022,-0.001 0.0014,-2.8e-4 -0.0095,0.007 0.002,-0.002 0.0073,-0.006 0.0095,-0.007 z m -0.03653,0.0267 c 0.002,-0.001 8.37e-4,-1.6e-4 -0.0097,0.005 0.0025,-0.002 0.0078,-0.004 0.0097,-0.005 z m -0.01927,0.0115 c 0.0025,-10e-4 0.0014,-2.7e-4 -0.01033,0.005 0.002,-10e-4 0.0078,-0.004 0.01033,-0.005 z m -0.0206,0.0107 c 0.0025,-0.001 0.0014,-2.3e-4 -0.01033,0.005 0.002,-0.001 0.0078,-0.004 0.01033,-0.005 z m -0.02099,0.009 c 0.0022,-8.3e-4 0.0012,-10e-5 -0.01091,0.004 0.0025,-10e-4 0.0085,-0.003 0.01091,-0.004 z m -0.191879,0.0391 c -0.01904,10e-4 -0.0043,-2.8e-4 0,0 z m 0.98092,8.01802 c -0.002,-0.002 -8.36e-4,-10e-4 0.0092,0.007 -0.0022,-10e-4 -0.0072,-0.006 -0.0092,-0.007 z m 0.01748,0.015 c -0.0014,-0.002 -2.79e-4,-8.3e-4 0.0085,0.008 -0.0022,-0.002 -0.0069,-0.006 -0.0085,-0.008 z m 0.07581,0.0832 c -0.0014,-0.002 -8.35e-4,-10e-4 0.0062,0.007 -0.0012,-10e-4 -0.0048,-0.005 -0.0062,-0.007 z m 0.04238,0.0608 c -0.0012,-0.002 -8.37e-4,-0.002 0.0053,0.008 -0.0012,-8.4e-4 -0.0041,-0.006 -0.0053,-0.008 z m 0.01166,0.0207 c -8.36e-4,-0.002 -2.43e-4,-0.001 0.0044,0.008 -0.0012,-0.002 -0.0038,-0.006 -0.0044,-0.008 z m 0.02817,0.0642 c -8.36e-4,-0.002 -1.58e-4,-10e-4 0.0034,0.009 -0.0012,-0.002 -0.0025,-0.007 -0.0034,-0.009 z m 0.0072,0.0228 c -2.79e-4,-0.002 -1.7e-4,-10e-4 0.0025,0.009 -8.37e-4,-0.001 -0.0022,-0.007 -0.0025,-0.009 z m 0.01576,0.0716 c -8.7e-5,-0.002 2.4e-4,-10e-4 0.0014,0.0105 -8.37e-4,-0.002 -0.0012,-0.008 -0.0014,-0.0105 z m -9.894122,0.10887 c -2.09e-4,-0.004 -2.8e-4,-0.007 2.79e-4,0.004 1.09e-4,0.006 -1.71e-4,5e-5 -2.79e-4,-0.004 z m 0.002,0.0258 c 0.0014,0.021 -0.0014,-0.0121 0,0 z m 9.893537,0.0235 c 2.79e-4,-0.002 2.79e-4,-0.001 -0.0014,0.0105 -1.03e-4,-0.002 8.37e-4,-0.008 0.0014,-0.0105 z m -9.890617,0.003 c -8.36e-4,-0.004 -0.0012,-0.008 2.79e-4,10e-4 8.37e-4,0.007 2.17e-4,0.003 -2.79e-4,-10e-4 z m 0.0041,0.0233 c 0.0038,0.0205 -0.0031,-0.0136 0,0 z m 9.872347,0.0461 c 8.35e-4,-0.002 2.08e-4,-2.8e-4 -0.0031,0.009 8.37e-4,-0.002 0.0022,-0.007 0.0031,-0.009 z m -0.0069,0.0228 c 8.37e-4,-0.002 2.78e-4,-10e-4 -0.0034,0.009 2.79e-4,-0.002 0.0022,-0.007 0.0034,-0.009 z m -9.846692,8.4e-4 c 0.0051,0.015 -0.0054,-0.0141 0,0 z m 0.008,0.021 c 0.0087,0.0219 -0.0067,-0.0155 0,0 z m 0.0097,0.0216 c 0.0084,0.0181 -0.0082,-0.0164 0,0 z m 0.0832,0.12207 c 0.01553,0.0175 -0.0089,-0.009 0,0 z m 0.03908,0.0396 c -0.0034,-0.003 -0.0056,-0.005 0.0031,0.002 0.0045,0.004 2.09e-4,2.8e-4 -0.0031,-0.002 z m 9.485699,0.0716 c 0.0025,-10e-4 0.0014,-2.7e-4 -0.01033,0.005 0.002,-10e-4 0.0078,-0.004 0.01033,-0.005 z m -0.0208,0.0107 c 0.0025,-0.001 0.002,-2.4e-4 -0.01012,0.005 0.002,-0.001 0.0076,-0.004 0.01012,-0.005 z m -9.340303,0.003 c -0.0043,-0.002 -0.0083,-0.004 8.37e-4,0 0.0082,0.004 0.0034,0.002 -8.37e-4,0 z m 9.319302,0.006 c 0.0022,-8.3e-4 0.0012,-9e-5 -0.01068,0.004 0.0025,-10e-4 0.0083,-0.003 0.01068,-0.004 z m -9.299462,0.003 c -0.0047,-0.002 -0.0084,-0.004 0.0025,8.3e-4 0.0078,0.003 0.0022,0.001 -0.0025,-8.3e-4 z m 0.02314,0.008 c 0,0 1.9e-4,0 1.9e-4,0 0,0 -1.9e-4,0 -1.9e-4,0 z m 0.06726,0.0184 c -0.0043,-8.4e-4 -0.0078,-10e-4 0.0025,2.8e-4 0.0069,10e-4 0.002,2.8e-4 -0.0025,-2.8e-4 z m 0.02487,0.004 c 0.01801,0.003 -0.01525,-0.002 0,0 z m 0.02448,0.003 c -0.0041,-2.8e-4 -0.0072,-8.4e-4 0.0034,0 0.006,8.3e-4 8.37e-4,2.8e-4 -0.0034,0 z"
       id="path4607-4-9-6-8"
       inkscape:connector-curvature="0" />
  </g>
</svg>
