<?xml version="1.0" standalone="no"?>
<!DOCTYPE svg PUBLIC "-//W3C//DTD SVG 1.1//EN" "http://www.w3.org/Graphics/SVG/1.1/DTD/svg11.dtd" >
<svg xmlns="http://www.w3.org/2000/svg" xmlns:xlink="http://www.w3.org/1999/xlink" version="1.1">
<metadata>
Created by FontForge 20161013 at Fri Jul  7 12:28:44 2017
 By stefano,,,
</metadata>
<defs>
<font id="thinkhazard" horiz-adv-x="1024" >
  <font-face 
    font-family="thinkhazard"
    font-weight="400"
    font-stretch="normal"
    units-per-em="1024"
    panose-1="0 0 0 0 0 0 0 0 0 0"
    ascent="960"
    descent="-64"
    bbox="0 -65 1024.33 960"
    underline-thickness="0"
    underline-position="0"
    unicode-range="U+0001-FFFD"
  />
<missing-glyph 
 />
    <glyph glyph-name=".notdef" unicode="&#xfffd;" 
 />
    <glyph glyph-name="glyph1" horiz-adv-x="0" 
d="M0 0v0v0v0z" />
    <glyph glyph-name="glyph1" horiz-adv-x="0" 
d="M0 0v0v0v0z" />
    <glyph glyph-name="nonmarkingreturn" horiz-adv-x="341" 
 />
    <glyph glyph-name="uni0001" horiz-adv-x="0" 
d="M0 0v0v0v0z" />
    <glyph glyph-name="space" unicode=" " horiz-adv-x="512" 
d="M0 0v0v0v0z" />
    <glyph glyph-name="uniE600" unicode="&#xe600;" 
d="M1024 465h-497q-1 15 -1.5 30t-0.5 30q0 7 -1 14t1 14l10 32l10 32v4v4q-7 18 -13.5 36t-13.5 36q-1 3 -1 5t1 5q4 9 8 17.5t8 17.5q1 4 3 5t6 1q16 -1 33 -1.5t34 -1.5h0.5h0.5h1.5t1.5 -1q0 -1 -0.5 -1.5t-0.5 -1.5l-12 -24t-11 -24q-1 -2 -1 -3.5t1 -3.5
q8 -12 16.5 -24t17.5 -24q1 -2 2 -3t3 -2q19 -7 38.5 -13.5t38.5 -13.5q3 -1 4 -0.5t2 2.5q6 18 11.5 35t11.5 34v3.5t-2 2.5q-18 14 -36 28.5t-35 29.5q-13 11 -26.5 21t-20.5 26l-1 1v0l-1.5 1.5t-1.5 0.5q-4 -1 -7.5 -0.5t-7.5 0.5l-42 2l-42 2v0q-3 0 -4.5 -1t-2.5 -3
q-9 -15 -18.5 -30t-18.5 -29q-2 -3 -2 -5t1 -5q5 -15 10.5 -30t10.5 -30q1 -3 1.5 -6.5t-0.5 -7.5q-7 -21 -13 -43l-12 -44l-2 -8t-1 -8l2 -16l2 -16q2 -12 3.5 -24t2.5 -24h-471v-8.5v-8.5q0 -106 40 -199.5t109.5 -163t163 -109.5t199.5 -40t199.5 40t163 109.5t109.5 163
t40 199.5v8.5v8.5v0zM621 428q1 1 2.5 1t2.5 -2q12 -12 24.5 -24t24.5 -25q2 -1 2.5 -2.5t0.5 -2.5q0 -20 1 -39.5t2 -39.5q1 -5 -1 -7.5t-7 -3.5q-22 -7 -43.5 -14.5t-43.5 -14.5q-2 -1 -3.5 -1t-3.5 1q-12 8 -25 15t-26 15q-2 1 -3 2.5t-1 3.5q-5 19 -9.5 38.5t-9.5 39.5
q0 2 0.5 3.5t3.5 2.5q14 7 28.5 14t28.5 14t27.5 13.5t27.5 12.5v0zM263 421q21 -3 41.5 -6t41.5 -6q6 -1 11.5 -2t11.5 -2q3 0 3 -1t-1 -3q-3 -14 -6 -28.5t-6 -29.5q-1 -7 -3 -15t-3 -16q-1 -3 -2 -4t-4 1q-25 18 -50 35t-50 35q-3 2 -4 5.5t-2 6.5q-4 8 -7 17l-6 18
q9 -2 18 -3t17 -2v0zM103 261q-9 23 -17.5 45.5t-17.5 45.5v3.5v3.5q2 7 3.5 14t3.5 15q9 -9 16.5 -17.5t14.5 -16.5q13 -15 26.5 -30t26.5 -30q2 -3 2 -4.5t-3 -2.5q-12 -7 -24.5 -14t-24.5 -14q-2 -2 -3.5 -1.5t-2.5 3.5zM164 175q-7 12 -14 24.5t-14 24.5q-2 3 -1.5 4
t2.5 3q18 14 35.5 27.5t35.5 27.5q2 2 2.5 3.5t-2.5 4.5q-13 13 -25.5 26.5t-25.5 27.5q-2 1 -3 3t-3 3q-7 5 -7.5 10.5t3.5 12.5q5 12 9.5 24t10.5 25q5 -8 9.5 -15t8.5 -14q4 -6 7.5 -11.5t7.5 -11.5q2 -4 5 -6t7 -4q31 -18 61.5 -36t61.5 -36q3 -1 3.5 -2.5t-2.5 -3.5
l-46.5 -46.5l-46.5 -46.5q-1 -1 -2.5 -2t-3.5 -1q-16 -5 -32 -9.5t-33 -8.5q-3 -1 -4.5 -0.5t-3.5 3.5v0zM220 86l-3 -1.5t-3 2.5q-8 15 -16.5 30t-17.5 30v1.5t-1 1.5q13 3 25 5.5t24 5.5q2 1 4.5 0t4.5 -3q6 -5 12 -10.5t13 -10.5q2 -2 2 -3.5t-2 -4.5q-10 -11 -20 -22.5
t-22 -20.5zM413 73q-1 -13 -1.5 -26.5t-1.5 -26.5q0 -1 -0.5 -2.5t-1.5 -2.5q-3 -4 -6.5 -8t-6.5 -8q-1 -1 -2.5 -1.5t-3.5 0.5q-24 9 -48 17.5t-48 17.5q-4 1 -6 3t-5 4q-8 6 -15.5 12.5t-15.5 12.5q-2 1 -2 2t2 2q9 9 18 18.5t18 18.5q2 2 3.5 1.5t3.5 -1.5
q12 -7 25 -13.5t25 -13.5q5 -3 9.5 -3.5t8.5 -0.5q12 1 23.5 2t22.5 2q3 0 4.5 -1.5t0.5 -4.5v0zM378 97v0.5v0.5q-4 -1 -8.5 -1t-8.5 -1q-3 0 -5 0.5t-4 2.5q-14 11 -27 21l-26 20q-9 7 -17.5 14t-17.5 13q-2 2 -1.5 3l1.5 3q9 8 17.5 16.5l17.5 17.5l42.5 42.5l43.5 43.5
q2 2 3.5 5t2.5 6q5 23 10.5 45.5t10.5 44.5q1 4 2.5 6t5.5 2q5 1 10.5 2.5t10.5 3.5q4 1 5.5 -0.5t2.5 -3.5l14 -36l14 -36q11 -26 21 -51.5t20 -50.5q2 -3 2 -6t-1 -6q-6 -26 -12.5 -52.5t-13.5 -52.5q-1 -3 -2 -4t-5 -2q-17 -1 -34.5 -2.5t-34.5 -3.5q-10 -1 -19.5 -2
t-19.5 -2zM607 47q-5 -13 -9.5 -26.5t-9.5 -27.5q-1 -2 -2 -3t-4 -1h-21h-21h-18.5h-18.5q-4 0 -7.5 1t-6.5 4q-10 8 -20 15.5t-20 15.5q-4 2 -5.5 5.5t-2.5 7.5q-1 12 -2.5 23t-3.5 22q0 3 0.5 4t2.5 1q11 1 22.5 2t22.5 2q8 1 16.5 1.5t17.5 1.5q4 0 7.5 -0.5t7.5 -2.5
q18 -10 35.5 -20t35.5 -19q2 -1 3.5 -2t0.5 -4v0zM726 36l-38 -16t-38 -17q-3 -1 -4.5 -0.5t-1.5 3.5q1 8 0.5 16t-0.5 16v16v16q0 3 1 4t4 2q14 4 28 7.5t28 6.5q3 1 4.5 0.5t2.5 -3.5q4 -11 8.5 -22t8.5 -22q1 -3 0.5 -4.5t-3.5 -2.5v0zM726 143l-34 -18l-34 -18
q-11 -5 -21.5 -10.5t-20.5 -10.5q-2 -2 -4 -2t-5 1q-20 10 -40.5 19t-40.5 18q-3 2 -4 3.5t0 4.5q6 19 11.5 38.5t11.5 38.5q0 2 1.5 3.5t3.5 1.5q36 11 72.5 21.5t72.5 21.5q6 1 7 0.5t2 -5.5q6 -25 12.5 -50t12.5 -49q1 -1 1 -2v-1q0 -3 -1.5 -3.5t-2.5 -1.5zM806 91
q-11 -5 -23 -9.5t-23 -8.5q-1 0 -1.5 -0.5t-1.5 -0.5t-1.5 1t-0.5 2q-3 8 -5.5 17t-5.5 18v2t1 2q5 7 10.5 14.5t10.5 14.5q2 2 2.5 2t1.5 -1q8 -7 16 -13t17 -13l2 -2t1 -3q0 -5 1 -9t2 -9q0 -2 -0.5 -3t-2.5 -1v0zM904 216q-21 -16 -41.5 -32t-41.5 -32q-2 -1 -3.5 -1
t-4.5 1q-8 4 -15.5 8t-16.5 8q-8 3 -16 7.5t-17 8.5q-2 1 -3.5 3t-1.5 4q-4 21 -7.5 41.5t-7.5 40.5q-4 23 -8 45l-8 44q-1 1 -1 2.5t1 2.5q9 -5 19 -10.5t19 -10.5q22 -13 44 -25t44 -25q6 -3 10.5 -8.5t8.5 -10.5q12 -13 24 -26.5t24 -26.5q2 -3 2 -4.5t-3 -3.5v0z
M977 416q-6 -20 -12.5 -40t-12.5 -40q-8 -23 -15.5 -45.5t-14.5 -44.5q0 -1 -0.5 -2l-1.5 -3q-7 11 -14.5 21t-15.5 20q-8 11 -16.5 22.5t-16.5 23.5l-2.5 2.5t-3.5 2.5q-39 22 -78 44.5t-78 45.5q-1 0 -1.5 0.5t-2.5 1.5q9 0 17.5 0.5t17.5 -0.5h22t22 -1h54t54 -1
q20 -1 39 -1h38q4 0 9 -0.5t9 -0.5q3 0 4 -1t0 -4v0z" />
    <glyph glyph-name="uniE601" unicode="&#xe601;" 
d="M918 494q-1 3 -4 5.5t-7 2.5t-7 -2t-5 -5l-15.5 -33t-27.5 -54q-11 28 -27 69l-16 41q-1 4 -4 6t-7 2t-7.5 -2t-4.5 -6l-39 -94l-34 165q-1 4 -4.5 7t-7.5 3q-5 0 -8.5 -3t-4.5 -7l-59 -326l-31 536q0 5 -3.5 8.5t-8.5 3.5v0v0q-5 0 -8.5 -3t-4.5 -8l-82 -543l4 462
q1 5 -2.5 8.5t-7.5 4.5q-5 1 -9 -2t-5 -7q-1 0 -13.5 -45.5t-31 -108.5t-38 -130t-32.5 -111q-1 22 -1 49.5v56.5q0 65 0.5 120.5l0.5 55.5q0 5 -3 8.5t-8 4.5t-9 -2t-5 -7l-64 -256l-45 100q-2 4 -4.5 6t-6.5 2t-7 -1.5t-5 -5.5l-52 -90l-40 124q-1 4 -3.5 6t-6.5 3
q-3 0 -6.5 -1t-5.5 -4l-55 -78q-6 1 -13.5 2.5t-15.5 2.5q0 -7 0.5 -13t0.5 -13q11 -1 20 -3l9 -2l14 4l46 65l41 -128q1 -3 4 -5.5t6 -2.5q4 -1 7.5 1t5.5 5l54 94l50 -111q2 -4 5.5 -6t7.5 -2q4 1 7 3.5t4 6.5l47 186q0 -17 -0.5 -34t-0.5 -35q0 -46 1 -88t3 -62
q4 -8 4 -12.5t12 -13.5q5 1 7.5 3t3.5 3q4 7 16.5 46.5t28.5 93.5t33.5 114t30.5 107l-5 -547q0 -5 3.5 -8.5t8.5 -4.5q5 0 9 3t4 8l91 599l29 -519q1 -5 4 -8.5t8 -3.5t9 2.5t4 7.5l67 366l30 -142q1 -4 4 -7t7 -3q4 -1 7.5 1.5t5.5 6.5l42 103q10 -25 22 -56.5t15 -39.5
q0 -3 4 -7t10 -4q17 6 32 34t25 51l26 -69l13 -8l77 8q0 7 0.5 13.5t1.5 12.5l-72 -8l-33 88v0z" />
    <glyph glyph-name="uniE602" unicode="&#xe602;" 
d="M868 379q-13 -2 -24.5 -4t-21.5 -6q-10 -3 -18.5 -7.5t-15.5 -8.5q-2 -1 -4.5 -2.5t-4.5 -2.5q-6 -3 -11.5 -6.5t-10.5 -5.5q-2 -1 -3.5 -1.5t-3.5 -1.5h-1l-1 -1q-9 -3 -20.5 -5.5t-28.5 -2.5q-15 0 -26 2t-20 5q-1 1 -1.5 1h-1.5q-5 3 -10.5 5.5t-11.5 5.5
q-9 5 -20 11.5t-25 12.5q-14 5 -31.5 8.5t-39.5 3.5v0v0q-20 0 -36 -2.5t-29 -7.5q-10 -3 -18.5 -7.5t-15.5 -8.5q-11 -6 -20 -11t-18 -9h-1l-1 -1q-9 -3 -20.5 -5.5t-28.5 -2.5q-15 0 -26 2t-20 5q-1 1 -1.5 1h-1.5l-4 2l-4 2l-7 3.5l-7 3.5q-3 2 -7 4.5t-9 4.5
q-6 4 -13 7.5t-16 7.5q-8 3 -16.5 5.5t-18.5 3.5q-15 3 -25.5 -5t-10.5 -20t6.5 -20.5t16.5 -9.5q7 -1 12.5 -2.5t10.5 -2.5q7 -3 12.5 -6t12.5 -6q9 -5 20 -11.5t25 -12.5q3 -1 6.5 -2.5t7.5 -2.5q12 -3 26 -5t31 -2q20 0 36 2.5t29 7.5q10 3 18.5 7.5t15.5 8.5q11 6 20 11
t18 9q10 4 21.5 6t29.5 3q15 -1 26 -2.5t20 -4.5q7 -3 12.5 -6t12.5 -6q9 -5 20 -11.5t25 -12.5q14 -5 31.5 -8.5t39.5 -3.5q17 0 31.5 2t26.5 5q2 1 3.5 1.5t3.5 1.5q10 3 18.5 7.5t15.5 8.5q11 6 20 11t18 9l12 4t13 3q11 1 18.5 9.5t7.5 20.5v14q0 6 -5.5 10t-13.5 4v0z
M267 489v-113q1 -1 2 -1.5l1 -0.5q6 -4 10 -6t8 -3h0.5t0.5 -1q5 -1 13.5 -3t21.5 -2q15 0 23 2t14 4l1 1q6 2 11.5 5t12.5 7q3 2 5 3t4 3l18 9t22 9q17 6 36.5 9t39.5 3h1q23 0 44 -3.5t40 -11.5q13 -5 23 -10.5t18 -10.5q2 -1 4.5 -2t3.5 -2q6 -4 10 -6t8 -3h0.5t0.5 -1
q5 -1 13.5 -3t21.5 -2q15 0 23 2t14 4h0.5t0.5 1q5 1 9.5 3.5t10.5 6.5v113l-245 193l-245 -193v0zM491 769l-307 -237q-9 -7 -10.5 -18.5t5.5 -20.5t18.5 -10.5t20.5 5.5l294 227l293 -227q4 -3 8.5 -4.5t8.5 -1.5q6 0 12 2.5t10 8.5q7 9 5.5 20.5t-10.5 18.5l-127 98v107
q0 6 -4.5 10.5t-10.5 4.5h-60q-6 0 -10 -4.5t-4 -10.5v-38l-94 73q-1 0 -1.5 0.5l-0.5 0.5q-4 3 -7.5 4t-7.5 1q-5 0 -9 -1.5t-8 -4.5l-4 -3v0zM868 284q-13 -1 -24.5 -3.5t-21.5 -6.5q-10 -3 -18.5 -7t-15.5 -8q-11 -7 -20 -12t-18 -9h-0.5h-0.5q-9 -3 -20.5 -5.5
t-29.5 -2.5q-15 0 -26 2t-20 5q-7 2 -12.5 5t-12.5 6q-9 6 -20 12t-25 12t-31.5 9.5t-39.5 3.5v0v0q-20 0 -36 -3t-29 -7q-10 -4 -18.5 -8t-15.5 -8q-11 -7 -20 -12t-18 -9q-10 -3 -21.5 -5.5t-29.5 -2.5q-15 0 -26 2t-20 5q-1 0 -2 0.5t-2 0.5q-5 2 -10 4.5l-11 5.5
q-9 6 -20 12t-25 12q-7 3 -16 5.5t-19 4.5q-15 2 -25.5 -6t-10.5 -20q0 -11 7 -19.5t16 -10.5q7 -1 12.5 -2t10.5 -3q7 -2 12.5 -5t12.5 -7q9 -5 20 -11.5t25 -11.5q14 -6 31.5 -9.5t39.5 -3.5q20 0 36 3t29 7q10 4 18.5 8t15.5 8q11 6 20 11.5t18 8.5l6 2l6 2q7 2 16.5 3.5
t22.5 1.5q12 0 21.5 -1.5t17.5 -3.5q2 0 3.5 -0.5t3.5 -1.5q7 -2 12.5 -5t12.5 -7q9 -5 20 -11.5t25 -11.5q14 -6 31.5 -9.5t39.5 -3.5q20 0 36 3t29 7q10 4 18.5 8t15.5 8q11 6 20 11.5t18 8.5l12 4t13 3q11 2 18.5 10.5t7.5 19.5v15q0 5 -5.5 9.5t-13.5 3.5v0z" />
    <glyph glyph-name="uniE603" unicode="&#xe603;" 
d="M884 733l-131 -80l-125 -184l-163 -80l-65 -118l-122 -63l-117 -133q34 -33 74 -58.5t84.5 -43.5t93 -28t99.5 -10q106 0 199.5 40.5t163 110t109.5 162.5t40 199q0 45 -7.5 87.5t-21 82t-33.5 76t-46 68.5l-32 -28v0zM525 475l80 45l-33 115l-101 -44l9 -77zM462 487
l-41 21l-15 -59l-3 -42l92 44l-12 18t-21 18v0zM284 377l-68 -95l65 -17l75 35l-24 83zM198 226l12 92l-77 42l-27 -92l45 -66zM172 173l-72 53l-29 -38q11 -20 24 -38.5t28 -35.5zM284 508l-68 -45l9 -71l98 33l44 53l-26 36zM792 742l35 -6l18 36l-12 44l-41 -14v-60z" />
    <glyph glyph-name="uniE604" unicode="&#xe604;" 
d="M854 450q-6 -2 -12 -2.5t-13 -0.5q-34 0 -58.5 20t-24.5 48v1v0.5v0.5q0 1 -0.5 2.5t-1.5 2.5t-2 1.5t-2 0.5h-30q-1 0 -2.5 -0.5t-2.5 -1.5q0 -1 -0.5 -2.5t-0.5 -2.5v-0.5v-0.5v-1q0 -28 -24.5 -48t-59.5 -20t-59.5 20t-24.5 48v2v2.5t-1 2.5t-2.5 1.5t-2.5 0.5h-29
q-2 0 -3 -0.5t-2 -1.5t-1.5 -2.5t-0.5 -2.5l1 -2q0 -28 -25 -48t-59 -20q-35 0 -59.5 20t-24.5 48v1v0.5v0.5q0 1 -0.5 2.5t-1.5 2.5q0 1 -1.5 1.5t-2.5 0.5h-30q-1 0 -2 -0.5t-2 -1.5t-1.5 -2.5t-0.5 -2.5v-2q0 -28 -24.5 -48t-59.5 -20q-7 0 -15 1t-15 4h-3.5t-2.5 -1
t-1.5 -2.5t-0.5 -2.5v-24q0 -2 1 -4t3 -2q9 -2 17.5 -3t16.5 -1q33 0 60.5 12.5t44.5 35.5q17 -23 45 -35.5t60 -12.5t59.5 12.5t44.5 35.5q17 -23 45 -35.5t60 -12.5t60 12.5t45 35.5q17 -23 44.5 -35.5t60.5 -12.5q6 0 13 0.5t13 1.5q3 1 4 2.5t1 3.5v24q0 1 -0.5 2.5
t-1.5 2.5t-2.5 1h-2.5v0zM854 304q-6 -2 -12 -2.5t-13 -0.5q-34 0 -58.5 19.5t-24.5 47.5v2v0.5v0.5q0 1 -0.5 2.5t-1.5 1.5q-1 1 -2 1.5t-2 0.5h-30q-1 0 -2.5 -0.5t-2.5 -1.5l-0.5 -1.5t-0.5 -2.5v-0.5v-0.5v-2q0 -28 -24.5 -47.5t-59.5 -19.5t-59.5 19.5t-24.5 47.5v3
v2.5t-1 1.5q-1 1 -2.5 1.5t-2.5 0.5h-29q-2 0 -3 -0.5t-2 -1.5q-1 0 -1.5 -1.5t-0.5 -2.5l1 -3q0 -28 -25 -47.5t-59 -19.5q-35 0 -59.5 19.5t-24.5 47.5v2v0.5v0.5q0 1 -0.5 2.5t-1.5 1.5q0 1 -1.5 1.5t-2.5 0.5h-30q-1 0 -2 -0.5t-2 -1.5q-1 0 -1.5 -1.5t-0.5 -2.5v-3
q0 -28 -24.5 -47.5t-59.5 -19.5q-7 0 -15 1t-15 3q-2 1 -3.5 0.5t-2.5 -0.5q-1 -1 -1.5 -2.5t-0.5 -2.5v-24q0 -3 1 -4.5t3 -1.5q9 -2 17.5 -3t16.5 -1q33 0 60.5 12.5t44.5 34.5q17 -22 45 -34.5t60 -12.5t59.5 12.5t44.5 34.5q17 -22 45 -34.5t60 -12.5t60 12.5t45 34.5
q17 -22 44.5 -34.5t60.5 -12.5q6 0 13 0.5t13 1.5q3 0 4 2t1 4v24q0 1 -0.5 2.5t-1.5 2.5q-1 0 -2.5 0.5t-2.5 0.5v0zM854 157l-12 -2t-13 -1q-34 0 -58.5 20t-24.5 48v1v1v1q0 1 -0.5 2t-1.5 2t-2 1.5t-2 0.5h-30q-1 0 -2.5 -0.5t-2.5 -1.5q0 -1 -0.5 -2t-0.5 -2v-1v-1v-1
q0 -28 -24.5 -48t-59.5 -20t-59.5 20t-24.5 48v3v2t-1 2t-2.5 1.5t-2.5 0.5h-29q-2 0 -3 -0.5t-2 -1.5t-1.5 -2t-0.5 -2l1 -3q0 -28 -25 -48t-59 -20q-35 0 -59.5 20t-24.5 48v1v1v1q0 1 -0.5 2t-1.5 2q0 1 -1.5 1.5t-2.5 0.5h-30q-1 0 -2 -0.5t-2 -1.5t-1.5 -2t-0.5 -2v-3
q0 -28 -24.5 -48t-59.5 -20q-7 0 -15 1.5t-15 3.5q-2 1 -3.5 0.5t-2.5 -1.5t-1.5 -2t-0.5 -3v-24q0 -2 1 -3.5t3 -2.5q9 -2 17.5 -3t16.5 -1q33 0 60.5 13t44.5 35q17 -22 45 -35t60 -13t59.5 13t44.5 35q17 -22 45 -35t60 -13t60 13t45 35q17 -22 44.5 -35t60.5 -13
q6 0 13 1t13 2q3 0 4 2t1 4v23q0 2 -0.5 3t-1.5 2t-2.5 1.5t-2.5 -0.5v0zM281 718q-3 -2 -3.5 -6.5t1.5 -7.5q1 -2 3 -4t5 -2h36v-78q0 -7 4.5 -11t10.5 -4h66q6 0 10 4t4 10v79h38q3 0 6 1.5t4 4.5t0.5 7t-2.5 7l-81 81q-3 2 -5.5 3t-5.5 1q-2 0 -5 -1t-5 -3zM560 718
q-2 -2 -2.5 -6.5t0.5 -7.5q1 -2 3 -4t5 -2h37v-78q0 -6 4 -10.5t10 -4.5h66q6 0 10 4.5t4 9.5v79h38q4 0 6.5 1.5t3.5 4.5q2 3 1 7t-3 7l-81 81q-2 2 -5 3t-5 1q-3 0 -6 -1t-5 -3l-81 -81v0z" />
    <glyph glyph-name="uniE605" unicode="&#xe605;" 
d="M544 541q-71 72 -37 120.5t49 57.5q15 8 58.5 23.5t74.5 3.5l-32 13.5t-58 14.5q-13 1 -20.5 1.5t-13.5 0.5t-12.5 -0.5t-16.5 -1.5q-30 -2 -61 -13t-68 -28q-36 -17 -87.5 -59.5l-51.5 -42.5l-53.5 -52.5t-65.5 -61.5q-11 -10 -39.5 -31t-53.5 -28q-26 -6 -41 -8l-15 -2
q0 -106 40 -199t109.5 -163t163 -110t199.5 -40t199.5 40t163 110t109.5 163t40 199h-230l-26.5 2t-65 11t-81.5 27.5t-77 52.5v0z" />
    <glyph glyph-name="uniE606" unicode="&#xe606;" 
d="M429 476l-294 -374q37 -40 82 -72.5t97 -53.5q45 -19 95 -29.5t103 -10.5t103 10.5t95 29.5q56 23 105 59t87 82l-282 359h-191v0zM269 837h46q-17 -5 -27.5 -18.5t-10.5 -31.5q0 -22 15.5 -37.5t37.5 -15.5h50q-18 -4 -30 -18.5t-12 -33.5q0 -22 15.5 -37t37.5 -15h60
q-21 0 -36.5 -15.5t-15.5 -37.5t15.5 -37.5t36.5 -15.5h146q22 0 37.5 15.5t15.5 37.5t-15.5 37.5t-37.5 15.5h61q22 0 37.5 15t15.5 37q0 19 -12 33.5t-31 18.5h51q22 0 37.5 15.5t15.5 37.5q0 18 -10.5 31.5t-27.5 18.5h46q11 0 20 4t16 10l2.5 2.5l2.5 2.5q-12 10 -25 18
l-26 16q-29 17 -60.5 30t-64.5 22q-32 9 -65 13.5t-68 4.5t-68 -4.5t-65 -13.5q-27 -7 -52.5 -17t-49.5 -22q-15 -8 -29 -16.5t-28 -17.5q1 -2 2 -3.5t2 -3.5q7 -11 18.5 -18t26.5 -7v0z" />
    <glyph glyph-name="uniE607" unicode="&#xe607;" 
d="M764 156l-13 -6.5l-15 -7.5t-17 -7.5t-18 -7.5q-5 -2 -10.5 -3.5t-10.5 -3.5q-3 -1 -5.5 -1.5t-5.5 -1.5t-6 -1.5t-6 -1.5q-5 -1 -11 -2.5t-13 -2.5q-6 -1 -12.5 -1.5t-12.5 -1.5q-7 -1 -13.5 -1.5t-13.5 -0.5q-3 0 -6.5 -0.5t-7.5 -0.5q-3 0 -6.5 0.5t-7.5 0.5
q-28 1 -58 6.5t-59 16.5q-29 12 -57 28.5t-53 39.5l-11.5 11.5l-11.5 11.5h-1l-1 2l-4 4l-6 8l-6 7q-2 2 -3 3.5t-2 3.5l-4 6l-4 6t-4 6.5t-3 7.5q-5 7 -8 14.5t-6 14.5q-12 31 -16 64.5t2 66.5q1 8 3 16t3 16l6 16l2 8l4 7q6 16 15 30t18 27l11 12l3 4l1 1v1q0 -1 0 -0.5
t1 0.5v0v0l6 6q8 8 13 11.5t11 8.5q12 9 26 15.5t28 11.5q7 2 14.5 3.5t14.5 3.5q8 0 15.5 1t14.5 1q15 0 29.5 -2t28.5 -6t27 -9.5t25 -13.5q6 -3 11.5 -7.5t11.5 -8.5h1q0 -1 0 -0.5t-1 0.5v0.5v0.5v-1l2 -1l3 -3l5 -5q4 -3 5.5 -5t3.5 -4q4 -4 8 -9.5t8 -10.5
q1 -2 3 -4.5t3 -5.5q2 -3 3 -5.5t3 -5.5l2 -5l3 -6q1 -3 2 -5.5t2 -5.5q1 -6 2.5 -11.5t2.5 -10.5q2 -11 2.5 -22t0.5 -21q0 -5 -0.5 -9.5t-1.5 -9.5q-1 -4 -1.5 -8.5t-1.5 -9.5q-5 -16 -10.5 -28.5t-10.5 -21.5q-5 -8 -7.5 -12.5l-2.5 -4.5l4 3t12 10q7 7 17 17.5t20 27.5
t17.5 40t9.5 51q1 14 -0.5 29.5t-5.5 31.5q-1 4 -1.5 8t-2.5 8q-1 4 -2.5 8t-3.5 8q-1 4 -3 8l-4 8t-4.5 8t-5.5 8q-2 5 -5 9t-5 7l-7 9l-2 2v0l-0.5 0.5l-0.5 0.5q0 1 -0.5 1.5t-0.5 -0.5l-1 1q-6 7 -12.5 14t-14.5 13q-14 13 -31.5 24t-36.5 20l-10 4l-10 4
q-5 1 -10.5 2.5t-10.5 3.5t-10.5 3t-11.5 2l-10 2q-3 0 -6 0.5t-6 0.5q-7 1 -14.5 1.5t-15.5 0.5q-15 0 -30.5 -2t-31.5 -5q-23 -5 -45.5 -14t-43.5 -22q-11 -7 -22.5 -15t-17.5 -14l-8 -7h-1q-2 -2 -2 -2.5v-0.5v0v0l-1 -1l-2 -2l-4 -4l-17 -18q-4 -4 -7.5 -9t-7.5 -10
q-3 -5 -7 -10t-7 -10l-12 -21q-3 -6 -5.5 -11.5t-5.5 -11.5l-5 -11l-5 -11l-4 -12l-4 -12l-6 -24t-4 -24q-8 -49 -1 -99t26 -94l10 -22t12 -21q3 -5 6.5 -10.5t6.5 -10.5l8 -10l8 -10q2 -2 4 -5t4 -4l7 -8l8 -8l8 -8q8 -7 16.5 -14.5t17.5 -13.5q35 -27 74 -45t78 -27
t76.5 -10t70.5 4q5 1 9 1.5t8 1.5q4 0 8 1l8 2q8 2 15.5 4t14.5 5q8 2 15 4.5t13 4.5q7 4 13.5 6.5t12.5 5.5q3 2 6 3.5l5 2.5q3 2 6 3.5t5 3.5q6 3 11 6.5t10 6.5q9 7 17.5 13t15.5 13q7 6 13 12l11 11t8.5 10t6.5 9q7 8 10 12l3 4l-4.5 -3t-12.5 -8q-4 -3 -9 -6.5
t-12 -6.5v0zM882 609q-4 11 -8.5 22.5t-10.5 21.5l-5.5 11l-5.5 11q-4 5 -7.5 10.5t-6.5 10.5q-2 3 -4 5.5t-3 4.5l-7 8q-3 4 -7 8.5t-7 8.5l-16 16l-16 16q-33 29 -70.5 50t-75.5 33q-31 9 -61.5 13.5t-58.5 4.5h-13.5t-13.5 -1h-8t-9 -1q-4 -1 -8 -1.5t-8 -0.5
q-8 -2 -15.5 -3t-15.5 -3l-14 -4l-14 -4q-7 -3 -13.5 -5.5t-13.5 -4.5q-3 -1 -6 -2.5t-6 -2.5t-5.5 -2.5t-5.5 -3.5l-11 -5.5l-11 -5.5l-18 -12t-17 -11q-7 -6 -13.5 -11.5t-11.5 -10.5q-6 -5 -10 -9.5t-7 -7.5q-7 -7 -10.5 -11l-3.5 -4l4.5 2.5t13.5 6.5q4 3 9.5 6t11.5 6
q7 2 14 5t15 7l18 6t19 6q5 1 10.5 2t11.5 3q2 0 5 1t6 1q2 1 5 1.5t6 0.5l12 2t13 1q6 1 12.5 1t12.5 1q7 0 13.5 -0.5t13.5 -0.5h7h7q3 0 6.5 -1t7.5 -1q28 -3 57 -11t58 -21q28 -14 55 -33t50 -43q5 -6 10 -12.5t11 -12.5v-1l2 -2l3 -4l11 -16q2 -2 2.5 -3.5t1.5 -2.5
l3.5 -7t3.5 -6t3.5 -7t3.5 -8q3 -7 5.5 -15t5.5 -15q9 -32 10.5 -65.5t-6.5 -65.5q-2 -9 -4.5 -16.5t-4.5 -15.5l-7 -15l-3 -8l-4 -7q-8 -15 -17.5 -28.5t-20.5 -25.5l-12 -12l-3 -3l-1 -2v1v-1l-7 -5q-9 -8 -14 -11t-11 -7q-13 -8 -27.5 -13.5t-29.5 -9.5q-7 -2 -14.5 -3
t-14.5 -2h-15.5t-14.5 1q-15 1 -29.5 4t-28.5 8q-13 5 -26 11.5t-24 15.5q-6 4 -11 8.5t-10 9.5h-1q0 1 0 0.5v-0.5l1 -1v0v0l-2 2l-2 3l-6 6q-3 3 -4.5 5t-3.5 5q-4 4 -7.5 9.5t-6.5 10.5q-1 3 -2.5 5.5t-2.5 5.5q-2 3 -3 5.5t-2 5.5l-2 6l-2 5l-2 6t-1 6q-1 5 -2.5 11
t-1.5 11q-2 12 -1 22.5t1 20.5q1 5 2 9.5t2 9.5q1 4 2 8.5t3 8.5q5 17 12 29t12 20l9 12l3 4l-4.5 -3t-12.5 -8q-8 -7 -19 -16.5t-22 -26.5q-11 -16 -20.5 -38t-13.5 -50q-2 -14 -2 -29.5t3 -31.5q1 -4 1.5 -8.5t1.5 -8.5l2 -8t3 -8q1 -4 2.5 -8.5t3.5 -8.5q1 -4 3.5 -8
t4.5 -9q2 -4 4.5 -8.5t4.5 -7.5l4 -7l3 -3l1 -2v0l0.5 -0.5l0.5 -0.5q0 -1 0.5 -1.5t0.5 0.5v-1q6 -7 12 -14.5t13 -14.5q14 -14 30.5 -26t34.5 -23q5 -2 10 -4.5t9 -5.5q5 -1 10.5 -3t10.5 -4t10 -3.5t11 -3.5l11 -3q2 0 5 -0.5t6 -1.5q22 -4 45 -4.5t47 2.5q23 3 46.5 10
t45.5 19q11 6 23 13t19 13l8 6h1l2.5 2.5l0.5 0.5h-1h1v0l3 2l4 4l18 17q4 4 8 8.5t8 9.5q4 4 8 9l8 10l14 20q4 5 7 10.5t6 10.5l6 11l5 11q2 6 5 11.5t5 11.5q4 12 8 23.5t6 23.5q12 49 9 99t-19 96v0z" />
    <glyph glyph-name="uniE608" unicode="&#xe608;" 
d="M1024 875l-85 85l-427 -427l-427 427l-85 -85l427 -427l-427 -427l85 -85l427 427l427 -427l85 85l-427 427z" />
    <glyph glyph-name="uniE609" unicode="&#xe609;" 
d="M704 480v448h-384v-448h-320l512 -512l512 512h-320z" />
    <glyph glyph-name="uniE60A" unicode="&#xe60a;" 
d="M512 903l-512 -512h171v-398h227v27.5v65v75.5v59q0 43 57 50l57 7l57 -7.5t57 -49.5v-58.5v-76v-65v-27.5h227v398h171l-512 512v0z" />
    <glyph glyph-name="uniE60B" unicode="&#xe60b;" 
d="M0 960v-1024l1024 512z" />
    <glyph glyph-name="uniE60C" unicode="&#xe60c;" 
d="M1024 49q-1 8 -3.5 15.5t-5.5 14.5q-1 4 -3 7l-4 6q-1 1 -2 2.5t-2 2.5l-2.5 2.5l-2.5 2.5q-119 103 -164 141.5l-45 38.5q-10 9 -25 7.5t-29 -10.5q-2 2 -3 4.5t-3 3.5l-46 47q39 49 61.5 111t22.5 131q0 80 -30 149.5t-82.5 122t-122 82.5t-149.5 30t-149.5 -30
t-122 -82.5t-82.5 -122t-30 -149.5t30 -149.5t82.5 -122t122 -82.5t149.5 -30q69 0 131 23t111 63l46 -46q2 -2 4.5 -3t5.5 -3q-10 -14 -11 -29t8 -25q54 -62 90.5 -105.5t88.5 -104.5q1 -1 2.5 -2t2.5 -2l2.5 -2.5l2.5 -2.5q3 -2 6 -3.5l7 -3.5q6 -3 14 -5l16 -4
q16 -2 32.5 -1t28.5 8q13 9 24 19.5t19 24.5q7 11 8 27.5t1 33.5v0zM96 576q0 60 22.5 112.5t61.5 91.5t91.5 61.5t112.5 22.5t112.5 -22.5t91.5 -61.5t61.5 -91.5t22.5 -112.5t-22.5 -112.5t-61.5 -91.5t-91.5 -61.5t-112.5 -22.5t-112.5 22.5t-91.5 61.5t-61.5 91.5
t-22.5 112.5z" />
    <glyph glyph-name="uniE60D" unicode="&#xe60d;" 
d="M512 960q-80 0 -149.5 -30t-122 -82.5t-82.5 -122t-30 -149.5t60 -189.5t132 -210t132 -170.5l60 -70l60 70t132 170.5t132 210t60 189.5t-30 149.5t-82.5 122t-122 82.5t-149.5 30zM512 512q-53 0 -90.5 37.5t-37.5 90.5t37.5 90.5t90.5 37.5t90.5 -37.5t37.5 -90.5
t-37.5 -90.5t-90.5 -37.5z" />
    <glyph glyph-name="uniE60E" unicode="&#xe60e;" 
d="M925 723q-46 45 -110 45t-110 -45l-221 -221l-220 220q-45 45 -109 45t-110 -45q-45 -46 -45 -110t45 -109l329 -328q43 -45 110 -45t111 44l330 329q45 45 45 109.5t-45 110.5v0z" />
    <glyph glyph-name="uniE60F" unicode="&#xe60f;" 
d="M480 960h64v-1024h-64v1024z" />
    <glyph glyph-name="uniE610" unicode="&#xe610;" 
d="M1023 49l-4 16t-5 15q-2 3 -3.5 6t-3.5 6q-1 2 -2.5 3t-2.5 2q-1 2 -2 3l-2 2q-49 42 -89.5 77.5t-72 64t-53.5 48.5l-33 30q33 49 51.5 107t18.5 122q0 84 -32.5 159t-88 130.5t-130 87.5t-159.5 32t-159.5 -32t-130.5 -87.5t-88 -130.5t-32 -159q0 -85 32 -159.5
t88 -130t130.5 -88t159.5 -32.5q63 0 121.5 18.5t107.5 51.5q26 -30 54 -61.5t56.5 -63.5t56.5 -63t53 -60q1 -1 2 -2.5t2 -2.5q2 -1 3 -2t3 -2q2 -2 5.5 -4t6.5 -3q7 -3 14.5 -5.5t16.5 -3.5q16 -3 32.5 -1.5t27.5 8.5q14 8 24.5 19t19.5 24q7 12 8 28.5t-1 32.5v0z
M102 551q0 63 24.5 119t66 97.5t97.5 66t120 24.5q63 0 119 -24.5t98 -66t66 -97.5t24 -119q0 -64 -24 -120t-66 -97.5t-98 -65.5t-119 -24q-64 0 -120 24t-97.5 65.5t-66 97.5t-24.5 120v0zM563 601h-102v103q0 21 -15 36t-36 15t-36 -15t-15 -36v-103h-103q-21 0 -36 -15
t-15 -36t15 -36t36 -15h103v-102q0 -22 15 -37t36 -15t36 15t15 37v102h102q22 0 37 15t15 36t-15 36t-37 15v0z" />
    <glyph glyph-name="uniE611" unicode="&#xe611;" 
d="M14 871l34 -10q-3 -8 -6.5 -22.5t-3.5 -62.5t14 -99q13 -49 111.5 -147.5t205 -179.5t149.5 -95q23 -8 48.5 -10t45.5 1t36.5 7t25.5 7l9 4l327 -300l-826 -6q-39 0 -65.5 13t-65.5 55q-18 19 -28 48t-11 49v19v729zM90 851q92 -49 141 -95q22 -21 70.5 -102t79.5 -106
q25 -20 62 -30t75 -19t63 -25q26 -18 41 -58t16 -71l2 -31q-1 -1 -4 -2t-13 -3.5t-22 -3t-33.5 2.5t-45.5 9q-43 12 -140.5 88t-187.5 171.5t-106 151.5q-3 13 -5 27t-2 26t0.5 23t2 19t3 14.5t2.5 9.5zM809 951h16v-81l59 34l9 -15l-68 -39v-101l87 51v78h18v-68l70 41
l9 -15l-71 -41l60 -34l-9 -15l-69 39l-86 -50l86 -50l68 40l9 -16l-59 -34l70 -41l-8 -14l-70 40v-67h-18v77l-87 50v-100l67 -39l-9 -15l-58 34v-81h-17v82l-59 -35l-9 15l69 40v100l-88 -51v-77h-17v67l-70 -41l-9 15l71 41l-60 34l9 15l69 -39l86 50l-87 50l-68 -40
l-9 16l60 34l-71 41l9 14l70 -41v69h17v-79l88 -50v101l-68 39l9 15l59 -34v81z" />
    <glyph glyph-name="uniE613" unicode="&#xe613;" 
d="M1023 49l-4 16t-5 15q-2 3 -3.5 6t-3.5 6q-1 2 -2.5 3t-2.5 2q-1 2 -2 3l-2 2q-49 42 -89.5 77.5t-72 64t-53.5 48.5l-33 30q33 49 51.5 107t18.5 122q0 84 -32.5 159t-88 130.5t-130 87.5t-159.5 32t-159.5 -32t-130.5 -87.5t-88 -130.5t-32 -159q0 -85 32 -159.5
t88 -130t130.5 -88t159.5 -32.5q63 0 121.5 18.5t107.5 51.5q26 -30 54 -61.5t56.5 -63.5t56.5 -63t53 -60q1 -1 2 -2.5t2 -2.5q2 -1 3 -2t3 -2q2 -2 5.5 -4t6.5 -3q7 -3 14.5 -5.5t16.5 -3.5q16 -3 32.5 -1.5t27.5 8.5q14 8 24.5 19t19.5 24q7 12 8 28.5t-1 32.5v0z
M102 551q0 63 24.5 119t66 97.5t97.5 66t120 24.5q63 0 119 -24.5t98 -66t66 -97.5t24 -119q0 -64 -24 -120t-66 -97.5t-98 -65.5t-119 -24q-64 0 -120 24t-97.5 65.5t-66 97.5t-24.5 120v0zM563 601h-307q-21 0 -36 -15t-15 -36t15 -36t36 -15h307q22 0 37 15t15 36t-15 36
t-37 15z" />
    <glyph glyph-name="uniE901" unicode="&#xe901;" 
d="M400 608h352q13 0 22.5 -9.5t9.5 -22.5t-9.5 -22.5t-22.5 -9.5h-352q-13 0 -22.5 9.5t-9.5 22.5t9.5 22.5t22.5 9.5zM304 576q0 -13 -9.5 -22.5t-22.5 -9.5t-22.5 9.5t-9.5 22.5t9.5 22.5t22.5 9.5t22.5 -9.5t9.5 -22.5zM400 480h352q13 0 22.5 -9.5t9.5 -22.5
t-9.5 -22.5t-22.5 -9.5h-352q-13 0 -22.5 9.5t-9.5 22.5t9.5 22.5t22.5 9.5zM304 448q0 -13 -9.5 -22.5t-22.5 -9.5t-22.5 9.5t-9.5 22.5t9.5 22.5t22.5 9.5t22.5 -9.5t9.5 -22.5zM400 352h352q13 0 22.5 -9.5t9.5 -22.5t-9.5 -22.5t-22.5 -9.5h-352q-13 0 -22.5 9.5
t-9.5 22.5t9.5 22.5t22.5 9.5zM304 320q0 -13 -9.5 -22.5t-22.5 -9.5t-22.5 9.5t-9.5 22.5t9.5 22.5t22.5 9.5t22.5 -9.5t9.5 -22.5z" />
    <glyph glyph-name="uniF04D" unicode="&#xf04d;" horiz-adv-x="878" 
d="M878 841v-804q0 -15 -11 -26t-26 -11h-804q-15 0 -26 11t-11 26v804q0 15 11 26t26 11h804q15 0 26 -11t11 -26v0z" />
    <glyph glyph-name="uniF110" unicode="&#xf110;" 
d="M301 154q0 -30 -22 -51q-21 -22 -52 -22q-29 0 -51 22t-22 51q0 31 22 52q21 21 51 21q31 0 52 -21q22 -21 22 -52v0zM585 37q0 -31 -21 -52q-22 -22 -52 -22t-52 22q-21 21 -21 52q0 30 21 51q22 22 52 22t52 -22q21 -21 21 -51v0zM183 439q0 -30 -22 -52
q-21 -21 -51 -21q-31 0 -52 21q-21 22 -21 52t21 52q21 21 52 21q30 0 51 -21q22 -22 22 -52zM870 154q0 -29 -22 -51t-51 -22q-31 0 -52 22q-22 21 -22 51q0 31 22 52q21 21 52 21q30 0 51 -21q22 -21 22 -52v0zM319 723q0 -37 -27 -64t-65 -27q-37 0 -64 27t-27 64
q0 38 27 65t64 27q38 0 65 -27t27 -65v0zM987 439q0 -30 -21 -52q-21 -21 -52 -21q-30 0 -51 21q-22 22 -22 52t22 52q21 21 51 21q31 0 52 -21q21 -22 21 -52zM622 841q0 -46 -32 -78t-78 -32t-78 32t-32 78t32 78t78 32t78 -32t32 -78v0zM925 723q0 -53 -38 -90
q-38 -38 -90 -38q-54 0 -91 38q-37 37 -37 90t37 91q37 37 91 37q52 0 90 -37q38 -38 38 -91v0z" />
    <glyph glyph-name="uniE5FF" unicode="&#xe5ff;" 
d="M514.75 959.005q-0.478196 0.994802 -1.44336 0.458008q-27.5502 -15.323 -46.5483 -27.6032q-18.9981 -12.2802 -41.5827 -30.4928t-37.9606 -40.0131t-23.1476 -46.7327l-0.03125 -0.132812q-14.0167 -81.251 9.36426 -180.207q-33.2624 23.8307 -52.7623 47.8317
q-19.5 24.001 -18.5922 55.141q-1.44335 10.2244 -0.559823 23.062t-0.391421 23.3897t-6.16399 9.80613q-5.7714 -0.879583 -17.835 -19.6338q-29.2948 -33.7942 -36.6531 -80.9623t6.83667 -89.1324q2.09092 -12.7969 17.9708 -67.4658q15.8799 -54.6688 13.2059 -84.9405
q-3.14648 -13.8504 -12.9117 -31.6746q-9.7652 -17.8242 -14.517 -16.6164q-4.71345 1.19707 -3.60938 22.5332q-0.956582 13.8077 -5.53378 27.9136q-4.5772 14.1059 -8.93162 23.7291q-4.35442 9.62318 -15.0219 24.4496t-15.278 20.5988t-18.794 22.1505
q-14.1835 16.3781 -17.0442 19.7542q-0.458061 0.541955 -1.12988 0.311523q-1.06372 -0.36376 -0.617188 -1.39648q40.4737 -93.5118 0.984375 -166.856q-11.2722 -30.6321 -16.4535 -46.9503t-11.3125 -43.6236q-6.13125 -27.3055 -4.40705 -50.7628
q1.72421 -23.4573 10.4767 -45.6761q39.9753 -137.159 122.764 -186.844q108.718 -82.3158 221.824 -86.417q0.922844 -0.0333086 1.06543 0.87793q0.174581 1.1118 -0.947266 1.19824q-68.9684 5.29567 -135.043 55.3359q-53.3047 31.9769 -79.0752 120.43
q-4.54743 11.5451 -5.74065 24.6428q-1.19321 13.0977 -0.374241 23.4171q0.818973 10.3194 4.78771 25.2434q3.96874 14.924 6.76107 23.047q2.79234 8.12302 8.56025 23.8128q24.4048 45.407 1.84961 103.765q1.36595 -1.58012 4.12426 -4.75213
q13.5698 -15.6051 20.537 -24.5797q6.96715 -8.97459 14.4913 -24.4246q7.52415 -15.45 8.56521 -30.182q-0.833174 -16.2588 4.28516 -16.4072q4.6368 -0.134845 10.8751 11.5808q6.23831 11.7157 8.37978 21.1428q1.80854 20.3579 -8.57662 56.1212t-11.6519 43.5321
q-9.13488 27.1043 -4.42578 57.2793t23.4268 51.7451q3.34399 5.18095 5.87664 8.1287q2.53264 2.94775 3.63247 3.58798q1.09982 0.640226 1.5739 0.311644q1.33252 -0.924493 1.52478 -7.2202t-0.0713614 -13.5173t0.615922 -14.0184q-0.777146 -34.2018 48.5186 -69.2646
q0.346605 -0.246402 0.766602 -0.179688q1.11121 0.178456 0.84668 1.27148q-15.6451 64.8123 -6.48926 117.993q9.25209 29.6105 33.355 50.527q24.1029 20.9165 61.4741 41.7689q-0.0080899 -2.86347 -9.37594 -24.1822q-9.36785 -21.3187 -9.6514 -31.436
q-1.91409 -12.8916 3.76817 -24.7616q5.68227 -11.8699 16.7807 -25.4456q11.0984 -13.5757 14.7089 -20.0721q15.6458 -20.5601 53.1425 -56.9173q37.4967 -36.3572 53.2579 -57.7116l0.262695 -0.25q1.48983 -0.986438 13.7528 -26.0487q6.3954 -9.90689 9.24813 -6.02549
l0.0810547 0.322266q4.73088 54.556 -61.2168 112.273q42.0533 -16.1444 78.208 -54.1895q46.2472 -51.5243 66.8808 -119.991q20.6336 -68.4665 9.6446 -136.253q-5.8899 -28.5457 -9.60295 -43.3469t-13.5747 -37.0511q-9.86166 -22.2499 -23.4942 -36.8755
q-53.219 -51.1227 -159.144 -68.2422q-0.931589 -0.150671 -0.87207 -1.09277q0.0716683 -1.1228 1.18555 -0.962891q178.603 25.5429 265.101 108.658q21.3566 22.8995 36.7326 57.5842q15.376 34.6847 21.0556 57.3895q5.67963 22.7048 14.8299 67.0556
q17.0402 105.109 -14.9008 211.099q-31.9411 105.989 -103.624 185.85q-59.9082 63.0397 -129.719 87.1484q-0.616918 0.21342 -1.07617 -0.249023q-0.794924 -0.796764 0.0625 -1.52539q107.163 -91.1804 100.005 -176.231q-1.35824 -3.02208 -2.58496 -2.45605
q-2.39702 1.10427 -11.8729 24.525q-9.47584 23.4207 -16.8605 28.5346q-24.376 32.965 -82.1358 89.0042q-57.7598 56.0392 -81.4941 87.1892q-5.92078 10.6358 -22.8378 31.4265q-16.917 20.7908 -25.4466 38.4389q-8.52957 17.6482 -5.66588 36.7371
q0.381554 14.6068 15.8302 49.1089q15.4486 34.5021 12.9198 39.7632zM513.183 957.014q0.589977 -4.96688 -14.1195 -38.075q-14.7095 -33.1082 -15.1295 -48.5607q-2.28073 -15.3058 3.35792 -30.9867q5.63866 -15.6809 13.9357 -26.5271q8.297 -10.8462 19.9056 -25.745
q11.6086 -14.8989 17.0362 -24.664q20.3422 -26.7267 51.5202 -57.545q31.1779 -30.8183 61.7595 -61.3476q30.5816 -30.5293 50.5651 -57.6055q6.50479 -4.3825 16.0645 -28.099q9.55967 -23.7165 13.3652 -25.4693q3.21067 -1.47899 5.43164 3.67285
q7.41681 84.9168 -96.3672 174.825q66.4986 -24.6302 123.591 -84.707q71.3276 -79.4666 103.142 -185.035t14.8647 -210.126q-9.09007 -44.056 -14.7996 -66.831q-5.7095 -22.775 -20.9393 -57.1366q-15.2298 -34.3615 -36.2963 -56.9592
q-74.5409 -71.6119 -213.445 -99.502q69.2003 18.8838 110.099 58.1826q13.9226 14.9269 23.9305 37.5002q10.0079 22.5732 13.691 37.304t9.63334 43.5718q11.0795 68.3391 -9.6807 137.226q-20.7602 68.8872 -67.3623 120.806q-38.9601 40.9976 -84.3701 56.6787
q-1.06383 0.367472 -1.34668 -0.72168q-0.163649 -0.630576 0.333008 -1.05273q69.363 -59.015 64.8076 -114.049q-1.92629 -4.18652 -5.37792 5.10489q-8.95534 24.1068 -14.3418 27.9254q-13.1617 17.7799 -33.0309 37.6222q-19.8692 19.8423 -39.986 39.7091
t-33.1696 36.9939q-3.89272 6.98702 -14.8486 20.466q-10.9558 13.4789 -16.4611 24.8448q-5.50527 11.3659 -3.663 23.6482q0.245414 9.27115 10.3178 31.7621q10.0724 22.4909 8.31401 26.15q-0.478111 0.995323 -1.44336 0.458008q-24.4885 -13.6201 -40.3391 -24.3439
q-15.8506 -10.7238 -32.9755 -29.6908q-17.1249 -18.967 -23.7479 -40.2143q-9.0687 -52.52 5.83008 -116.329q-46.3354 33.3512 -45.3848 65.9814q-0.44806 4.16817 -0.435394 9.96486t0.235199 11.1351t-0.4086 9.73967t-2.35703 5.59883
q-4.07274 2.82508 -13.8877 -12.4307q-19.075 -22.0157 -23.8658 -52.7269t4.44299 -58.0084q1.38759 -8.48315 11.6332 -43.8658t8.59339 -54.9887q-1.91991 -8.45035 -8.04417 -19.7881t-9.1072 -11.2519q-2.99964 0.0870301 -2.26562 14.2852
q-0.538404 7.8191 -2.37024 15.1764t-5.44199 14.6468t-6.71666 12.8241t-8.91049 12.9871t-9.12511 11.5042q-3.32113 4.05163 -10.2589 12.007t-9.59459 11.0907q-0.72689 0.859387 -1.52539 0.0664062q-0.504221 -0.499665 -0.22168 -1.15137
q26.2077 -60.5484 0.651367 -108.013q-7.35261 -19.9709 -10.7107 -30.5446q-3.35813 -10.5737 -7.35449 -28.3544q-3.99636 -17.7807 -2.87189 -33.0564t6.82579 -29.7565q25.9879 -89.1595 79.8477 -121.494q50.7207 -38.3986 104.62 -50.8711
q-96.9486 13.4739 -189.098 83.2607q-82.2334 49.3273 -121.991 185.779q-7.01703 17.8081 -8.86062 38.0649q-1.84358 20.2569 -0.585546 36.1733q1.25804 15.9165 7.39991 38.9911q6.14187 23.0746 10.4282 35.5354q4.28634 12.4608 13.1972 36.6992
q38.2597 71.1464 1.61816 162.474q2.16127 -2.51382 11.1022 -12.7969q8.94098 -10.283 11.7899 -13.7334q2.84888 -3.45032 10.6308 -12.9482q7.78194 -9.49788 10.8842 -14.3646q3.10227 -4.86672 9.07369 -13.7978q5.97142 -8.93106 8.6756 -15.4325
q2.70418 -6.50146 6.21358 -15.084q3.5094 -8.58258 5.16399 -16.9371q1.65459 -8.35456 2.26775 -17.0686q-1.18205 -22.9765 5.17676 -24.5928q4.52897 -1.1514 11.1179 8.01173q6.58891 9.16314 11.7193 21.0931q5.1304 11.9299 7.13155 20.7409l0.0224609 0.138672
q2.73859 31.0002 -13.2334 85.9946q-15.972 54.9944 -17.9521 67.1382q-14.096 41.7707 -6.81946 88.403t36.214 79.9808q11.6776 18.1444 16.5293 18.8848q3.25959 0.497292 3.87688 -8.9634t-0.0285012 -21.7705t0.872323 -23.4966q-0.570812 -22.8034 11.8649 -44.1699
t26.3738 -33.7892q13.9381 -12.4227 36.2516 -28.2929q0.916628 -0.65211 1.49414 0.313477q0.219172 0.365287 0.119141 0.77832q-24.1303 99.962 -9.99512 182.002q14.3338 45.9133 51.9568 78.4055q37.623 32.4922 95.1526 64.5408zM366.073 814.067v0zM245.338 425.663
v0zM167.918 395.353v0zM352.808 -8.28027v0zM272.96 113.214v0zM339.775 369.396v0zM359.198 480.132v0zM530.453 473.392v0zM810.07 50.0918v0zM483.934 870.378v0zM513.812 958.555q1.57971 -3.28664 -2.43212 -14.0601q-4.01183 -10.7735 -9.88627 -22.9074
q-5.87444 -12.1339 -11.0756 -26.9158q-5.20115 -14.7819 -5.44684 -24.3843q-2.91152 -19.4077 5.71144 -37.3201t25.6178 -38.758q16.9948 -20.8456 22.7772 -31.2491q23.8177 -31.2724 81.5823 -87.2813q57.7645 -56.0089 82.1902 -89.1044
q6.05494 -4.00875 21.2365 -40.167q7.95159 -18.9385 11.8328 -9.93355q7.4221 85.584 -100.353 177.283q69.5726 -24.0273 129.295 -86.8711q71.5051 -79.6643 103.383 -185.443q31.8777 -105.779 14.8828 -210.613q-9.12087 -44.2064 -14.816 -66.948
q-5.69513 -22.7415 -21.0002 -57.2665q-15.305 -34.525 -36.5002 -57.2533q-86.2551 -82.8822 -264.527 -108.379q106.263 17.174 159.719 68.5391q10.5418 11.304 18.3278 24.8727t13.3769 31.6348q5.59083 18.0661 8.18213 28.8418q2.5913 10.7757 7.06635 32.4651
q11.0342 68.0633 -9.66263 136.74q-20.6968 68.6767 -67.1216 120.399q-38.7743 40.8017 -83.9463 56.4014q69.9735 -59.5346 65.1553 -115.102q-2.60618 -6.04568 -8.47188 8.35987q-8.67549 21.3061 -12.9998 24.1694q-13.0147 17.6337 -32.8874 37.478
q-19.8727 19.8443 -40.0996 39.8322q-20.2269 19.9879 -33.3411 37.2065q-3.58663 6.45316 -11.1141 16.1389q-7.52751 9.68572 -12.8786 16.6727q-5.35111 6.98702 -8.97801 17.0338q-3.6269 10.0468 -2.15814 19.8382q0.201477 7.86214 5.60509 21.0165
q5.40362 13.1544 9.89333 23.4061q4.48971 10.2518 3.22424 12.885q-17.846 -9.92585 -30.1806 -17.9011q-12.3346 -7.97522 -26.9263 -19.7487t-24.5241 -25.8477q-9.93241 -14.0743 -14.9441 -30.1529q-9.21492 -53.4184 6.49121 -118.481
q-49.0569 34.8915 -48.0781 68.4736q-0.195405 1.34443 -0.314807 3.04011t-0.167772 3.12702q-0.0483695 1.43134 -0.0449862 3.60375q0.00338322 2.17241 0.0227591 3.44321q0.0193759 1.27081 0.0662548 3.6725q0.153529 7.86555 -0.0482981 11.3075t-1.39797 6.49177
t-4.43271 0.0786625t-8.66294 -11.412q-18.9175 -21.8003 -23.6708 -52.2635t4.42859 -57.6095q1.32038 -8.09796 11.6623 -43.6987q10.3419 -35.6007 8.57891 -55.5572q-4.78954 -21.0825 -15.2081 -30.414q-5.49712 -4.92359 -6.28068 5.75439
q-0.243956 3.32452 0.00436412 8.1225q-0.615302 8.80788 -3.57526 17.905q-2.95996 9.09714 -5.74803 15.2792q-2.78807 6.18206 -9.7204 15.8075q-6.93232 9.62547 -9.86926 13.3096q-2.93694 3.68408 -12.1926 14.3778q-9.25565 10.6937 -11.0673 12.8317
q26.4078 -61.0101 0.613281 -108.919q-7.25639 -19.7377 -10.6306 -30.3695q-3.37424 -10.6318 -7.327 -28.2651q-3.95277 -17.6333 -2.84267 -32.7785q1.11009 -15.1452 6.75831 -29.4689q11.7671 -40.3886 30.6214 -71.6909q18.8544 -31.3023 48.8239 -49.2769
q66.3169 -50.2236 135.591 -55.5439q-112.804 4.09105 -221.279 86.2412q-82.4896 49.4742 -122.361 186.317q-8.69942 22.0616 -10.4093 45.3884q-1.70985 23.3268 4.37786 50.4849q6.08771 27.1581 11.285 43.5341t16.3734 46.7752q39.7276 73.7892 -0.946289 167.763
q4.05723 -4.78828 14.7924 -17.1104q10.7352 -12.3221 15.7782 -18.4823q5.043 -6.16018 13.977 -17.6315q8.934 -11.4713 13.6471 -19.882q4.71309 -8.41062 10.2464 -19.5548t8.3169 -22.3289t3.6005 -22.8803q-1.32586 -25.6126 6.1564 -23.5383
q11.5393 3.19905 24.3534 40.2335l2.58003 8.77846q2.04396 23.1362 -3.71174 49.1479q-5.7557 26.0117 -15.0824 55.5008q-9.32668 29.4891 -12.3817 48.2253q-14.143 41.8126 -6.82227 88.7332t36.458 80.4993q8.35857 13.0012 13.3442 17.5772t6.82831 -0.122088
q1.84271 -4.69811 2.15377 -10t0.0749332 -17.4173q-0.0720905 -3.69881 -0.101876 -5.65595q-0.0297851 -1.95714 -0.0349082 -5.30279q-0.00512313 -3.34565 0.0694146 -5.55001q0.0745377 -2.20436 0.258463 -4.81581q0.183925 -2.61145 0.484867 -4.68199
q-0.652256 -22.3715 11.612 -43.4977q12.2642 -21.1262 26.2754 -33.668q14.0112 -12.5419 36.1634 -28.2972q-24.1911 100.212 -9.99707 182.49q14.4964 46.508 52.3803 79.1104q37.8839 32.6025 96.3716 65.1327z" />
    <glyph glyph-name="uniE5FE" unicode="&#xe5fe;" 
d="M512 960q13.2711 -19.5016 35.296 -53.4834q22.0249 -33.9818 78.3258 -131.693t99.3306 -187.074q43.0297 -89.3636 78.3258 -198.619q35.296 -109.256 35.296 -187.337q0 -44.5447 -9.40814 -81.9625t-25.5131 -63.1339t-37.5511 -46.756t-45.5221 -32.829
t-49.4262 -21.3527t-49.2632 -12.3272t-45.0333 -5.75242t-36.7364 -1.62844t-24.3726 0.0447718q-8.78709 1.31936 -24.6623 -0.0446754t-37.4427 1.62868t-46.0358 5.75273t-50.4417 12.3275t-50.6602 21.3529t-46.6914 32.8291t-38.5353 46.7559t-26.1918 63.1335
t-9.66113 81.9617q0 78.0814 33.6371 184.9q33.6371 106.818 81.6436 203.495q48.0064 96.6767 96.0128 182.199q48.0064 85.5222 81.6436 136.568zM533.373 870.109q9.30437 -28.1491 24.0967 -75.8887q14.7923 -47.7396 47.0319 -172.594
q32.2397 -124.854 48.5257 -222.785h89.5117q-30.7261 98.6615 -83.0176 216.478q-52.2915 117.817 -89.2199 186.303zM662.664 154.193q-28.2552 -125.557 -154.295 -159.888q-3.19686 -0.87076 -0.0944352 -0.926303q1.06749 -0.0191113 3.92415 -0.00814899
q1.72421 -0.00660963 15.9146 -0.386971q14.1904 -0.380362 24.1503 -0.41462q9.95991 -0.034258 28.8553 1.21805q18.8954 1.2523 33.36 3.81239q14.4646 2.56009 34.1119 8.11363q19.6473 5.55354 34.6636 13.3765q15.0162 7.82301 31.4625 20.3464t28.061 28.2778
q11.6148 15.7545 20.9069 37.9162q9.29208 22.1617 13.3304 48.5628h-114.352z" />
  </font>
</defs>
</svg>
